<?xml version="1.0" encoding="utf-8"?>
<!-- Generator: Adobe Illustrator 25.2.3, SVG Export Plug-In . SVG Version: 6.00 Build 0)  -->
<svg version="1.1" xmlns="http://www.w3.org/2000/svg" xmlns:xlink="http://www.w3.org/1999/xlink" x="0px" y="0px"
	 viewBox="0 0 500 500" style="enable-background:new 0 0 500 500;" xml:space="preserve">
<style type="text/css">
	.st0{display:none;}
	.st1{display:inline;fill:url(#SVGID_1_);}
	.st2{display:inline;fill:url(#SVGID_2_);}
	.st3{display:inline;fill:url(#SVGID_3_);}
	.st4{display:inline;fill:url(#SVGID_4_);}
	.st5{fill:url(#SVGID_5_);}
	.st6{fill:url(#SVGID_6_);}
	.st7{fill:url(#SVGID_7_);}
	.st8{fill:url(#SVGID_8_);}
</style>
<g id="Layer_1">
</g>
<g id="Layer_2">
	<g class="st0">
		<linearGradient id="SVGID_1_" gradientUnits="userSpaceOnUse" x1="167.3611" y1="250.6724" x2="252.1587" y2="165.8747">
			<stop  offset="0" style="stop-color:#C438E7"/>
			<stop  offset="0.9469" style="stop-color:#2D2BD6"/>
		</linearGradient>
		<polygon class="st1" points="229.69,243.25 172.05,276.6 172.31,197.4 143.82,184.68 143.82,184.68 144.3,327.45 229.05,278.52 		
			"/>
		<linearGradient id="SVGID_2_" gradientUnits="userSpaceOnUse" x1="167.5265" y1="319.5078" x2="327.684" y2="159.3503">
			<stop  offset="0" style="stop-color:#C438E7"/>
			<stop  offset="1" style="stop-color:#2D2BD6"/>
			<stop  offset="1" style="stop-color:#252AD5"/>
		</linearGradient>
		<path class="st2" d="M247.41,131.64c-41.98,0-78.86,19.8-99.99,49.67l28.92,12.36c13.58-17.33,38.12-28.91,66.14-28.91
			c42.75,0,77.4,26.92,77.4,60.12S285.24,285,242.49,285c-4.75,0-9.38-0.36-13.89-1l-0.01,0.01l-60.99,35.57
			c21.09,17.4,49.09,28,79.81,28c65.61,0,118.8-48.34,118.8-107.97S313.02,131.64,247.41,131.64z"/>
		<linearGradient id="SVGID_3_" gradientUnits="userSpaceOnUse" x1="224.6665" y1="217.3328" x2="316.5815" y2="125.4178">
			<stop  offset="0" style="stop-color:#C438E7"/>
			<stop  offset="0.263" style="stop-color:#2D2BD6"/>
			<stop  offset="1" style="stop-color:#252AD5"/>
		</linearGradient>
		<path class="st3" d="M364.82,204.3c-12.78-48.52-61.17-84.62-118.91-84.62c-26.33,0-50.72,7.51-70.67,20.28
			c-6.22,5.58-13.52,12.97-18.12,20.39c22.55-21.51,54.34-34.91,89.57-34.91C302.1,125.44,349.01,158.59,364.82,204.3z"/>
		<linearGradient id="SVGID_4_" gradientUnits="userSpaceOnUse" x1="187.623" y1="229.1646" x2="249.0554" y2="167.7322">
			<stop  offset="0" style="stop-color:#C438E7"/>
			<stop  offset="1" style="stop-color:#2D2BD6"/>
			<stop  offset="1" style="stop-color:#252AD5"/>
		</linearGradient>
		<path class="st4" d="M349.18,164.95C332.21,133.1,295.07,111,251.97,111c-21.71,0-41.91,5.61-58.78,15.25
			c15.96-6.56,33.9-10.25,52.88-10.25C289.87,116,328.18,135.63,349.18,164.95z"/>
	</g>
	<g>
		<linearGradient id="SVGID_5_" gradientUnits="userSpaceOnUse" x1="115.4411" y1="303.5923" x2="200.2387" y2="218.7947">
			<stop  offset="0" style="stop-color:#C438E7"/>
			<stop  offset="1" style="stop-color:#2D2BD6"/>
			<stop  offset="1" style="stop-color:#252AD5"/>
		</linearGradient>
		<polygon class="st5" points="227.69,246.25 170.05,279.6 170.31,200.4 141.82,187.68 141.82,187.68 142.3,330.45 227.05,281.52 		
			"/>
		<linearGradient id="SVGID_6_" gradientUnits="userSpaceOnUse" x1="165.5265" y1="322.5078" x2="325.684" y2="162.3503">
			<stop  offset="0" style="stop-color:#C438E7"/>
			<stop  offset="1" style="stop-color:#2D2BD6"/>
			<stop  offset="1" style="stop-color:#252AD5"/>
		</linearGradient>
		<path class="st6" d="M245.41,134.64c-41.98,0-78.86,19.8-99.99,49.67l28.92,12.36c13.58-17.33,38.12-28.91,66.14-28.91
			c42.75,0,77.4,26.92,77.4,60.12S283.24,288,240.49,288c-4.75,0-9.38-0.36-13.89-1l-0.01,0.01l-60.99,35.57
			c21.09,17.4,49.09,28,79.81,28c65.61,0,118.8-48.34,118.8-107.97S311.02,134.64,245.41,134.64z"/>
		<linearGradient id="SVGID_7_" gradientUnits="userSpaceOnUse" x1="217.3865" y1="225.6128" x2="309.3015" y2="133.6978">
			<stop  offset="0" style="stop-color:#C438E7"/>
			<stop  offset="1" style="stop-color:#2D2BD6"/>
			<stop  offset="1" style="stop-color:#252AD5"/>
		</linearGradient>
		<path class="st7" d="M362.82,207.3c-12.78-48.52-61.17-84.62-118.91-84.62c-26.33,0-50.72,7.51-70.67,20.28
			c-6.22,5.58-13.52,12.97-18.12,20.39c22.55-21.51,54.34-34.91,89.57-34.91C300.1,128.44,347.01,161.59,362.82,207.3z"/>
		<linearGradient id="SVGID_8_" gradientUnits="userSpaceOnUse" x1="239.863" y1="177.9246" x2="301.2954" y2="116.4922">
			<stop  offset="0" style="stop-color:#C438E7"/>
			<stop  offset="1" style="stop-color:#2D2BD6"/>
			<stop  offset="1" style="stop-color:#252AD5"/>
		</linearGradient>
		<path class="st8" d="M347.18,167.95C330.21,136.1,293.07,114,249.97,114c-21.71,0-41.91,5.61-58.78,15.25
			c15.96-6.56,33.9-10.25,52.88-10.25C287.87,119,326.18,138.63,347.18,167.95z"/>
	</g>
</g>
</svg>
