<?xml version="1.0" encoding="utf-8"?>
<!-- Generator: Adobe Illustrator 25.2.3, SVG Export Plug-In . SVG Version: 6.00 Build 0)  -->
<svg version="1.1" xmlns="http://www.w3.org/2000/svg" xmlns:xlink="http://www.w3.org/1999/xlink" x="0px" y="0px"
	 viewBox="0 0 290.88 281.52" style="enable-background:new 0 0 290.88 281.52;" xml:space="preserve">
<style type="text/css">
	.st0{display:none;}
	.st1{display:inline;fill:#6382CE;stroke:#231F20;stroke-miterlimit:10;}
	.st2{display:inline;fill:url(#SVGID_1_);}
	.st3{display:inline;fill:url(#SVGID_2_);}
	.st4{display:inline;fill:url(#SVGID_3_);}
	.st5{display:inline;fill:url(#SVGID_4_);}
	.st6{fill:#FFFFFF;}
</style>
<g id="Layer_1" class="st0">
</g>
<g id="Layer_3" class="st0">
	<rect class="st1" width="290.88" height="281.52"/>
</g>
<g id="Layer_2">
	<g class="st0">
		<linearGradient id="SVGID_1_" gradientUnits="userSpaceOnUse" x1="55.1611" y1="158.6324" x2="139.9587" y2="73.8347">
			<stop  offset="0" style="stop-color:#C438E7"/>
			<stop  offset="0.9469" style="stop-color:#2D2BD6"/>
		</linearGradient>
		<polygon class="st2" points="117.49,151.21 59.85,184.56 60.11,105.36 31.62,92.64 31.62,92.64 32.1,235.41 116.85,186.48 		"/>
		<linearGradient id="SVGID_2_" gradientUnits="userSpaceOnUse" x1="55.3265" y1="227.4678" x2="215.484" y2="67.3103">
			<stop  offset="0" style="stop-color:#C438E7"/>
			<stop  offset="1" style="stop-color:#2D2BD6"/>
			<stop  offset="1" style="stop-color:#252AD5"/>
		</linearGradient>
		<path class="st3" d="M135.21,39.6c-41.98,0-78.86,19.8-99.99,49.67l28.92,12.36c13.58-17.33,38.12-28.91,66.14-28.91
			c42.75,0,77.4,26.92,77.4,60.12s-34.65,60.12-77.4,60.12c-4.75,0-9.38-0.36-13.89-1l-0.01,0.01L55.4,227.54
			c21.09,17.4,49.09,28,79.81,28c65.61,0,118.8-48.34,118.8-107.97S200.82,39.6,135.21,39.6z"/>
		<linearGradient id="SVGID_3_" gradientUnits="userSpaceOnUse" x1="112.4665" y1="125.2928" x2="204.3815" y2="33.3778">
			<stop  offset="0" style="stop-color:#C438E7"/>
			<stop  offset="0.263" style="stop-color:#2D2BD6"/>
			<stop  offset="1" style="stop-color:#252AD5"/>
		</linearGradient>
		<path class="st4" d="M252.62,112.26c-12.78-48.52-61.17-84.62-118.91-84.62c-26.33,0-50.72,7.51-70.67,20.28
			c-6.22,5.58-13.52,12.97-18.12,20.39C67.47,46.8,99.26,33.4,134.49,33.4C189.9,33.4,236.81,66.55,252.62,112.26z"/>
		<linearGradient id="SVGID_4_" gradientUnits="userSpaceOnUse" x1="75.423" y1="137.1246" x2="136.8554" y2="75.6922">
			<stop  offset="0" style="stop-color:#C438E7"/>
			<stop  offset="1" style="stop-color:#2D2BD6"/>
			<stop  offset="1" style="stop-color:#252AD5"/>
		</linearGradient>
		<path class="st5" d="M236.98,72.91c-16.97-31.85-54.11-53.96-97.21-53.96c-21.71,0-41.91,5.61-58.78,15.25
			c15.96-6.56,33.9-10.25,52.88-10.25C177.67,23.96,215.98,43.59,236.98,72.91z"/>
	</g>
	<g>
		<g>
			<path class="st6" d="M35.64,101.82l20.46,9.14l-0.25,76.59l-0.02,6.96l6.03-3.49l51.51-29.81l-0.47,25.93l-76.82,44.35
				L35.64,101.82 M31.62,95.64l0.48,142.77l84.75-48.93l0.64-35.28l-57.64,33.35l0.26-79.2L31.62,95.64L31.62,95.64L31.62,95.64z"/>
		</g>
		<g>
			<path class="st6" d="M133.21,46.6c63.3,0,114.8,46.64,114.8,103.97s-51.5,103.97-114.8,103.97c-26.63,0-52.22-8.31-72.7-23.52
				l54.73-31.91c4.38,0.56,8.77,0.85,13.06,0.85c21.56,0,41.87-6.55,57.18-18.45c15.62-12.13,24.22-28.35,24.22-45.67
				s-8.6-33.54-24.22-45.67c-15.32-11.9-35.63-18.45-57.18-18.45c-27.24,0-52.15,10.43-67.33,28.05l-21.5-9.19
				C61.01,62.95,95.67,46.6,133.21,46.6 M133.21,42.6c-41.98,0-78.86,19.8-99.99,49.67l28.92,12.36
				c13.58-17.33,38.12-28.91,66.14-28.91c42.75,0,77.4,26.92,77.4,60.12s-34.65,60.12-77.4,60.12c-4.75,0-9.38-0.36-13.89-1
				l-0.01,0.01L53.4,230.54c21.09,17.4,49.09,28,79.81,28c65.61,0,118.8-48.34,118.8-107.97S198.82,42.6,133.21,42.6L133.21,42.6z"
				/>
		</g>
		<g>
			<path class="st6" d="M131.71,30.64c-26.33,0-50.72,7.51-70.67,20.28c-6.22,5.58-13.52,12.97-18.12,20.39
				C65.47,49.8,97.26,36.4,132.49,36.4c55.41,0,102.32,33.15,118.13,78.86C237.84,66.74,189.46,30.64,131.71,30.64L131.71,30.64z"/>
		</g>
		<g>
			<path class="st6" d="M137.77,21.96c-21.71,0-41.91,5.61-58.78,15.25c15.96-6.56,33.9-10.25,52.88-10.25
				c43.8,0,82.11,19.63,103.11,48.95C218.01,44.06,180.87,21.96,137.77,21.96L137.77,21.96z"/>
		</g>
	</g>
</g>
</svg>
