<svg xmlns="http://www.w3.org/2000/svg" xmlns:xlink="http://www.w3.org/1999/xlink" width="544.965" height="449.428" viewBox="0 0 544.965 449.428">
  <defs>
    <clipPath id="clip-path">
      <path id="Path_42268" data-name="Path 42268" d="M183.074,181.5h402V455.25h-402Zm0,0"/>
    </clipPath>
    <clipPath id="clip-path-2">
      <path id="Path_42306" data-name="Path 42306" d="M110.3,286.465H264.8v62.25H110.3Zm0,0"/>
    </clipPath>
    <clipPath id="clip-path-3">
      <path id="Path_42327" data-name="Path 42327" d="M500.762,286.465h154.5v62.25h-154.5Zm0,0"/>
    </clipPath>
  </defs>
  <g id="_2" data-name="2" transform="translate(-110.297 -64.431)">
    <g id="Group_4774" data-name="Group 4774" clip-path="url(#clip-path)">
      <path id="Path_42267" data-name="Path 42267" d="M448.316,181.5a136.659,136.659,0,0,0-64.164,15.984A136.669,136.669,0,0,0,319.984,181.5C244.453,181.5,183,242.926,183,318.426s61.453,136.926,136.984,136.926a136.364,136.364,0,0,0,64.168-15.985,135.758,135.758,0,0,0,64.164,15.985c75.536,0,136.985-61.426,136.985-136.926S523.852,181.5,448.316,181.5ZM319.984,447.309c-71.105,0-129.039-57.809-129.039-128.985s57.832-128.883,129.039-128.883A127.4,127.4,0,0,1,376,202.309a136.689,136.689,0,0,0,0,232.23A127.935,127.935,0,0,1,319.984,447.309Zm-.605-128.883a129.157,129.157,0,0,1,64.773-111.793,128.862,128.862,0,0,1,0,223.586A128.948,128.948,0,0,1,319.379,318.426ZM448.316,447.309A127.729,127.729,0,0,1,392.3,434.441a136.689,136.689,0,0,0,0-232.23,128.02,128.02,0,0,1,56.019-12.871c71.11,0,129.039,57.808,129.039,128.984A129.089,129.089,0,0,1,448.316,447.309Zm0,0" fill="#fff"/>
    </g>
    <path id="Path_42269" data-name="Path 42269" d="M384.152,420.867a120.863,120.863,0,0,1,0-204.883,120.866,120.866,0,0,1,0,204.883Zm0,0" fill="#fff"/>
    <g id="Group_4776" data-name="Group 4776">
      <g id="Group_4775" data-name="Group 4775" transform="translate(158.541 89.525)">
        <path id="Path_42270" data-name="Path 42270" d="M2.328-2.8H4.656v-19H2.328v-2.844l11.062.031a7.064,7.064,0,0,1,2.813.563,7.084,7.084,0,0,1,2.281,1.516,7.1,7.1,0,0,1,1.547,2.281,7.112,7.112,0,0,1,.563,2.828,4.957,4.957,0,0,1-.891,2.875,6.128,6.128,0,0,1-2.5,2.078,7.535,7.535,0,0,1,1.438.984A6.325,6.325,0,0,1,19.75-10.25a5.321,5.321,0,0,1,.719,1.406,4.853,4.853,0,0,1,.25,1.516,7.286,7.286,0,0,1-.562,2.875,7.353,7.353,0,0,1-1.547,2.328A7.274,7.274,0,0,1,16.328-.562,6.927,6.927,0,0,1,13.547,0H2.328Zm5.516-8.141V-2.8h5.734a2.75,2.75,0,0,0,1.438-.391A4.2,4.2,0,0,0,16.188-4.2a4.841,4.841,0,0,0,.781-1.406,4.669,4.669,0,0,0,.3-1.625,3.349,3.349,0,0,0-.3-1.375,4.119,4.119,0,0,0-.8-1.187A3.452,3.452,0,0,0,15-10.625a3.356,3.356,0,0,0-1.422-.312Zm0-10.859v8.031h5.578a3.374,3.374,0,0,0,1.453-.312,3.961,3.961,0,0,0,1.172-.828,3.8,3.8,0,0,0,.781-1.187,3.582,3.582,0,0,0,.3-1.422,4.349,4.349,0,0,0-.3-1.562,4.333,4.333,0,0,0-.8-1.375,3.966,3.966,0,0,0-1.172-.969,2.914,2.914,0,0,0-1.437-.375Zm0,0" fill="#fff"/>
      </g>
    </g>
    <g id="Group_4778" data-name="Group 4778">
      <g id="Group_4777" data-name="Group 4777" transform="translate(180.489 89.525)">
        <path id="Path_42271" data-name="Path 42271" d="M1.828-24.609H9.813V-21.8H7.3v11.453A11.824,11.824,0,0,0,7.75-6.828,6.581,6.581,0,0,0,9.031-4.453a5.085,5.085,0,0,0,1.953,1.344,6.969,6.969,0,0,0,2.469.422,8.286,8.286,0,0,0,2.563-.375,4.613,4.613,0,0,0,2-1.266,6.033,6.033,0,0,0,1.313-2.359,12.163,12.163,0,0,0,.469-3.656V-21.8H17.125v-2.812h7.969V-21.8H22.906V-10.7a14.11,14.11,0,0,1-.734,4.734,9.859,9.859,0,0,1-2.031,3.453A8.593,8.593,0,0,1,17.125-.391a9.71,9.71,0,0,1-3.734.719A9.3,9.3,0,0,1,9.75-.391,8.406,8.406,0,0,1,6.781-2.484,9.853,9.853,0,0,1,4.813-5.844a13.4,13.4,0,0,1-.719-4.563V-21.8H1.828Zm0,0" fill="#fff"/>
      </g>
    </g>
    <g id="Group_4780" data-name="Group 4780">
      <g id="Group_4779" data-name="Group 4779" transform="translate(205.651 89.525)">
        <path id="Path_42272" data-name="Path 42272" d="M14.938-17.922a3.561,3.561,0,0,0-.531-2.141,3.953,3.953,0,0,0-1.141-1.094,5.228,5.228,0,0,0-1.375-.594,5.665,5.665,0,0,0-1.484-.2,7.12,7.12,0,0,0-2.156.3,4.61,4.61,0,0,0-1.531.766A3.211,3.211,0,0,0,5.8-19.75a3.042,3.042,0,0,0-.312,1.359,3.439,3.439,0,0,0,.375,1.719,3.344,3.344,0,0,0,.969,1.063,5.452,5.452,0,0,0,1.3.625c.469.148.922.3,1.359.453l3.281,1.078a15.151,15.151,0,0,1,2.594,1.078,6.783,6.783,0,0,1,1.891,1.422,5.484,5.484,0,0,1,1.156,1.891,6.93,6.93,0,0,1,.406,2.469,6.451,6.451,0,0,1-.625,2.828A6.924,6.924,0,0,1,16.438-1.5,8.219,8.219,0,0,1,13.766,0a10.46,10.46,0,0,1-3.391.531A10.637,10.637,0,0,1,7.125.094,7.046,7.046,0,0,1,4.859-1.047,5.762,5.762,0,0,1,3.391-2.687a9.391,9.391,0,0,1-.859-1.906H1.3v-2.8H5.391a6.214,6.214,0,0,0,.375,2.563A3.59,3.59,0,0,0,6.828-3.594a4.752,4.752,0,0,0,1.625.75,8.1,8.1,0,0,0,2.078.25,6.759,6.759,0,0,0,1.984-.266,4.55,4.55,0,0,0,1.516-.75,3.345,3.345,0,0,0,.953-1.2,3.619,3.619,0,0,0,.344-1.594,3.183,3.183,0,0,0-.422-1.687,4,4,0,0,0-1.062-1.172,6.382,6.382,0,0,0-1.422-.8c-.512-.207-1.008-.391-1.484-.547l-3.547-1a10.5,10.5,0,0,1-2.141-.906,6.085,6.085,0,0,1-1.656-1.344,5.662,5.662,0,0,1-1.062-1.859,7.4,7.4,0,0,1-.375-2.469A6.408,6.408,0,0,1,2.7-20.828a6.3,6.3,0,0,1,1.625-2.156,7.616,7.616,0,0,1,2.625-1.453,10.958,10.958,0,0,1,3.547-.531,8.974,8.974,0,0,1,2.422.313,7.216,7.216,0,0,1,2.016.859,7,7,0,0,1,1.594,1.359A8.67,8.67,0,0,1,17.7-20.719h1.219v2.8Zm0,0" fill="#fff"/>
      </g>
    </g>
    <g id="Group_4782" data-name="Group 4782">
      <g id="Group_4781" data-name="Group 4781" transform="translate(225.293 89.525)">
        <path id="Path_42273" data-name="Path 42273" d="M2.328-24.609h7.844V-21.8H7.844v19h2.328V0H2.328V-2.8H4.656v-19H2.328Zm0,0" fill="#fff"/>
      </g>
    </g>
    <g id="Group_4784" data-name="Group 4784">
      <g id="Group_4783" data-name="Group 4783" transform="translate(237.793 89.525)">
        <path id="Path_42274" data-name="Path 42274" d="M17.547-24.609h7.984V-21.8H23.438V0H19.281L7.844-20.406V-2.8h2.531V0H2.391V-2.8H4.656v-19H2.328v-2.844H8.953l11.234,20.2.125-.781V-21.8H17.547Zm0,0" fill="#fff"/>
      </g>
    </g>
    <g id="Group_4786" data-name="Group 4786">
      <g id="Group_4785" data-name="Group 4785" transform="translate(264.156 89.525)">
        <path id="Path_42275" data-name="Path 42275" d="M2.328-24.609H19.953v6.969H16.625V-21.8H7.844v7.859h7.391v2.8H7.844V-2.8h8.781V-6.953h3.328V0H2.328V-2.8H4.656v-19H2.328Zm0,0" fill="#fff"/>
      </g>
    </g>
    <g id="Group_4788" data-name="Group 4788">
      <g id="Group_4787" data-name="Group 4787" transform="translate(285.032 89.525)">
        <path id="Path_42276" data-name="Path 42276" d="M14.938-17.922a3.561,3.561,0,0,0-.531-2.141,3.953,3.953,0,0,0-1.141-1.094,5.228,5.228,0,0,0-1.375-.594,5.665,5.665,0,0,0-1.484-.2,7.12,7.12,0,0,0-2.156.3,4.61,4.61,0,0,0-1.531.766A3.211,3.211,0,0,0,5.8-19.75a3.042,3.042,0,0,0-.312,1.359,3.439,3.439,0,0,0,.375,1.719,3.344,3.344,0,0,0,.969,1.063,5.452,5.452,0,0,0,1.3.625c.469.148.922.3,1.359.453l3.281,1.078a15.151,15.151,0,0,1,2.594,1.078,6.783,6.783,0,0,1,1.891,1.422,5.484,5.484,0,0,1,1.156,1.891,6.93,6.93,0,0,1,.406,2.469,6.451,6.451,0,0,1-.625,2.828A6.924,6.924,0,0,1,16.438-1.5,8.219,8.219,0,0,1,13.766,0a10.46,10.46,0,0,1-3.391.531A10.637,10.637,0,0,1,7.125.094,7.046,7.046,0,0,1,4.859-1.047,5.762,5.762,0,0,1,3.391-2.687a9.391,9.391,0,0,1-.859-1.906H1.3v-2.8H5.391a6.214,6.214,0,0,0,.375,2.563A3.59,3.59,0,0,0,6.828-3.594a4.752,4.752,0,0,0,1.625.75,8.1,8.1,0,0,0,2.078.25,6.759,6.759,0,0,0,1.984-.266,4.55,4.55,0,0,0,1.516-.75,3.345,3.345,0,0,0,.953-1.2,3.619,3.619,0,0,0,.344-1.594,3.183,3.183,0,0,0-.422-1.687,4,4,0,0,0-1.062-1.172,6.382,6.382,0,0,0-1.422-.8c-.512-.207-1.008-.391-1.484-.547l-3.547-1a10.5,10.5,0,0,1-2.141-.906,6.085,6.085,0,0,1-1.656-1.344,5.662,5.662,0,0,1-1.062-1.859,7.4,7.4,0,0,1-.375-2.469A6.408,6.408,0,0,1,2.7-20.828a6.3,6.3,0,0,1,1.625-2.156,7.616,7.616,0,0,1,2.625-1.453,10.958,10.958,0,0,1,3.547-.531,8.974,8.974,0,0,1,2.422.313,7.216,7.216,0,0,1,2.016.859,7,7,0,0,1,1.594,1.359A8.67,8.67,0,0,1,17.7-20.719h1.219v2.8Zm0,0" fill="#fff"/>
      </g>
    </g>
    <g id="Group_4790" data-name="Group 4790">
      <g id="Group_4789" data-name="Group 4789" transform="translate(304.675 89.525)">
        <path id="Path_42277" data-name="Path 42277" d="M14.938-17.922a3.561,3.561,0,0,0-.531-2.141,3.953,3.953,0,0,0-1.141-1.094,5.228,5.228,0,0,0-1.375-.594,5.665,5.665,0,0,0-1.484-.2,7.12,7.12,0,0,0-2.156.3,4.61,4.61,0,0,0-1.531.766A3.211,3.211,0,0,0,5.8-19.75a3.042,3.042,0,0,0-.312,1.359,3.439,3.439,0,0,0,.375,1.719,3.344,3.344,0,0,0,.969,1.063,5.452,5.452,0,0,0,1.3.625c.469.148.922.3,1.359.453l3.281,1.078a15.151,15.151,0,0,1,2.594,1.078,6.783,6.783,0,0,1,1.891,1.422,5.484,5.484,0,0,1,1.156,1.891,6.93,6.93,0,0,1,.406,2.469,6.451,6.451,0,0,1-.625,2.828A6.924,6.924,0,0,1,16.438-1.5,8.219,8.219,0,0,1,13.766,0a10.46,10.46,0,0,1-3.391.531A10.637,10.637,0,0,1,7.125.094,7.046,7.046,0,0,1,4.859-1.047,5.762,5.762,0,0,1,3.391-2.687a9.391,9.391,0,0,1-.859-1.906H1.3v-2.8H5.391a6.214,6.214,0,0,0,.375,2.563A3.59,3.59,0,0,0,6.828-3.594a4.752,4.752,0,0,0,1.625.75,8.1,8.1,0,0,0,2.078.25,6.759,6.759,0,0,0,1.984-.266,4.55,4.55,0,0,0,1.516-.75,3.345,3.345,0,0,0,.953-1.2,3.619,3.619,0,0,0,.344-1.594,3.183,3.183,0,0,0-.422-1.687,4,4,0,0,0-1.062-1.172,6.382,6.382,0,0,0-1.422-.8c-.512-.207-1.008-.391-1.484-.547l-3.547-1a10.5,10.5,0,0,1-2.141-.906,6.085,6.085,0,0,1-1.656-1.344,5.662,5.662,0,0,1-1.062-1.859,7.4,7.4,0,0,1-.375-2.469A6.408,6.408,0,0,1,2.7-20.828a6.3,6.3,0,0,1,1.625-2.156,7.616,7.616,0,0,1,2.625-1.453,10.958,10.958,0,0,1,3.547-.531,8.974,8.974,0,0,1,2.422.313,7.216,7.216,0,0,1,2.016.859,7,7,0,0,1,1.594,1.359A8.67,8.67,0,0,1,17.7-20.719h1.219v2.8Zm0,0" fill="#fff"/>
      </g>
    </g>
    <g id="Group_4792" data-name="Group 4792">
      <g id="Group_4791" data-name="Group 4791" transform="translate(324.317 89.525)">
        <path id="Path_42278" data-name="Path 42278" d="M2.328-24.609H19.953v6.969H16.625V-21.8H7.844v7.859h7.391v2.8H7.844V-2.8h8.781V-6.953h3.328V0H2.328V-2.8H4.656v-19H2.328Zm0,0" fill="#fff"/>
      </g>
    </g>
    <g id="Group_4794" data-name="Group 4794">
      <g id="Group_4793" data-name="Group 4793" transform="translate(345.194 89.525)">
        <path id="Path_42279" data-name="Path 42279" d="M14.938-17.922a3.561,3.561,0,0,0-.531-2.141,3.953,3.953,0,0,0-1.141-1.094,5.228,5.228,0,0,0-1.375-.594,5.665,5.665,0,0,0-1.484-.2,7.12,7.12,0,0,0-2.156.3,4.61,4.61,0,0,0-1.531.766A3.211,3.211,0,0,0,5.8-19.75a3.042,3.042,0,0,0-.312,1.359,3.439,3.439,0,0,0,.375,1.719,3.344,3.344,0,0,0,.969,1.063,5.452,5.452,0,0,0,1.3.625c.469.148.922.3,1.359.453l3.281,1.078a15.151,15.151,0,0,1,2.594,1.078,6.783,6.783,0,0,1,1.891,1.422,5.484,5.484,0,0,1,1.156,1.891,6.93,6.93,0,0,1,.406,2.469,6.451,6.451,0,0,1-.625,2.828A6.924,6.924,0,0,1,16.438-1.5,8.219,8.219,0,0,1,13.766,0a10.46,10.46,0,0,1-3.391.531A10.637,10.637,0,0,1,7.125.094,7.046,7.046,0,0,1,4.859-1.047,5.762,5.762,0,0,1,3.391-2.687a9.391,9.391,0,0,1-.859-1.906H1.3v-2.8H5.391a6.214,6.214,0,0,0,.375,2.563A3.59,3.59,0,0,0,6.828-3.594a4.752,4.752,0,0,0,1.625.75,8.1,8.1,0,0,0,2.078.25,6.759,6.759,0,0,0,1.984-.266,4.55,4.55,0,0,0,1.516-.75,3.345,3.345,0,0,0,.953-1.2,3.619,3.619,0,0,0,.344-1.594,3.183,3.183,0,0,0-.422-1.687,4,4,0,0,0-1.062-1.172,6.382,6.382,0,0,0-1.422-.8c-.512-.207-1.008-.391-1.484-.547l-3.547-1a10.5,10.5,0,0,1-2.141-.906,6.085,6.085,0,0,1-1.656-1.344,5.662,5.662,0,0,1-1.062-1.859,7.4,7.4,0,0,1-.375-2.469A6.408,6.408,0,0,1,2.7-20.828a6.3,6.3,0,0,1,1.625-2.156,7.616,7.616,0,0,1,2.625-1.453,10.958,10.958,0,0,1,3.547-.531,8.974,8.974,0,0,1,2.422.313,7.216,7.216,0,0,1,2.016.859,7,7,0,0,1,1.594,1.359A8.67,8.67,0,0,1,17.7-20.719h1.219v2.8Zm0,0" fill="#fff"/>
      </g>
    </g>
    <g id="Group_4796" data-name="Group 4796">
      <g id="Group_4795" data-name="Group 4795" transform="translate(364.836 89.525)">
        <path id="Path_42280" data-name="Path 42280" d="M0,0ZM0,0" fill="#fff"/>
      </g>
    </g>
    <g id="Group_4798" data-name="Group 4798">
      <g id="Group_4797" data-name="Group 4797" transform="translate(372.109 89.525)">
        <path id="Path_42281" data-name="Path 42281" d="M19.8-18.125a8.071,8.071,0,0,0-2.891-2.891,7.727,7.727,0,0,0-4-1.062,7.448,7.448,0,0,0-3.438.8A8.331,8.331,0,0,0,6.8-19.141a9.883,9.883,0,0,0-1.734,3.094,11.293,11.293,0,0,0-.609,3.7A11.519,11.519,0,0,0,5.125-8.25,9.161,9.161,0,0,0,6.906-5.3,9.658,9.658,0,0,0,9.516-3.328a7.251,7.251,0,0,0,3.391.781,7.957,7.957,0,0,0,4.453-1.234,9.74,9.74,0,0,0,3.266-4.094l2.844,1.344a9.772,9.772,0,0,1-2.094,3.391A11.046,11.046,0,0,1,17.734-.516a11.376,11.376,0,0,1-4.8,1A11.251,11.251,0,0,1,8.313-.453a11.809,11.809,0,0,1-3.766-2.7A12.147,12.147,0,0,1,2.031-7.312a14.8,14.8,0,0,1-.859-5.031A14.169,14.169,0,0,1,2.031-17.3a12.564,12.564,0,0,1,2.438-4.078A11.375,11.375,0,0,1,8.2-24.094a11.14,11.14,0,0,1,4.7-1,10.71,10.71,0,0,1,3.891.641,11.09,11.09,0,0,1,2.781,1.531,11.4,11.4,0,0,1,1.984,1.906h1.719v2.891Zm0,0" fill="#fff"/>
      </g>
    </g>
    <g id="Group_4800" data-name="Group 4800">
      <g id="Group_4799" data-name="Group 4799" transform="translate(396.605 89.525)">
        <path id="Path_42282" data-name="Path 42282" d="M12.969.484A11.333,11.333,0,0,1,8.313-.453a11.809,11.809,0,0,1-3.766-2.7A11.793,11.793,0,0,1,2.031-7.312a14.707,14.707,0,0,1-.859-5A14.266,14.266,0,0,1,2.031-17.3a12.564,12.564,0,0,1,2.438-4.078A11.375,11.375,0,0,1,8.2-24.094a11.285,11.285,0,0,1,4.766-1,11.376,11.376,0,0,1,4.8,1,11.038,11.038,0,0,1,3.719,2.719A12.464,12.464,0,0,1,23.906-17.3a14.1,14.1,0,0,1,.875,4.984,14.121,14.121,0,0,1-.875,5A12.715,12.715,0,0,1,21.469-3.25,11.368,11.368,0,0,1,17.734-.516,11.309,11.309,0,0,1,12.969.484Zm0-3.016a7.6,7.6,0,0,0,3.5-.8,8.478,8.478,0,0,0,2.672-2.125,9.71,9.71,0,0,0,1.7-3.109,11.506,11.506,0,0,0,.609-3.75,11.472,11.472,0,0,0-.672-3.875,9.218,9.218,0,0,0-1.828-3.172,8.1,8.1,0,0,0-2.734-2.016,7.839,7.839,0,0,0-3.25-.7,7.65,7.65,0,0,0-3.5.8,8.266,8.266,0,0,0-2.687,2.141,9.844,9.844,0,0,0-1.7,3.109,11.621,11.621,0,0,0-.594,3.719A11.693,11.693,0,0,0,5.141-8.25,8.932,8.932,0,0,0,6.906-5.3,9.658,9.658,0,0,0,9.516-3.328,7.364,7.364,0,0,0,12.969-2.531Zm0,0" fill="#fff"/>
      </g>
    </g>
    <g id="Group_4802" data-name="Group 4802">
      <g id="Group_4801" data-name="Group 4801" transform="translate(422.53 89.525)">
        <path id="Path_42283" data-name="Path 42283" d="M17.547-24.609h7.984V-21.8H23.438V0H19.281L7.844-20.406V-2.8h2.531V0H2.391V-2.8H4.656v-19H2.328v-2.844H8.953l11.234,20.2.125-.781V-21.8H17.547Zm0,0" fill="#fff"/>
      </g>
    </g>
    <g id="Group_4804" data-name="Group 4804">
      <g id="Group_4803" data-name="Group 4803" transform="translate(448.893 89.525)">
        <path id="Path_42284" data-name="Path 42284" d="M17.547-24.609h7.984V-21.8H23.438V0H19.281L7.844-20.406V-2.8h2.531V0H2.391V-2.8H4.656v-19H2.328v-2.844H8.953l11.234,20.2.125-.781V-21.8H17.547Zm0,0" fill="#fff"/>
      </g>
    </g>
    <g id="Group_4806" data-name="Group 4806">
      <g id="Group_4805" data-name="Group 4805" transform="translate(475.256 89.525)">
        <path id="Path_42285" data-name="Path 42285" d="M2.328-24.609H19.953v6.969H16.625V-21.8H7.844v7.859h7.391v2.8H7.844V-2.8h8.781V-6.953h3.328V0H2.328V-2.8H4.656v-19H2.328Zm0,0" fill="#fff"/>
      </g>
    </g>
    <g id="Group_4808" data-name="Group 4808">
      <g id="Group_4807" data-name="Group 4807" transform="translate(496.132 89.525)">
        <path id="Path_42286" data-name="Path 42286" d="M19.8-18.125a8.071,8.071,0,0,0-2.891-2.891,7.727,7.727,0,0,0-4-1.062,7.448,7.448,0,0,0-3.438.8A8.331,8.331,0,0,0,6.8-19.141a9.883,9.883,0,0,0-1.734,3.094,11.293,11.293,0,0,0-.609,3.7A11.519,11.519,0,0,0,5.125-8.25,9.161,9.161,0,0,0,6.906-5.3,9.658,9.658,0,0,0,9.516-3.328a7.251,7.251,0,0,0,3.391.781,7.957,7.957,0,0,0,4.453-1.234,9.74,9.74,0,0,0,3.266-4.094l2.844,1.344a9.772,9.772,0,0,1-2.094,3.391A11.046,11.046,0,0,1,17.734-.516a11.376,11.376,0,0,1-4.8,1A11.251,11.251,0,0,1,8.313-.453a11.809,11.809,0,0,1-3.766-2.7A12.147,12.147,0,0,1,2.031-7.312a14.8,14.8,0,0,1-.859-5.031A14.169,14.169,0,0,1,2.031-17.3a12.564,12.564,0,0,1,2.438-4.078A11.375,11.375,0,0,1,8.2-24.094a11.14,11.14,0,0,1,4.7-1,10.71,10.71,0,0,1,3.891.641,11.09,11.09,0,0,1,2.781,1.531,11.4,11.4,0,0,1,1.984,1.906h1.719v2.891Zm0,0" fill="#fff"/>
      </g>
    </g>
    <g id="Group_4810" data-name="Group 4810">
      <g id="Group_4809" data-name="Group 4809" transform="translate(520.628 89.525)">
        <path id="Path_42287" data-name="Path 42287" d="M7.359-2.8h2.25V-21.953H4v3.828H.672v-6.484H22.609v6.484H19.281v-3.828H12.8V-2.8h2.531V0H7.359Zm0,0" fill="#fff"/>
      </g>
    </g>
    <g id="Group_4812" data-name="Group 4812">
      <g id="Group_4811" data-name="Group 4811" transform="translate(543.907 89.525)">
        <path id="Path_42288" data-name="Path 42288" d="M0,0ZM0,0" fill="#fff"/>
      </g>
    </g>
    <g id="Group_4814" data-name="Group 4814">
      <g id="Group_4813" data-name="Group 4813" transform="translate(551.18 89.525)">
        <path id="Path_42289" data-name="Path 42289" d="M7.359-2.8h2.25V-21.953H4v3.828H.672v-6.484H22.609v6.484H19.281v-3.828H12.8V-2.8h2.531V0H7.359Zm0,0" fill="#fff"/>
      </g>
    </g>
    <g id="Group_4816" data-name="Group 4816">
      <g id="Group_4815" data-name="Group 4815" transform="translate(574.458 89.525)">
        <path id="Path_42290" data-name="Path 42290" d="M12.969.484A11.333,11.333,0,0,1,8.313-.453a11.809,11.809,0,0,1-3.766-2.7A11.793,11.793,0,0,1,2.031-7.312a14.707,14.707,0,0,1-.859-5A14.266,14.266,0,0,1,2.031-17.3a12.564,12.564,0,0,1,2.438-4.078A11.375,11.375,0,0,1,8.2-24.094a11.285,11.285,0,0,1,4.766-1,11.376,11.376,0,0,1,4.8,1,11.038,11.038,0,0,1,3.719,2.719A12.464,12.464,0,0,1,23.906-17.3a14.1,14.1,0,0,1,.875,4.984,14.121,14.121,0,0,1-.875,5A12.715,12.715,0,0,1,21.469-3.25,11.368,11.368,0,0,1,17.734-.516,11.309,11.309,0,0,1,12.969.484Zm0-3.016a7.6,7.6,0,0,0,3.5-.8,8.478,8.478,0,0,0,2.672-2.125,9.71,9.71,0,0,0,1.7-3.109,11.506,11.506,0,0,0,.609-3.75,11.472,11.472,0,0,0-.672-3.875,9.218,9.218,0,0,0-1.828-3.172,8.1,8.1,0,0,0-2.734-2.016,7.839,7.839,0,0,0-3.25-.7,7.65,7.65,0,0,0-3.5.8,8.266,8.266,0,0,0-2.687,2.141,9.844,9.844,0,0,0-1.7,3.109,11.621,11.621,0,0,0-.594,3.719A11.693,11.693,0,0,0,5.141-8.25,8.932,8.932,0,0,0,6.906-5.3,9.658,9.658,0,0,0,9.516-3.328,7.364,7.364,0,0,0,12.969-2.531Zm0,0" fill="#fff"/>
      </g>
    </g>
    <g id="Group_4818" data-name="Group 4818">
      <g id="Group_4817" data-name="Group 4817" transform="translate(600.373 89.525)">
        <path id="Path_42291" data-name="Path 42291" d="M0,0ZM0,0" fill="#fff"/>
      </g>
    </g>
    <g id="Group_4820" data-name="Group 4820">
      <g id="Group_4819" data-name="Group 4819" transform="translate(229.276 136.025)">
        <path id="Path_42292" data-name="Path 42292" d="M2.328-24.609h7.984V-21.8H7.844v19h8.484a1.262,1.262,0,0,0,.516-.109,1.854,1.854,0,0,0,.469-.312,1.6,1.6,0,0,0,.344-.453,1.025,1.025,0,0,0,.141-.516V-7.3h3.078V0H2.328V-2.8H4.656v-19H2.328Zm0,0" fill="#fff"/>
      </g>
    </g>
    <g id="Group_4822" data-name="Group 4822">
      <g id="Group_4821" data-name="Group 4821" transform="translate(250.314 136.025)">
        <path id="Path_42293" data-name="Path 42293" d="M2.328-24.609H19.953v6.969H16.625V-21.8H7.844v7.859h7.391v2.8H7.844V-2.8h8.781V-6.953h3.328V0H2.328V-2.8H4.656v-19H2.328Zm0,0" fill="#fff"/>
      </g>
    </g>
    <g id="Group_4824" data-name="Group 4824">
      <g id="Group_4823" data-name="Group 4823" transform="translate(271.191 136.025)">
        <path id="Path_42294" data-name="Path 42294" d="M16.453-24.609h7.984V-21.8H22.313L14.328,0H9.875L2.016-21.8H-.156v-2.812H7.828V-21.8H5.688L12-2.828,18.766-21.8H16.453Zm0,0" fill="#fff"/>
      </g>
    </g>
    <g id="Group_4826" data-name="Group 4826">
      <g id="Group_4825" data-name="Group 4825" transform="translate(295.297 136.025)">
        <path id="Path_42295" data-name="Path 42295" d="M2.328-24.609H19.953v6.969H16.625V-21.8H7.844v7.859h7.391v2.8H7.844V-2.8h8.781V-6.953h3.328V0H2.328V-2.8H4.656v-19H2.328Zm0,0" fill="#fff"/>
      </g>
    </g>
    <g id="Group_4828" data-name="Group 4828">
      <g id="Group_4827" data-name="Group 4827" transform="translate(316.173 136.025)">
        <path id="Path_42296" data-name="Path 42296" d="M17.547-24.609h7.984V-21.8H23.438V0H19.281L7.844-20.406V-2.8h2.531V0H2.391V-2.8H4.656v-19H2.328v-2.844H8.953l11.234,20.2.125-.781V-21.8H17.547Zm0,0" fill="#fff"/>
      </g>
    </g>
    <g id="Group_4830" data-name="Group 4830">
      <g id="Group_4829" data-name="Group 4829" transform="translate(342.537 136.025)">
        <path id="Path_42297" data-name="Path 42297" d="M0,0ZM0,0" fill="#fff"/>
      </g>
    </g>
    <g id="Group_4832" data-name="Group 4832">
      <g id="Group_4831" data-name="Group 4831" transform="translate(349.809 136.025)">
        <path id="Path_42298" data-name="Path 42298" d="M17.547-24.609h7.984V-21.8H23.438V0H19.281L7.844-20.406V-2.8h2.531V0H2.391V-2.8H4.656v-19H2.328v-2.844H8.953l11.234,20.2.125-.781V-21.8H17.547Zm0,0" fill="#fff"/>
      </g>
    </g>
    <g id="Group_4834" data-name="Group 4834">
      <g id="Group_4833" data-name="Group 4833" transform="translate(376.172 136.025)">
        <path id="Path_42299" data-name="Path 42299" d="M2.328-24.609H19.953v6.969H16.625V-21.8H7.844v7.859h7.391v2.8H7.844V-2.8h8.781V-6.953h3.328V0H2.328V-2.8H4.656v-19H2.328Zm0,0" fill="#fff"/>
      </g>
    </g>
    <g id="Group_4836" data-name="Group 4836">
      <g id="Group_4835" data-name="Group 4835" transform="translate(397.048 136.025)">
        <path id="Path_42300" data-name="Path 42300" d="M7.359-2.8h2.25V-21.953H4v3.828H.672v-6.484H22.609v6.484H19.281v-3.828H12.8V-2.8h2.531V0H7.359Zm0,0" fill="#fff"/>
      </g>
    </g>
    <g id="Group_4838" data-name="Group 4838">
      <g id="Group_4837" data-name="Group 4837" transform="translate(420.327 136.025)">
        <path id="Path_42301" data-name="Path 42301" d="M33.406-24.609h8V-21.8H39.25L32.234,0H27.266L20.594-21.453,14.438,0H9.516L2.344-21.8H.156v-2.812h8V-21.8H6L11.969-2.891,18.25-24.609h4.859L29.8-2.891,35.859-21.8H33.406Zm0,0" fill="#fff"/>
      </g>
    </g>
    <g id="Group_4840" data-name="Group 4840">
      <g id="Group_4839" data-name="Group 4839" transform="translate(461.885 136.025)">
        <path id="Path_42302" data-name="Path 42302" d="M12.969.484A11.333,11.333,0,0,1,8.313-.453a11.809,11.809,0,0,1-3.766-2.7A11.793,11.793,0,0,1,2.031-7.312a14.707,14.707,0,0,1-.859-5A14.266,14.266,0,0,1,2.031-17.3a12.564,12.564,0,0,1,2.438-4.078A11.375,11.375,0,0,1,8.2-24.094a11.285,11.285,0,0,1,4.766-1,11.376,11.376,0,0,1,4.8,1,11.038,11.038,0,0,1,3.719,2.719A12.464,12.464,0,0,1,23.906-17.3a14.1,14.1,0,0,1,.875,4.984,14.121,14.121,0,0,1-.875,5A12.715,12.715,0,0,1,21.469-3.25,11.368,11.368,0,0,1,17.734-.516,11.309,11.309,0,0,1,12.969.484Zm0-3.016a7.6,7.6,0,0,0,3.5-.8,8.478,8.478,0,0,0,2.672-2.125,9.71,9.71,0,0,0,1.7-3.109,11.506,11.506,0,0,0,.609-3.75,11.472,11.472,0,0,0-.672-3.875,9.218,9.218,0,0,0-1.828-3.172,8.1,8.1,0,0,0-2.734-2.016,7.839,7.839,0,0,0-3.25-.7,7.65,7.65,0,0,0-3.5.8,8.266,8.266,0,0,0-2.687,2.141,9.844,9.844,0,0,0-1.7,3.109,11.621,11.621,0,0,0-.594,3.719A11.693,11.693,0,0,0,5.141-8.25,8.932,8.932,0,0,0,6.906-5.3,9.658,9.658,0,0,0,9.516-3.328,7.364,7.364,0,0,0,12.969-2.531Zm0,0" fill="#fff"/>
      </g>
    </g>
    <g id="Group_4842" data-name="Group 4842">
      <g id="Group_4841" data-name="Group 4841" transform="translate(487.81 136.025)">
        <path id="Path_42303" data-name="Path 42303" d="M2.328-24.609H12.563a10.153,10.153,0,0,1,3.031.438A6.845,6.845,0,0,1,18-22.906a5.648,5.648,0,0,1,1.578,2.078,6.953,6.953,0,0,1,.563,2.875,5.312,5.312,0,0,1-.328,1.828,6.436,6.436,0,0,1-.922,1.672,7.456,7.456,0,0,1-1.406,1.375,6.621,6.621,0,0,1-1.766.922,3.431,3.431,0,0,1,.813.516,4.312,4.312,0,0,1,.781.813,5.813,5.813,0,0,1,.672,1.078,6.862,6.862,0,0,1,.469,1.313l1.375,5.359h2.125L21.984,0h-4.8L15.359-7.484a5.8,5.8,0,0,0-1.531-2.953A4.022,4.022,0,0,0,11-11.391H7.844V-2.8h2.469V0H2.328V-2.8H4.656v-19H2.328ZM7.844-21.8v7.734h4.719A5.757,5.757,0,0,0,14.25-14.3a3.76,3.76,0,0,0,1.344-.734,3.293,3.293,0,0,0,.875-1.2,4.292,4.292,0,0,0,.313-1.687,3.694,3.694,0,0,0-1.109-2.859,5.05,5.05,0,0,0-3.5-1.016Zm0,0" fill="#fff"/>
      </g>
    </g>
    <g id="Group_4844" data-name="Group 4844">
      <g id="Group_4843" data-name="Group 4843" transform="translate(511.478 136.025)">
        <path id="Path_42304" data-name="Path 42304" d="M18.625-21.8v-2.812h5.641V-21.8H22.344L11.563-12.734,21.641-2.8h2.625V0H17.641V-2.8L7.875-12.562ZM2.359-24.609h7.984V-21.8h-2.5v19h2.469V0H2.328V-2.8H4.656v-19h-2.3Zm0,0" fill="#fff"/>
      </g>
    </g>
    <g id="Group_4845" data-name="Group 4845" clip-path="url(#clip-path-2)">
      <path id="Path_42305" data-name="Path 42305" d="M110.3,239.992H264.8v154.5H110.3Zm0,0" fill="#2B1867"/>
    </g>
    <g id="Group_4847" data-name="Group 4847">
      <g id="Group_4846" data-name="Group 4846" transform="translate(146.584 312.009)">
        <path id="Path_42307" data-name="Path 42307" d="M1.063-1.266H2.125V-9.937H1.063v-1.3l5.047.016a3.1,3.1,0,0,1,1.266.266,3.228,3.228,0,0,1,1.047.688,3.089,3.089,0,0,1,.7,1.047,3.136,3.136,0,0,1,.266,1.281,2.277,2.277,0,0,1-.406,1.313,2.748,2.748,0,0,1-1.141.938,4.751,4.751,0,0,1,.656.453,2.72,2.72,0,0,1,.5.563,2.315,2.315,0,0,1,.328.641,2.359,2.359,0,0,1,.109.688,3.474,3.474,0,0,1-.25,1.313,3.234,3.234,0,0,1-.7,1.063A3.246,3.246,0,0,1,7.453-.25,3.258,3.258,0,0,1,6.172,0H1.063ZM3.578-4.984v3.719H6.188a1.268,1.268,0,0,0,.656-.172,1.97,1.97,0,0,0,.531-.469,2.232,2.232,0,0,0,.359-.656A2.249,2.249,0,0,0,7.859-3.3a1.447,1.447,0,0,0-.141-.625,1.829,1.829,0,0,0-.344-.547,1.677,1.677,0,0,0-.531-.375,1.6,1.6,0,0,0-.656-.141Zm0-4.953v3.656H6.125a1.6,1.6,0,0,0,.656-.141A1.677,1.677,0,0,0,7.313-6.8a1.624,1.624,0,0,0,.359-.547,1.542,1.542,0,0,0,.141-.641,1.851,1.851,0,0,0-.141-.7,1.938,1.938,0,0,0-.359-.625,1.959,1.959,0,0,0-.547-.453,1.281,1.281,0,0,0-.641-.172Zm0,0" fill="#fff"/>
      </g>
    </g>
    <g id="Group_4849" data-name="Group 4849">
      <g id="Group_4848" data-name="Group 4848" transform="translate(156.587 312.009)">
        <path id="Path_42308" data-name="Path 42308" d="M5.359-7.672H7.828v6.406h.859V0H6.453V-.7a4.846,4.846,0,0,1-1.141.625,3.847,3.847,0,0,1-1.3.219A3.049,3.049,0,0,1,2.969-.031a2.156,2.156,0,0,1-.812-.516,2.353,2.353,0,0,1-.5-.891,4.258,4.258,0,0,1-.172-1.3V-6.391H.438V-7.672H2.922v4.781a1.91,1.91,0,0,0,.406,1.328,1.462,1.462,0,0,0,1.156.453,3.174,3.174,0,0,0,.953-.156,4.728,4.728,0,0,0,.953-.453V-6.391H5.359Zm0,0" fill="#fff"/>
      </g>
    </g>
    <g id="Group_4851" data-name="Group 4851">
      <g id="Group_4850" data-name="Group 4850" transform="translate(166.575 312.009)">
        <path id="Path_42309" data-name="Path 42309" d="M5.172-5.609a.917.917,0,0,0-.156-.531,1.026,1.026,0,0,0-.375-.344,1.583,1.583,0,0,0-.5-.2,2.7,2.7,0,0,0-.547-.062,2.364,2.364,0,0,0-.547.063,1.437,1.437,0,0,0-.437.188.85.85,0,0,0-.266.313.843.843,0,0,0-.094.406.846.846,0,0,0,.219.609,2.162,2.162,0,0,0,.781.406l1.484.531a2.905,2.905,0,0,1,1.375.859,2.061,2.061,0,0,1,.438,1.313,2.17,2.17,0,0,1-.2.938,2.022,2.022,0,0,1-.578.719,2.841,2.841,0,0,1-.906.469A3.687,3.687,0,0,1,3.7.234,3.252,3.252,0,0,1,2.25-.047a2.242,2.242,0,0,1-.875-.781H.609V-2.094H2.141a1.109,1.109,0,0,0,.125.547,1.128,1.128,0,0,0,.359.359,2.03,2.03,0,0,0,.516.219,2.762,2.762,0,0,0,.594.063,2.326,2.326,0,0,0,.547-.062,1.618,1.618,0,0,0,.469-.219,1.081,1.081,0,0,0,.313-.328.777.777,0,0,0,.125-.437.881.881,0,0,0-.234-.625,1.983,1.983,0,0,0-.812-.469L2.672-3.594a3.261,3.261,0,0,1-1.328-.812A1.8,1.8,0,0,1,.906-5.641a2.235,2.235,0,0,1,.172-.891,2.018,2.018,0,0,1,.531-.719,2.4,2.4,0,0,1,.844-.469,3.519,3.519,0,0,1,1.141-.172,3.476,3.476,0,0,1,1.359.234,2.5,2.5,0,0,1,1.016.781h.719v1.266Zm0,0" fill="#fff"/>
      </g>
    </g>
    <g id="Group_4853" data-name="Group 4853">
      <g id="Group_4852" data-name="Group 4852" transform="translate(173.922 312.009)">
        <path id="Path_42310" data-name="Path 42310" d="M.688-7.672h2.5v6.406H4.344V0H.7V-1.266H1.8V-6.391H.688Zm.844-2.719a.829.829,0,0,1,.078-.359.979.979,0,0,1,.2-.3,1.077,1.077,0,0,1,.313-.219.907.907,0,0,1,.375-.078.889.889,0,0,1,.359.078.9.9,0,0,1,.313.219,1.143,1.143,0,0,1,.2.3.889.889,0,0,1,.078.359A1.025,1.025,0,0,1,3.375-10a1.3,1.3,0,0,1-.2.313.853.853,0,0,1-.312.219,1.024,1.024,0,0,1-.359.063,1.05,1.05,0,0,1-.375-.062,1.006,1.006,0,0,1-.312-.219,1.1,1.1,0,0,1-.2-.312A.956.956,0,0,1,1.531-10.391Zm0,0" fill="#fff"/>
      </g>
    </g>
    <g id="Group_4855" data-name="Group 4855">
      <g id="Group_4854" data-name="Group 4854" transform="translate(178.783 312.009)">
        <path id="Path_42311" data-name="Path 42311" d="M5.781-1.266H6.875v-3.5a1.833,1.833,0,0,0-.453-1.344,1.744,1.744,0,0,0-1.281-.453,2.3,2.3,0,0,0-.984.234,4.589,4.589,0,0,0-.922.563v4.5H4.328V0H.734V-1.266H1.813V-6.391H.734V-7.672H3.188v.906H3.2a4.147,4.147,0,0,1,.516-.406A4.475,4.475,0,0,1,4.3-7.5a3.756,3.756,0,0,1,.641-.219,2.477,2.477,0,0,1,.688-.094,3.442,3.442,0,0,1,1.109.172,2.145,2.145,0,0,1,.844.531,2.334,2.334,0,0,1,.531.891A3.872,3.872,0,0,1,8.3-4.937v3.672H9.375V0H5.781Zm0,0" fill="#fff"/>
      </g>
    </g>
    <g id="Group_4857" data-name="Group 4857">
      <g id="Group_4856" data-name="Group 4856" transform="translate(188.89 312.009)">
        <path id="Path_42312" data-name="Path 42312" d="M2.047-3.656a3.422,3.422,0,0,0,.047.594,2.785,2.785,0,0,0,.141.516,2.083,2.083,0,0,0,.859,1.109,2.567,2.567,0,0,0,1.375.375,4.256,4.256,0,0,0,1.156-.156,5.566,5.566,0,0,0,1.2-.531l.547.938a5.6,5.6,0,0,1-1.516.781,5.148,5.148,0,0,1-1.578.25,4.173,4.173,0,0,1-1.453-.25A3.149,3.149,0,0,1,1.688-.812,3.662,3.662,0,0,1,.953-2.078,5.343,5.343,0,0,1,.688-3.859,5.214,5.214,0,0,1,.906-5.406a3.782,3.782,0,0,1,.688-1.281,3.2,3.2,0,0,1,1.125-.859A3.717,3.717,0,0,1,4.3-7.859a3.473,3.473,0,0,1,1.438.266,2.524,2.524,0,0,1,.938.688,2.97,2.97,0,0,1,.563,1A4.91,4.91,0,0,1,7.5-4.781a3.535,3.535,0,0,1,.047.578c.008.188.016.371.016.547ZM4.2-6.719a2.3,2.3,0,0,0-.844.141,1.623,1.623,0,0,0-.609.406,1.862,1.862,0,0,0-.406.625,3.474,3.474,0,0,0-.234.813H6.094a3.966,3.966,0,0,0-.141-.781,1.841,1.841,0,0,0-.328-.641,1.422,1.422,0,0,0-.578-.406A2.086,2.086,0,0,0,4.2-6.719Zm0,0" fill="#fff"/>
      </g>
    </g>
    <g id="Group_4859" data-name="Group 4859">
      <g id="Group_4858" data-name="Group 4858" transform="translate(197.583 312.009)">
        <path id="Path_42313" data-name="Path 42313" d="M5.172-5.609a.917.917,0,0,0-.156-.531,1.026,1.026,0,0,0-.375-.344,1.583,1.583,0,0,0-.5-.2,2.7,2.7,0,0,0-.547-.062,2.364,2.364,0,0,0-.547.063,1.437,1.437,0,0,0-.437.188.85.85,0,0,0-.266.313.843.843,0,0,0-.094.406.846.846,0,0,0,.219.609,2.162,2.162,0,0,0,.781.406l1.484.531a2.905,2.905,0,0,1,1.375.859,2.061,2.061,0,0,1,.438,1.313,2.17,2.17,0,0,1-.2.938,2.022,2.022,0,0,1-.578.719,2.841,2.841,0,0,1-.906.469A3.687,3.687,0,0,1,3.7.234,3.252,3.252,0,0,1,2.25-.047a2.242,2.242,0,0,1-.875-.781H.609V-2.094H2.141a1.109,1.109,0,0,0,.125.547,1.128,1.128,0,0,0,.359.359,2.03,2.03,0,0,0,.516.219,2.762,2.762,0,0,0,.594.063,2.326,2.326,0,0,0,.547-.062,1.618,1.618,0,0,0,.469-.219,1.081,1.081,0,0,0,.313-.328.777.777,0,0,0,.125-.437.881.881,0,0,0-.234-.625,1.983,1.983,0,0,0-.812-.469L2.672-3.594a3.261,3.261,0,0,1-1.328-.812A1.8,1.8,0,0,1,.906-5.641a2.235,2.235,0,0,1,.172-.891,2.018,2.018,0,0,1,.531-.719,2.4,2.4,0,0,1,.844-.469,3.519,3.519,0,0,1,1.141-.172,3.476,3.476,0,0,1,1.359.234,2.5,2.5,0,0,1,1.016.781h.719v1.266Zm0,0" fill="#fff"/>
      </g>
    </g>
    <g id="Group_4861" data-name="Group 4861">
      <g id="Group_4860" data-name="Group 4860" transform="translate(204.93 312.009)">
        <path id="Path_42314" data-name="Path 42314" d="M5.172-5.609a.917.917,0,0,0-.156-.531,1.026,1.026,0,0,0-.375-.344,1.583,1.583,0,0,0-.5-.2,2.7,2.7,0,0,0-.547-.062,2.364,2.364,0,0,0-.547.063,1.437,1.437,0,0,0-.437.188.85.85,0,0,0-.266.313.843.843,0,0,0-.094.406.846.846,0,0,0,.219.609,2.162,2.162,0,0,0,.781.406l1.484.531a2.905,2.905,0,0,1,1.375.859,2.061,2.061,0,0,1,.438,1.313,2.17,2.17,0,0,1-.2.938,2.022,2.022,0,0,1-.578.719,2.841,2.841,0,0,1-.906.469A3.687,3.687,0,0,1,3.7.234,3.252,3.252,0,0,1,2.25-.047a2.242,2.242,0,0,1-.875-.781H.609V-2.094H2.141a1.109,1.109,0,0,0,.125.547,1.128,1.128,0,0,0,.359.359,2.03,2.03,0,0,0,.516.219,2.762,2.762,0,0,0,.594.063,2.326,2.326,0,0,0,.547-.062,1.618,1.618,0,0,0,.469-.219,1.081,1.081,0,0,0,.313-.328.777.777,0,0,0,.125-.437.881.881,0,0,0-.234-.625,1.983,1.983,0,0,0-.812-.469L2.672-3.594a3.261,3.261,0,0,1-1.328-.812A1.8,1.8,0,0,1,.906-5.641a2.235,2.235,0,0,1,.172-.891,2.018,2.018,0,0,1,.531-.719,2.4,2.4,0,0,1,.844-.469,3.519,3.519,0,0,1,1.141-.172,3.476,3.476,0,0,1,1.359.234,2.5,2.5,0,0,1,1.016.781h.719v1.266Zm0,0" fill="#fff"/>
      </g>
    </g>
    <g id="Group_4863" data-name="Group 4863">
      <g id="Group_4862" data-name="Group 4862" transform="translate(212.277 312.009)">
        <path id="Path_42315" data-name="Path 42315" d="M2.047-3.656a3.422,3.422,0,0,0,.047.594,2.785,2.785,0,0,0,.141.516,2.083,2.083,0,0,0,.859,1.109,2.567,2.567,0,0,0,1.375.375,4.256,4.256,0,0,0,1.156-.156,5.566,5.566,0,0,0,1.2-.531l.547.938a5.6,5.6,0,0,1-1.516.781,5.148,5.148,0,0,1-1.578.25,4.173,4.173,0,0,1-1.453-.25A3.149,3.149,0,0,1,1.688-.812,3.662,3.662,0,0,1,.953-2.078,5.343,5.343,0,0,1,.688-3.859,5.214,5.214,0,0,1,.906-5.406a3.782,3.782,0,0,1,.688-1.281,3.2,3.2,0,0,1,1.125-.859A3.717,3.717,0,0,1,4.3-7.859a3.473,3.473,0,0,1,1.438.266,2.524,2.524,0,0,1,.938.688,2.97,2.97,0,0,1,.563,1A4.91,4.91,0,0,1,7.5-4.781a3.535,3.535,0,0,1,.047.578c.008.188.016.371.016.547ZM4.2-6.719a2.3,2.3,0,0,0-.844.141,1.623,1.623,0,0,0-.609.406,1.862,1.862,0,0,0-.406.625,3.474,3.474,0,0,0-.234.813H6.094a3.966,3.966,0,0,0-.141-.781,1.841,1.841,0,0,0-.328-.641,1.422,1.422,0,0,0-.578-.406A2.086,2.086,0,0,0,4.2-6.719Zm0,0" fill="#fff"/>
      </g>
    </g>
    <g id="Group_4865" data-name="Group 4865">
      <g id="Group_4864" data-name="Group 4864" transform="translate(220.97 312.009)">
        <path id="Path_42316" data-name="Path 42316" d="M5.172-5.609a.917.917,0,0,0-.156-.531,1.026,1.026,0,0,0-.375-.344,1.583,1.583,0,0,0-.5-.2,2.7,2.7,0,0,0-.547-.062,2.364,2.364,0,0,0-.547.063,1.437,1.437,0,0,0-.437.188.85.85,0,0,0-.266.313.843.843,0,0,0-.094.406.846.846,0,0,0,.219.609,2.162,2.162,0,0,0,.781.406l1.484.531a2.905,2.905,0,0,1,1.375.859,2.061,2.061,0,0,1,.438,1.313,2.17,2.17,0,0,1-.2.938,2.022,2.022,0,0,1-.578.719,2.841,2.841,0,0,1-.906.469A3.687,3.687,0,0,1,3.7.234,3.252,3.252,0,0,1,2.25-.047a2.242,2.242,0,0,1-.875-.781H.609V-2.094H2.141a1.109,1.109,0,0,0,.125.547,1.128,1.128,0,0,0,.359.359,2.03,2.03,0,0,0,.516.219,2.762,2.762,0,0,0,.594.063,2.326,2.326,0,0,0,.547-.062,1.618,1.618,0,0,0,.469-.219,1.081,1.081,0,0,0,.313-.328.777.777,0,0,0,.125-.437.881.881,0,0,0-.234-.625,1.983,1.983,0,0,0-.812-.469L2.672-3.594a3.261,3.261,0,0,1-1.328-.812A1.8,1.8,0,0,1,.906-5.641a2.235,2.235,0,0,1,.172-.891,2.018,2.018,0,0,1,.531-.719,2.4,2.4,0,0,1,.844-.469,3.519,3.519,0,0,1,1.141-.172,3.476,3.476,0,0,1,1.359.234,2.5,2.5,0,0,1,1.016.781h.719v1.266Zm0,0" fill="#fff"/>
      </g>
    </g>
    <g id="Group_4867" data-name="Group 4867">
      <g id="Group_4866" data-name="Group 4866" transform="translate(148.612 333.009)">
        <path id="Path_42317" data-name="Path 42317" d="M.141-7.672H2.578v1.281H2.219L3.563-1.5,5.391-7.672H6.547L8.3-1.516,9.7-6.391H9.266V-7.672h2.422v1.281h-.656L8.922.125H7.656L5.906-6,4.188.125h-1.3L.813-6.391H.141Zm0,0" fill="#fff"/>
      </g>
    </g>
    <g id="Group_4869" data-name="Group 4869">
      <g id="Group_4868" data-name="Group 4868" transform="translate(160.745 333.009)">
        <path id="Path_42318" data-name="Path 42318" d="M.641-3.828A4.618,4.618,0,0,1,.922-5.484a3.911,3.911,0,0,1,.8-1.281,3.4,3.4,0,0,1,1.219-.828,3.984,3.984,0,0,1,1.547-.3,3.984,3.984,0,0,1,1.547.3,3.374,3.374,0,0,1,1.219.813A3.814,3.814,0,0,1,8.031-5.5a4.618,4.618,0,0,1,.281,1.656A4.637,4.637,0,0,1,8.031-2.2a3.966,3.966,0,0,1-.781,1.3,3.661,3.661,0,0,1-1.219.844,3.984,3.984,0,0,1-1.547.3,4.021,4.021,0,0,1-1.562-.3A3.608,3.608,0,0,1,1.7-.891a3.9,3.9,0,0,1-.781-1.3A4.637,4.637,0,0,1,.641-3.828Zm1.453,0a3.54,3.54,0,0,0,.188,1.188,2.734,2.734,0,0,0,.516.906,2.245,2.245,0,0,0,.766.578,2.132,2.132,0,0,0,.922.2,2.22,2.22,0,0,0,.953-.2A2.283,2.283,0,0,0,6.2-1.734a2.577,2.577,0,0,0,.5-.906,3.54,3.54,0,0,0,.188-1.187A3.711,3.711,0,0,0,6.7-5.062a2.446,2.446,0,0,0-.5-.906,2.071,2.071,0,0,0-.766-.547A2.4,2.4,0,0,0,4.484-6.7a2.3,2.3,0,0,0-.922.188,2.206,2.206,0,0,0-.766.547,2.585,2.585,0,0,0-.516.906A3.711,3.711,0,0,0,2.094-3.828Zm0,0" fill="#fff"/>
      </g>
    </g>
    <g id="Group_4871" data-name="Group 4871">
      <g id="Group_4870" data-name="Group 4870" transform="translate(169.809 333.009)">
        <path id="Path_42319" data-name="Path 42319" d="M6.25-6.047H4.844v-.469a1.5,1.5,0,0,0-.5.094,1.529,1.529,0,0,0-.469.281,1.816,1.816,0,0,0-.391.484,1.983,1.983,0,0,0-.25.688v3.7H4.547V0H.734V-1.266H1.8l.016-5.125H.734V-7.672H3.188v1.063a4.512,4.512,0,0,1,.3-.437,2.508,2.508,0,0,1,.375-.359,1.512,1.512,0,0,1,.453-.234,1.8,1.8,0,0,1,.531-.078H6.25Zm0,0" fill="#fff"/>
      </g>
    </g>
    <g id="Group_4873" data-name="Group 4873">
      <g id="Group_4872" data-name="Group 4872" transform="translate(176.911 333.009)">
        <path id="Path_42320" data-name="Path 42320" d="M.688-11.516H3.172v10.25H4.328V0H.688V-1.266H1.8V-10.25H.688Zm0,0" fill="#fff"/>
      </g>
    </g>
    <g id="Group_4875" data-name="Group 4875">
      <g id="Group_4874" data-name="Group 4874" transform="translate(181.839 333.009)">
        <path id="Path_42321" data-name="Path 42321" d="M5.266-11.516H7.688v10.25H8.813V0h-2.5V-.625a2.82,2.82,0,0,1-.875.594,2.857,2.857,0,0,1-1.094.2A3.923,3.923,0,0,1,2.891-.094a3.468,3.468,0,0,1-1.172-.8A3.682,3.682,0,0,1,.953-2.172,5.185,5.185,0,0,1,.688-3.906,4.561,4.561,0,0,1,.953-5.516a3.549,3.549,0,0,1,.75-1.25,3.252,3.252,0,0,1,1.172-.8,3.865,3.865,0,0,1,1.531-.3,3.888,3.888,0,0,1,1.016.125,2.7,2.7,0,0,1,.891.438V-10.25H5.266ZM4.516-1.031A2.578,2.578,0,0,0,5.531-1.2a2.58,2.58,0,0,0,.781-.547v-4.3A2.39,2.39,0,0,0,5.453-6.5a3.527,3.527,0,0,0-.984-.141,2.3,2.3,0,0,0-.922.188,2.112,2.112,0,0,0-.75.531,2.571,2.571,0,0,0-.5.844,3.293,3.293,0,0,0-.187,1.156,4.081,4.081,0,0,0,.172,1.25,2.616,2.616,0,0,0,.5.906,2,2,0,0,0,.75.547A2.54,2.54,0,0,0,4.516-1.031Zm0,0" fill="#fff"/>
      </g>
    </g>
    <g id="Group_4877" data-name="Group 4877">
      <g id="Group_4876" data-name="Group 4876" transform="translate(191.22 333.009)">
        <path id="Path_42322" data-name="Path 42322" d="M.141-7.672H2.578v1.281H2.219L3.563-1.5,5.391-7.672H6.547L8.3-1.516,9.7-6.391H9.266V-7.672h2.422v1.281h-.656L8.922.125H7.656L5.906-6,4.188.125h-1.3L.813-6.391H.141Zm0,0" fill="#fff"/>
      </g>
    </g>
    <g id="Group_4879" data-name="Group 4879">
      <g id="Group_4878" data-name="Group 4878" transform="translate(203.354 333.009)">
        <path id="Path_42323" data-name="Path 42323" d="M.688-7.672h2.5v6.406H4.344V0H.7V-1.266H1.8V-6.391H.688Zm.844-2.719a.829.829,0,0,1,.078-.359.979.979,0,0,1,.2-.3,1.077,1.077,0,0,1,.313-.219.907.907,0,0,1,.375-.078.889.889,0,0,1,.359.078.9.9,0,0,1,.313.219,1.143,1.143,0,0,1,.2.3.889.889,0,0,1,.078.359A1.025,1.025,0,0,1,3.375-10a1.3,1.3,0,0,1-.2.313.853.853,0,0,1-.312.219,1.024,1.024,0,0,1-.359.063,1.05,1.05,0,0,1-.375-.062,1.006,1.006,0,0,1-.312-.219,1.1,1.1,0,0,1-.2-.312A.956.956,0,0,1,1.531-10.391Zm0,0" fill="#fff"/>
      </g>
    </g>
    <g id="Group_4881" data-name="Group 4881">
      <g id="Group_4880" data-name="Group 4880" transform="translate(208.215 333.009)">
        <path id="Path_42324" data-name="Path 42324" d="M5.266-11.516H7.688v10.25H8.813V0h-2.5V-.625a2.82,2.82,0,0,1-.875.594,2.857,2.857,0,0,1-1.094.2A3.923,3.923,0,0,1,2.891-.094a3.468,3.468,0,0,1-1.172-.8A3.682,3.682,0,0,1,.953-2.172,5.185,5.185,0,0,1,.688-3.906,4.561,4.561,0,0,1,.953-5.516a3.549,3.549,0,0,1,.75-1.25,3.252,3.252,0,0,1,1.172-.8,3.865,3.865,0,0,1,1.531-.3,3.888,3.888,0,0,1,1.016.125,2.7,2.7,0,0,1,.891.438V-10.25H5.266ZM4.516-1.031A2.578,2.578,0,0,0,5.531-1.2a2.58,2.58,0,0,0,.781-.547v-4.3A2.39,2.39,0,0,0,5.453-6.5a3.527,3.527,0,0,0-.984-.141,2.3,2.3,0,0,0-.922.188,2.112,2.112,0,0,0-.75.531,2.571,2.571,0,0,0-.5.844,3.293,3.293,0,0,0-.187,1.156,4.081,4.081,0,0,0,.172,1.25,2.616,2.616,0,0,0,.5.906,2,2,0,0,0,.75.547A2.54,2.54,0,0,0,4.516-1.031Zm0,0" fill="#fff"/>
      </g>
    </g>
    <g id="Group_4883" data-name="Group 4883">
      <g id="Group_4882" data-name="Group 4882" transform="translate(217.596 333.009)">
        <path id="Path_42325" data-name="Path 42325" d="M2.047-3.656a3.422,3.422,0,0,0,.047.594,2.785,2.785,0,0,0,.141.516,2.083,2.083,0,0,0,.859,1.109,2.567,2.567,0,0,0,1.375.375,4.256,4.256,0,0,0,1.156-.156,5.566,5.566,0,0,0,1.2-.531l.547.938a5.6,5.6,0,0,1-1.516.781,5.148,5.148,0,0,1-1.578.25,4.173,4.173,0,0,1-1.453-.25A3.149,3.149,0,0,1,1.688-.812,3.662,3.662,0,0,1,.953-2.078,5.343,5.343,0,0,1,.688-3.859,5.214,5.214,0,0,1,.906-5.406a3.782,3.782,0,0,1,.688-1.281,3.2,3.2,0,0,1,1.125-.859A3.717,3.717,0,0,1,4.3-7.859a3.473,3.473,0,0,1,1.438.266,2.524,2.524,0,0,1,.938.688,2.97,2.97,0,0,1,.563,1A4.91,4.91,0,0,1,7.5-4.781a3.535,3.535,0,0,1,.047.578c.008.188.016.371.016.547ZM4.2-6.719a2.3,2.3,0,0,0-.844.141,1.623,1.623,0,0,0-.609.406,1.862,1.862,0,0,0-.406.625,3.474,3.474,0,0,0-.234.813H6.094a3.966,3.966,0,0,0-.141-.781,1.841,1.841,0,0,0-.328-.641,1.422,1.422,0,0,0-.578-.406A2.086,2.086,0,0,0,4.2-6.719Zm0,0" fill="#fff"/>
      </g>
    </g>
    <g id="Group_4884" data-name="Group 4884" clip-path="url(#clip-path-3)">
      <path id="Path_42326" data-name="Path 42326" d="M500.762,239.992h154.5v154.5h-154.5Zm0,0" fill="#2B1867"/>
    </g>
    <g id="Group_4886" data-name="Group 4886">
      <g id="Group_4885" data-name="Group 4885" transform="translate(535.968 312.009)">
        <path id="Path_42328" data-name="Path 42328" d="M1.063-11.219H5.234a5.225,5.225,0,0,1,1.453.2,5.518,5.518,0,0,1,1.3.563,5.034,5.034,0,0,1,1.094.875,5.5,5.5,0,0,1,.828,1.125,5.686,5.686,0,0,1,.531,1.328,5.879,5.879,0,0,1,.188,1.484,5.889,5.889,0,0,1-.187,1.5,6.223,6.223,0,0,1-.531,1.359,5.716,5.716,0,0,1-.828,1.141,4.92,4.92,0,0,1-1.094.875,5.214,5.214,0,0,1-1.3.563A5.083,5.083,0,0,1,5.234,0H1.063V-1.266H2.125V-9.937H1.063ZM3.578-9.937v8.672h1.75a3.206,3.206,0,0,0,1.453-.344,3.79,3.79,0,0,0,1.188-.922,4.5,4.5,0,0,0,.813-1.391,4.933,4.933,0,0,0,.3-1.719,4.79,4.79,0,0,0-.3-1.687,4.384,4.384,0,0,0-.812-1.359,3.686,3.686,0,0,0-1.187-.906,3.257,3.257,0,0,0-1.453-.344Zm0,0" fill="#fff"/>
      </g>
    </g>
    <g id="Group_4888" data-name="Group 4888">
      <g id="Group_4887" data-name="Group 4887" transform="translate(547.118 312.009)">
        <path id="Path_42329" data-name="Path 42329" d="M2.047-3.656a3.422,3.422,0,0,0,.047.594,2.785,2.785,0,0,0,.141.516,2.083,2.083,0,0,0,.859,1.109,2.567,2.567,0,0,0,1.375.375,4.256,4.256,0,0,0,1.156-.156,5.566,5.566,0,0,0,1.2-.531l.547.938a5.6,5.6,0,0,1-1.516.781,5.148,5.148,0,0,1-1.578.25,4.173,4.173,0,0,1-1.453-.25A3.149,3.149,0,0,1,1.688-.812,3.662,3.662,0,0,1,.953-2.078,5.343,5.343,0,0,1,.688-3.859,5.214,5.214,0,0,1,.906-5.406a3.782,3.782,0,0,1,.688-1.281,3.2,3.2,0,0,1,1.125-.859A3.717,3.717,0,0,1,4.3-7.859a3.473,3.473,0,0,1,1.438.266,2.524,2.524,0,0,1,.938.688,2.97,2.97,0,0,1,.563,1A4.91,4.91,0,0,1,7.5-4.781a3.535,3.535,0,0,1,.047.578c.008.188.016.371.016.547ZM4.2-6.719a2.3,2.3,0,0,0-.844.141,1.623,1.623,0,0,0-.609.406,1.862,1.862,0,0,0-.406.625,3.474,3.474,0,0,0-.234.813H6.094a3.966,3.966,0,0,0-.141-.781,1.841,1.841,0,0,0-.328-.641,1.422,1.422,0,0,0-.578-.406A2.086,2.086,0,0,0,4.2-6.719Zm0,0" fill="#fff"/>
      </g>
    </g>
    <g id="Group_4890" data-name="Group 4890">
      <g id="Group_4889" data-name="Group 4889" transform="translate(555.811 312.009)">
        <path id="Path_42330" data-name="Path 42330" d="M.141-7.672H2.8v1.281H2.078L3.969-1.109,5.828-6.391H5.359V-7.672H7.781v1.281H7.125L4.625.125H3.25L.75-6.391H.141Zm0,0" fill="#fff"/>
      </g>
    </g>
    <g id="Group_4892" data-name="Group 4892">
      <g id="Group_4891" data-name="Group 4891" transform="translate(563.95 312.009)">
        <path id="Path_42331" data-name="Path 42331" d="M2.047-3.656a3.422,3.422,0,0,0,.047.594,2.785,2.785,0,0,0,.141.516,2.083,2.083,0,0,0,.859,1.109,2.567,2.567,0,0,0,1.375.375,4.256,4.256,0,0,0,1.156-.156,5.566,5.566,0,0,0,1.2-.531l.547.938a5.6,5.6,0,0,1-1.516.781,5.148,5.148,0,0,1-1.578.25,4.173,4.173,0,0,1-1.453-.25A3.149,3.149,0,0,1,1.688-.812,3.662,3.662,0,0,1,.953-2.078,5.343,5.343,0,0,1,.688-3.859,5.214,5.214,0,0,1,.906-5.406a3.782,3.782,0,0,1,.688-1.281,3.2,3.2,0,0,1,1.125-.859A3.717,3.717,0,0,1,4.3-7.859a3.473,3.473,0,0,1,1.438.266,2.524,2.524,0,0,1,.938.688,2.97,2.97,0,0,1,.563,1A4.91,4.91,0,0,1,7.5-4.781a3.535,3.535,0,0,1,.047.578c.008.188.016.371.016.547ZM4.2-6.719a2.3,2.3,0,0,0-.844.141,1.623,1.623,0,0,0-.609.406,1.862,1.862,0,0,0-.406.625,3.474,3.474,0,0,0-.234.813H6.094a3.966,3.966,0,0,0-.141-.781,1.841,1.841,0,0,0-.328-.641,1.422,1.422,0,0,0-.578-.406A2.086,2.086,0,0,0,4.2-6.719Zm0,0" fill="#fff"/>
      </g>
    </g>
    <g id="Group_4894" data-name="Group 4894">
      <g id="Group_4893" data-name="Group 4893" transform="translate(572.643 312.009)">
        <path id="Path_42332" data-name="Path 42332" d="M.688-11.516H3.172v10.25H4.328V0H.688V-1.266H1.8V-10.25H.688Zm0,0" fill="#fff"/>
      </g>
    </g>
    <g id="Group_4896" data-name="Group 4896">
      <g id="Group_4895" data-name="Group 4895" transform="translate(577.571 312.009)">
        <path id="Path_42333" data-name="Path 42333" d="M.641-3.828A4.618,4.618,0,0,1,.922-5.484a3.911,3.911,0,0,1,.8-1.281,3.4,3.4,0,0,1,1.219-.828,3.984,3.984,0,0,1,1.547-.3,3.984,3.984,0,0,1,1.547.3,3.374,3.374,0,0,1,1.219.813A3.814,3.814,0,0,1,8.031-5.5a4.618,4.618,0,0,1,.281,1.656A4.637,4.637,0,0,1,8.031-2.2a3.966,3.966,0,0,1-.781,1.3,3.661,3.661,0,0,1-1.219.844,3.984,3.984,0,0,1-1.547.3,4.021,4.021,0,0,1-1.562-.3A3.608,3.608,0,0,1,1.7-.891a3.9,3.9,0,0,1-.781-1.3A4.637,4.637,0,0,1,.641-3.828Zm1.453,0a3.54,3.54,0,0,0,.188,1.188,2.734,2.734,0,0,0,.516.906,2.245,2.245,0,0,0,.766.578,2.132,2.132,0,0,0,.922.2,2.22,2.22,0,0,0,.953-.2A2.283,2.283,0,0,0,6.2-1.734a2.577,2.577,0,0,0,.5-.906,3.54,3.54,0,0,0,.188-1.187A3.711,3.711,0,0,0,6.7-5.062a2.446,2.446,0,0,0-.5-.906,2.071,2.071,0,0,0-.766-.547A2.4,2.4,0,0,0,4.484-6.7a2.3,2.3,0,0,0-.922.188,2.206,2.206,0,0,0-.766.547,2.585,2.585,0,0,0-.516.906A3.711,3.711,0,0,0,2.094-3.828Zm0,0" fill="#fff"/>
      </g>
    </g>
    <g id="Group_4898" data-name="Group 4898">
      <g id="Group_4897" data-name="Group 4897" transform="translate(586.634 312.009)">
        <path id="Path_42334" data-name="Path 42334" d="M.438-7.672H2.875v.641a4.525,4.525,0,0,1,1.063-.594,3.158,3.158,0,0,1,1.2-.234,3.317,3.317,0,0,1,1.375.281,3.126,3.126,0,0,1,1.094.8,3.745,3.745,0,0,1,.7,1.234,4.76,4.76,0,0,1,.25,1.578,4.84,4.84,0,0,1-.281,1.688A3.966,3.966,0,0,1,7.5-.984a3.606,3.606,0,0,1-1.187.859A3.842,3.842,0,0,1,4.8.172,3.925,3.925,0,0,1,3.766.047a5.961,5.961,0,0,1-.875-.312V2.219h1.2V3.484H.453V2.219H1.5V-6.391H.438ZM4.766-6.641a2.56,2.56,0,0,0-1.031.219,2.7,2.7,0,0,0-.844.594v4.141a2.043,2.043,0,0,0,.7.469,2.987,2.987,0,0,0,1.141.188,2.283,2.283,0,0,0,.906-.187,2.191,2.191,0,0,0,.766-.547,2.724,2.724,0,0,0,.531-.906,3.631,3.631,0,0,0,.2-1.25,3.293,3.293,0,0,0-.187-1.156,2.474,2.474,0,0,0-.516-.844,1.983,1.983,0,0,0-.75-.531A2.249,2.249,0,0,0,4.766-6.641Zm0,0" fill="#fff"/>
      </g>
    </g>
    <g id="Group_4900" data-name="Group 4900">
      <g id="Group_4899" data-name="Group 4899" transform="translate(595.875 312.009)">
        <path id="Path_42335" data-name="Path 42335" d="M2.047-3.656a3.422,3.422,0,0,0,.047.594,2.785,2.785,0,0,0,.141.516,2.083,2.083,0,0,0,.859,1.109,2.567,2.567,0,0,0,1.375.375,4.256,4.256,0,0,0,1.156-.156,5.566,5.566,0,0,0,1.2-.531l.547.938a5.6,5.6,0,0,1-1.516.781,5.148,5.148,0,0,1-1.578.25,4.173,4.173,0,0,1-1.453-.25A3.149,3.149,0,0,1,1.688-.812,3.662,3.662,0,0,1,.953-2.078,5.343,5.343,0,0,1,.688-3.859,5.214,5.214,0,0,1,.906-5.406a3.782,3.782,0,0,1,.688-1.281,3.2,3.2,0,0,1,1.125-.859A3.717,3.717,0,0,1,4.3-7.859a3.473,3.473,0,0,1,1.438.266,2.524,2.524,0,0,1,.938.688,2.97,2.97,0,0,1,.563,1A4.91,4.91,0,0,1,7.5-4.781a3.535,3.535,0,0,1,.047.578c.008.188.016.371.016.547ZM4.2-6.719a2.3,2.3,0,0,0-.844.141,1.623,1.623,0,0,0-.609.406,1.862,1.862,0,0,0-.406.625,3.474,3.474,0,0,0-.234.813H6.094a3.966,3.966,0,0,0-.141-.781,1.841,1.841,0,0,0-.328-.641,1.422,1.422,0,0,0-.578-.406A2.086,2.086,0,0,0,4.2-6.719Zm0,0" fill="#fff"/>
      </g>
    </g>
    <g id="Group_4902" data-name="Group 4902">
      <g id="Group_4901" data-name="Group 4901" transform="translate(604.568 312.009)">
        <path id="Path_42336" data-name="Path 42336" d="M6.25-6.047H4.844v-.469a1.5,1.5,0,0,0-.5.094,1.529,1.529,0,0,0-.469.281,1.816,1.816,0,0,0-.391.484,1.983,1.983,0,0,0-.25.688v3.7H4.547V0H.734V-1.266H1.8l.016-5.125H.734V-7.672H3.188v1.063a4.512,4.512,0,0,1,.3-.437,2.508,2.508,0,0,1,.375-.359,1.512,1.512,0,0,1,.453-.234,1.8,1.8,0,0,1,.531-.078H6.25Zm0,0" fill="#fff"/>
      </g>
    </g>
    <g id="Group_4904" data-name="Group 4904">
      <g id="Group_4903" data-name="Group 4903" transform="translate(611.671 312.009)">
        <path id="Path_42337" data-name="Path 42337" d="M5.172-5.609a.917.917,0,0,0-.156-.531,1.026,1.026,0,0,0-.375-.344,1.583,1.583,0,0,0-.5-.2,2.7,2.7,0,0,0-.547-.062,2.364,2.364,0,0,0-.547.063,1.437,1.437,0,0,0-.437.188.85.85,0,0,0-.266.313.843.843,0,0,0-.094.406.846.846,0,0,0,.219.609,2.162,2.162,0,0,0,.781.406l1.484.531a2.905,2.905,0,0,1,1.375.859,2.061,2.061,0,0,1,.438,1.313,2.17,2.17,0,0,1-.2.938,2.022,2.022,0,0,1-.578.719,2.841,2.841,0,0,1-.906.469A3.687,3.687,0,0,1,3.7.234,3.252,3.252,0,0,1,2.25-.047a2.242,2.242,0,0,1-.875-.781H.609V-2.094H2.141a1.109,1.109,0,0,0,.125.547,1.128,1.128,0,0,0,.359.359,2.03,2.03,0,0,0,.516.219,2.762,2.762,0,0,0,.594.063,2.326,2.326,0,0,0,.547-.062,1.618,1.618,0,0,0,.469-.219,1.081,1.081,0,0,0,.313-.328.777.777,0,0,0,.125-.437.881.881,0,0,0-.234-.625,1.983,1.983,0,0,0-.812-.469L2.672-3.594a3.261,3.261,0,0,1-1.328-.812A1.8,1.8,0,0,1,.906-5.641a2.235,2.235,0,0,1,.172-.891,2.018,2.018,0,0,1,.531-.719,2.4,2.4,0,0,1,.844-.469,3.519,3.519,0,0,1,1.141-.172,3.476,3.476,0,0,1,1.359.234,2.5,2.5,0,0,1,1.016.781h.719v1.266Zm0,0" fill="#fff"/>
      </g>
    </g>
    <g id="Group_4906" data-name="Group 4906">
      <g id="Group_4905" data-name="Group 4905" transform="translate(619.007 312.009)">
        <path id="Path_42338" data-name="Path 42338" d="M0,0ZM0,0" fill="#fff"/>
      </g>
    </g>
    <g id="Group_4908" data-name="Group 4908">
      <g id="Group_4907" data-name="Group 4907" transform="translate(554.953 333.009)">
        <path id="Path_42339" data-name="Path 42339" d="M1.063-11.219H5.234a5.225,5.225,0,0,1,1.453.2,5.518,5.518,0,0,1,1.3.563,5.034,5.034,0,0,1,1.094.875,5.5,5.5,0,0,1,.828,1.125,5.686,5.686,0,0,1,.531,1.328,5.879,5.879,0,0,1,.188,1.484,5.889,5.889,0,0,1-.187,1.5,6.223,6.223,0,0,1-.531,1.359,5.716,5.716,0,0,1-.828,1.141,4.92,4.92,0,0,1-1.094.875,5.214,5.214,0,0,1-1.3.563A5.083,5.083,0,0,1,5.234,0H1.063V-1.266H2.125V-9.937H1.063ZM3.578-9.937v8.672h1.75a3.206,3.206,0,0,0,1.453-.344,3.79,3.79,0,0,0,1.188-.922,4.5,4.5,0,0,0,.813-1.391,4.933,4.933,0,0,0,.3-1.719,4.79,4.79,0,0,0-.3-1.687,4.384,4.384,0,0,0-.812-1.359,3.686,3.686,0,0,0-1.187-.906,3.257,3.257,0,0,0-1.453-.344Zm0,0" fill="#fff"/>
      </g>
    </g>
    <g id="Group_4910" data-name="Group 4910">
      <g id="Group_4909" data-name="Group 4909" transform="translate(566.102 333.009)">
        <path id="Path_42340" data-name="Path 42340" d="M7.7-1.266h.922L7.734-3.812H3.422L2.563-1.266H3.719V0H.078V-1.266h.969l3.5-9.953H6.734l3.484,9.953h1.125V0H7.7ZM3.844-5.047H7.313l-1.75-5.016Zm0,0" fill="#fff"/>
      </g>
    </g>
    <g id="Group_4912" data-name="Group 4912">
      <g id="Group_4911" data-name="Group 4911" transform="translate(577.511 333.009)">
        <path id="Path_42341" data-name="Path 42341" d="M.438-7.672H2.875v.641a4.525,4.525,0,0,1,1.063-.594,3.158,3.158,0,0,1,1.2-.234,3.317,3.317,0,0,1,1.375.281,3.126,3.126,0,0,1,1.094.8,3.745,3.745,0,0,1,.7,1.234,4.76,4.76,0,0,1,.25,1.578,4.84,4.84,0,0,1-.281,1.688A3.966,3.966,0,0,1,7.5-.984a3.606,3.606,0,0,1-1.187.859A3.842,3.842,0,0,1,4.8.172,3.925,3.925,0,0,1,3.766.047a5.961,5.961,0,0,1-.875-.312V2.219h1.2V3.484H.453V2.219H1.5V-6.391H.438ZM4.766-6.641a2.56,2.56,0,0,0-1.031.219,2.7,2.7,0,0,0-.844.594v4.141a2.043,2.043,0,0,0,.7.469,2.987,2.987,0,0,0,1.141.188,2.283,2.283,0,0,0,.906-.187,2.191,2.191,0,0,0,.766-.547,2.724,2.724,0,0,0,.531-.906,3.631,3.631,0,0,0,.2-1.25,3.293,3.293,0,0,0-.187-1.156,2.474,2.474,0,0,0-.516-.844,1.983,1.983,0,0,0-.75-.531A2.249,2.249,0,0,0,4.766-6.641Zm0,0" fill="#fff"/>
      </g>
    </g>
    <g id="Group_4914" data-name="Group 4914">
      <g id="Group_4913" data-name="Group 4913" transform="translate(586.752 333.009)">
        <path id="Path_42342" data-name="Path 42342" d="M.438-7.672H2.875v.641a4.525,4.525,0,0,1,1.063-.594,3.158,3.158,0,0,1,1.2-.234,3.317,3.317,0,0,1,1.375.281,3.126,3.126,0,0,1,1.094.8,3.745,3.745,0,0,1,.7,1.234,4.76,4.76,0,0,1,.25,1.578,4.84,4.84,0,0,1-.281,1.688A3.966,3.966,0,0,1,7.5-.984a3.606,3.606,0,0,1-1.187.859A3.842,3.842,0,0,1,4.8.172,3.925,3.925,0,0,1,3.766.047a5.961,5.961,0,0,1-.875-.312V2.219h1.2V3.484H.453V2.219H1.5V-6.391H.438ZM4.766-6.641a2.56,2.56,0,0,0-1.031.219,2.7,2.7,0,0,0-.844.594v4.141a2.043,2.043,0,0,0,.7.469,2.987,2.987,0,0,0,1.141.188,2.283,2.283,0,0,0,.906-.187,2.191,2.191,0,0,0,.766-.547,2.724,2.724,0,0,0,.531-.906,3.631,3.631,0,0,0,.2-1.25,3.293,3.293,0,0,0-.187-1.156,2.474,2.474,0,0,0-.516-.844,1.983,1.983,0,0,0-.75-.531A2.249,2.249,0,0,0,4.766-6.641Zm0,0" fill="#fff"/>
      </g>
    </g>
    <g id="Group_4916" data-name="Group 4916">
      <g id="Group_4915" data-name="Group 4915" transform="translate(595.993 333.009)">
        <path id="Path_42343" data-name="Path 42343" d="M5.172-5.609a.917.917,0,0,0-.156-.531,1.026,1.026,0,0,0-.375-.344,1.583,1.583,0,0,0-.5-.2,2.7,2.7,0,0,0-.547-.062,2.364,2.364,0,0,0-.547.063,1.437,1.437,0,0,0-.437.188.85.85,0,0,0-.266.313.843.843,0,0,0-.094.406.846.846,0,0,0,.219.609,2.162,2.162,0,0,0,.781.406l1.484.531a2.905,2.905,0,0,1,1.375.859,2.061,2.061,0,0,1,.438,1.313,2.17,2.17,0,0,1-.2.938,2.022,2.022,0,0,1-.578.719,2.841,2.841,0,0,1-.906.469A3.687,3.687,0,0,1,3.7.234,3.252,3.252,0,0,1,2.25-.047a2.242,2.242,0,0,1-.875-.781H.609V-2.094H2.141a1.109,1.109,0,0,0,.125.547,1.128,1.128,0,0,0,.359.359,2.03,2.03,0,0,0,.516.219,2.762,2.762,0,0,0,.594.063,2.326,2.326,0,0,0,.547-.062,1.618,1.618,0,0,0,.469-.219,1.081,1.081,0,0,0,.313-.328.777.777,0,0,0,.125-.437.881.881,0,0,0-.234-.625,1.983,1.983,0,0,0-.812-.469L2.672-3.594a3.261,3.261,0,0,1-1.328-.812A1.8,1.8,0,0,1,.906-5.641a2.235,2.235,0,0,1,.172-.891,2.018,2.018,0,0,1,.531-.719,2.4,2.4,0,0,1,.844-.469,3.519,3.519,0,0,1,1.141-.172,3.476,3.476,0,0,1,1.359.234,2.5,2.5,0,0,1,1.016.781h.719v1.266Zm0,0" fill="#fff"/>
      </g>
    </g>
    <g id="Group_4918" data-name="Group 4918">
      <g id="Group_4917" data-name="Group 4917" transform="translate(232.636 513.562)">
        <path id="Path_42344" data-name="Path 42344" d="M7.469.281A6.506,6.506,0,0,1,4.781-.266,6.79,6.79,0,0,1,2.609-1.812,6.827,6.827,0,0,1,1.156-4.2,8.629,8.629,0,0,1,.672-7.078a8.134,8.134,0,0,1,.5-2.875,7.13,7.13,0,0,1,1.391-2.328,6.638,6.638,0,0,1,2.156-1.578,6.507,6.507,0,0,1,2.75-.578,6.52,6.52,0,0,1,2.75.578,6.535,6.535,0,0,1,2.141,1.578A6.87,6.87,0,0,1,13.75-9.953a8.224,8.224,0,0,1,.5,2.875,8.192,8.192,0,0,1-.5,2.875,7.212,7.212,0,0,1-1.406,2.344A6.547,6.547,0,0,1,10.2-.3,6.486,6.486,0,0,1,7.469.281Zm0-1.734a4.318,4.318,0,0,0,2-.453A4.821,4.821,0,0,0,11-3.141a5.479,5.479,0,0,0,.984-1.781,6.538,6.538,0,0,0,.359-2.156,6.578,6.578,0,0,0-.391-2.234,5.206,5.206,0,0,0-1.062-1.828A4.749,4.749,0,0,0,9.328-12.3,4.456,4.456,0,0,0,7.469-12.7a4.348,4.348,0,0,0-2.031.469,4.826,4.826,0,0,0-1.547,1.219,5.558,5.558,0,0,0-.969,1.8,6.608,6.608,0,0,0-.344,2.141,6.83,6.83,0,0,0,.375,2.344A5.049,5.049,0,0,0,3.969-3.047a5.994,5.994,0,0,0,1.5,1.141A4.251,4.251,0,0,0,7.469-1.453Zm0,0" fill="#fff"/>
      </g>
    </g>
    <g id="Group_4920" data-name="Group 4920">
      <g id="Group_4919" data-name="Group 4919" transform="translate(247.54 513.562)">
        <path id="Path_42345" data-name="Path 42345" d="M.188-9.672H3.25v1.609H2.8L4.484-1.891,6.813-9.672H8.266l2.219,7.75L12.25-8.062h-.562V-9.672H14.75v1.609h-.828L11.266.156H9.656L7.469-7.578,5.281.156H3.656L1.016-8.062H.188Zm0,0" fill="#fff"/>
      </g>
    </g>
    <g id="Group_4922" data-name="Group 4922">
      <g id="Group_4921" data-name="Group 4921" transform="translate(262.846 513.562)">
        <path id="Path_42346" data-name="Path 42346" d="M7.3-1.609H8.672V-6.016A2.265,2.265,0,0,0,8.094-7.7a2.157,2.157,0,0,0-1.609-.578,2.889,2.889,0,0,0-1.234.3,5.979,5.979,0,0,0-1.156.7v5.672H5.453V0H.938V-1.609H2.281V-8.062H.938V-9.672H4.016v1.141h.016a5.952,5.952,0,0,1,.656-.516,5.152,5.152,0,0,1,.734-.422,5.671,5.671,0,0,1,.8-.281,3.58,3.58,0,0,1,.875-.109A4.284,4.284,0,0,1,8.5-9.641a2.87,2.87,0,0,1,1.063.656,2.921,2.921,0,0,1,.672,1.125,4.834,4.834,0,0,1,.25,1.625v4.625h1.344V0H7.3Zm0,0" fill="#fff"/>
      </g>
    </g>
    <g id="Group_4924" data-name="Group 4924">
      <g id="Group_4923" data-name="Group 4923" transform="translate(275.594 513.562)">
        <path id="Path_42347" data-name="Path 42347" d="M0,0ZM0,0" fill="#fff"/>
      </g>
    </g>
    <g id="Group_4926" data-name="Group 4926">
      <g id="Group_4925" data-name="Group 4925" transform="translate(279.775 513.562)">
        <path id="Path_42348" data-name="Path 42348" d="M4.234-1.609h1.3V-12.625H2.3v2.2H.391v-3.734H13.016v3.734H11.094v-2.2H7.359V-1.609H8.813V0H4.234Zm0,0" fill="#fff"/>
      </g>
    </g>
    <g id="Group_4928" data-name="Group 4928">
      <g id="Group_4927" data-name="Group 4927" transform="translate(293.158 513.562)">
        <path id="Path_42349" data-name="Path 42349" d="M1.063-14.531H4.125v5.922h.063a3.107,3.107,0,0,1,.594-.484A5,5,0,0,1,5.5-9.5a4.234,4.234,0,0,1,.766-.266,3.724,3.724,0,0,1,.844-.094,4.284,4.284,0,0,1,1.406.219,2.87,2.87,0,0,1,1.063.656,2.92,2.92,0,0,1,.672,1.125,4.831,4.831,0,0,1,.25,1.625v4.625h1.453V0H7.359V-1.609H8.688V-6.016A2.292,2.292,0,0,0,8.125-7.7,2.177,2.177,0,0,0,6.5-8.281,2.941,2.941,0,0,0,5.281-8a5.691,5.691,0,0,0-1.156.719v5.672H5.531V0H.938V-1.609H2.391V-12.922H1.063Zm0,0" fill="#fff"/>
      </g>
    </g>
    <g id="Group_4930" data-name="Group 4930">
      <g id="Group_4929" data-name="Group 4929" transform="translate(305.795 513.562)">
        <path id="Path_42350" data-name="Path 42350" d="M2.578-4.609a4.043,4.043,0,0,0,.063.75,3.41,3.41,0,0,0,.172.641A2.738,2.738,0,0,0,3.906-1.8a3.242,3.242,0,0,0,1.734.469,5.332,5.332,0,0,0,1.469-.2,7.1,7.1,0,0,0,1.5-.672l.7,1.188a7.407,7.407,0,0,1-1.922.969,6.434,6.434,0,0,1-2,.313A4.947,4.947,0,0,1,3.578-.062a3.932,3.932,0,0,1-1.437-.969A4.509,4.509,0,0,1,1.2-2.625a6.677,6.677,0,0,1-.344-2.25,6.67,6.67,0,0,1,.281-1.953,4.687,4.687,0,0,1,.875-1.609A4.066,4.066,0,0,1,3.438-9.516a4.544,4.544,0,0,1,1.984-.406,4.384,4.384,0,0,1,1.813.328,3.388,3.388,0,0,1,1.2.875,3.721,3.721,0,0,1,.7,1.25,7.641,7.641,0,0,1,.328,1.422c.031.242.051.484.063.734s.016.477.016.7ZM5.3-8.469A3.015,3.015,0,0,0,4.234-8.3a2.2,2.2,0,0,0-.781.5,2.277,2.277,0,0,0-.5.781,4.992,4.992,0,0,0-.281,1.047H7.688a4.785,4.785,0,0,0-.187-1,2.043,2.043,0,0,0-.406-.781,1.9,1.9,0,0,0-.719-.531A2.748,2.748,0,0,0,5.3-8.469Zm0,0" fill="#fff"/>
      </g>
    </g>
    <g id="Group_4932" data-name="Group 4932">
      <g id="Group_4931" data-name="Group 4931" transform="translate(316.761 513.562)">
        <path id="Path_42351" data-name="Path 42351" d="M0,0ZM0,0" fill="#fff"/>
      </g>
    </g>
    <g id="Group_4934" data-name="Group 4934">
      <g id="Group_4933" data-name="Group 4933" transform="translate(320.942 513.562)">
        <path id="Path_42352" data-name="Path 42352" d="M1.328-14.156H5.938v1.609H4.516V-1.609H9.391a.711.711,0,0,0,.3-.062,1.015,1.015,0,0,0,.266-.187.967.967,0,0,0,.2-.25.675.675,0,0,0,.078-.3V-4.187h1.781V0H1.328V-1.609H2.688V-12.547H1.328Zm0,0" fill="#fff"/>
      </g>
    </g>
    <g id="Group_4936" data-name="Group 4936">
      <g id="Group_4935" data-name="Group 4935" transform="translate(333.037 513.562)">
        <path id="Path_42353" data-name="Path 42353" d="M2.578-4.609a4.043,4.043,0,0,0,.063.75,3.41,3.41,0,0,0,.172.641A2.738,2.738,0,0,0,3.906-1.8a3.242,3.242,0,0,0,1.734.469,5.332,5.332,0,0,0,1.469-.2,7.1,7.1,0,0,0,1.5-.672l.7,1.188a7.407,7.407,0,0,1-1.922.969,6.434,6.434,0,0,1-2,.313A4.947,4.947,0,0,1,3.578-.062a3.932,3.932,0,0,1-1.437-.969A4.509,4.509,0,0,1,1.2-2.625a6.677,6.677,0,0,1-.344-2.25,6.67,6.67,0,0,1,.281-1.953,4.687,4.687,0,0,1,.875-1.609A4.066,4.066,0,0,1,3.438-9.516a4.544,4.544,0,0,1,1.984-.406,4.384,4.384,0,0,1,1.813.328,3.388,3.388,0,0,1,1.2.875,3.721,3.721,0,0,1,.7,1.25,7.641,7.641,0,0,1,.328,1.422c.031.242.051.484.063.734s.016.477.016.7ZM5.3-8.469A3.015,3.015,0,0,0,4.234-8.3a2.2,2.2,0,0,0-.781.5,2.277,2.277,0,0,0-.5.781,4.992,4.992,0,0,0-.281,1.047H7.688a4.785,4.785,0,0,0-.187-1,2.043,2.043,0,0,0-.406-.781,1.9,1.9,0,0,0-.719-.531A2.748,2.748,0,0,0,5.3-8.469Zm0,0" fill="#fff"/>
      </g>
    </g>
    <g id="Group_4938" data-name="Group 4938">
      <g id="Group_4937" data-name="Group 4937" transform="translate(344.003 513.562)">
        <path id="Path_42354" data-name="Path 42354" d="M.188-9.672H3.531v1.609H2.625L5.016-1.406,7.344-8.062H6.766V-9.672H9.828v1.609H9L5.828.156H4.109L.953-8.062H.188Zm0,0" fill="#fff"/>
      </g>
    </g>
    <g id="Group_4940" data-name="Group 4940">
      <g id="Group_4939" data-name="Group 4939" transform="translate(354.269 513.562)">
        <path id="Path_42355" data-name="Path 42355" d="M2.578-4.609a4.043,4.043,0,0,0,.063.75,3.41,3.41,0,0,0,.172.641A2.738,2.738,0,0,0,3.906-1.8a3.242,3.242,0,0,0,1.734.469,5.332,5.332,0,0,0,1.469-.2,7.1,7.1,0,0,0,1.5-.672l.7,1.188a7.407,7.407,0,0,1-1.922.969,6.434,6.434,0,0,1-2,.313A4.947,4.947,0,0,1,3.578-.062a3.932,3.932,0,0,1-1.437-.969A4.509,4.509,0,0,1,1.2-2.625a6.677,6.677,0,0,1-.344-2.25,6.67,6.67,0,0,1,.281-1.953,4.687,4.687,0,0,1,.875-1.609A4.066,4.066,0,0,1,3.438-9.516a4.544,4.544,0,0,1,1.984-.406,4.384,4.384,0,0,1,1.813.328,3.388,3.388,0,0,1,1.2.875,3.721,3.721,0,0,1,.7,1.25,7.641,7.641,0,0,1,.328,1.422c.031.242.051.484.063.734s.016.477.016.7ZM5.3-8.469A3.015,3.015,0,0,0,4.234-8.3a2.2,2.2,0,0,0-.781.5,2.277,2.277,0,0,0-.5.781,4.992,4.992,0,0,0-.281,1.047H7.688a4.785,4.785,0,0,0-.187-1,2.043,2.043,0,0,0-.406-.781,1.9,1.9,0,0,0-.719-.531A2.748,2.748,0,0,0,5.3-8.469Zm0,0" fill="#fff"/>
      </g>
    </g>
    <g id="Group_4942" data-name="Group 4942">
      <g id="Group_4941" data-name="Group 4941" transform="translate(365.235 513.562)">
        <path id="Path_42356" data-name="Path 42356" d="M7.3-1.609H8.672V-6.016A2.265,2.265,0,0,0,8.094-7.7a2.157,2.157,0,0,0-1.609-.578,2.889,2.889,0,0,0-1.234.3,5.979,5.979,0,0,0-1.156.7v5.672H5.453V0H.938V-1.609H2.281V-8.062H.938V-9.672H4.016v1.141h.016a5.952,5.952,0,0,1,.656-.516,5.152,5.152,0,0,1,.734-.422,5.671,5.671,0,0,1,.8-.281,3.58,3.58,0,0,1,.875-.109A4.284,4.284,0,0,1,8.5-9.641a2.87,2.87,0,0,1,1.063.656,2.921,2.921,0,0,1,.672,1.125,4.834,4.834,0,0,1,.25,1.625v4.625h1.344V0H7.3Zm0,0" fill="#fff"/>
      </g>
    </g>
    <g id="Group_4944" data-name="Group 4944">
      <g id="Group_4943" data-name="Group 4943" transform="translate(377.983 513.562)">
        <path id="Path_42357" data-name="Path 42357" d="M0,0ZM0,0" fill="#fff"/>
      </g>
    </g>
    <g id="Group_4946" data-name="Group 4946">
      <g id="Group_4945" data-name="Group 4945" transform="translate(382.164 513.562)">
        <path id="Path_42358" data-name="Path 42358" d="M6.109.172A5.226,5.226,0,0,1,3.578-.391,4.372,4.372,0,0,1,1.953-1.922a6.913,6.913,0,0,1-.875-2.3,15.228,15.228,0,0,1-.25-2.844,12.62,12.62,0,0,1,.344-3.016,6.781,6.781,0,0,1,.953-2.25,5.66,5.66,0,0,1,1.516-1.453,4.534,4.534,0,0,1,2.5-.594,5.761,5.761,0,0,1,2.5.484,3.955,3.955,0,0,1,1.641,1.453,6.244,6.244,0,0,1,.906,2.375,15.876,15.876,0,0,1,.266,2.953,14.561,14.561,0,0,1-.266,2.844,6.586,6.586,0,0,1-.875,2.312A4.574,4.574,0,0,1,8.656-.391,5.216,5.216,0,0,1,6.109.172Zm0-1.672a3.187,3.187,0,0,0,1.766-.437,2.636,2.636,0,0,0,1-1.2,7.506,7.506,0,0,0,.516-1.781,13.425,13.425,0,0,0,.172-2.187A15.639,15.639,0,0,0,9.422-9.25a5.858,5.858,0,0,0-.5-1.8,3.155,3.155,0,0,0-1.047-1.266,2.972,2.972,0,0,0-1.734-.469,2.975,2.975,0,0,0-1.766.469,3.087,3.087,0,0,0-.969,1.125,6.822,6.822,0,0,0-.5,1.813,14.86,14.86,0,0,0-.172,2.266,20.39,20.39,0,0,0,.109,2.188,5.712,5.712,0,0,0,.484,1.781,2.8,2.8,0,0,0,1.031,1.2A3.141,3.141,0,0,0,6.109-1.5Zm0,0" fill="#fff"/>
      </g>
    </g>
    <g id="Group_4948" data-name="Group 4948">
      <g id="Group_4947" data-name="Group 4947" transform="translate(394.576 513.562)">
        <path id="Path_42359" data-name="Path 42359" d="M.7-10.891a3.1,3.1,0,0,1,.234-1.2,3.019,3.019,0,0,1,.656-.984,3.193,3.193,0,0,1,1-.672,3.35,3.35,0,0,1,1.3-.25,3.244,3.244,0,0,1,1.281.25,3.177,3.177,0,0,1,1.016.672,3.019,3.019,0,0,1,.656.984,2.976,2.976,0,0,1,.25,1.2A3.052,3.052,0,0,1,6.859-9.7a3.173,3.173,0,0,1-.656,1,2.965,2.965,0,0,1-1,.672,3.344,3.344,0,0,1-1.312.25,3.317,3.317,0,0,1-1.312-.25A3.073,3.073,0,0,1,1.563-8.7a3.269,3.269,0,0,1-.641-1A3.189,3.189,0,0,1,.7-10.891Zm3.188-1.578a1.609,1.609,0,0,0-.625.125,1.421,1.421,0,0,0-.516.328,1.412,1.412,0,0,0-.344.5,1.489,1.489,0,0,0-.125.625,1.493,1.493,0,0,0,.125.609,1.511,1.511,0,0,0,.344.516,1.512,1.512,0,0,0,.516.344,1.54,1.54,0,0,0,.625.125A1.442,1.442,0,0,0,4.5-9.422a1.759,1.759,0,0,0,.516-.328,1.633,1.633,0,0,0,.344-.516,1.608,1.608,0,0,0,.125-.625,1.552,1.552,0,0,0-.125-.625,1.521,1.521,0,0,0-.344-.5,1.49,1.49,0,0,0-.516-.328A1.505,1.505,0,0,0,3.891-12.469Zm7.8-1.906h1.828L3.8.156H1.984ZM8.781-3.016A3.066,3.066,0,0,1,9.016-4.2a3.02,3.02,0,0,1,.656-.984,3.359,3.359,0,0,1,1.016-.672,3.351,3.351,0,0,1,1.3-.25,3.245,3.245,0,0,1,1.281.25,3.177,3.177,0,0,1,1.016.672,3.02,3.02,0,0,1,.656.984,3.065,3.065,0,0,1,.234,1.187,3.086,3.086,0,0,1-.234,1.2,2.861,2.861,0,0,1-.641.984,3.185,3.185,0,0,1-1,.688,3.416,3.416,0,0,1-1.312.25,3.424,3.424,0,0,1-1.328-.25,3.373,3.373,0,0,1-1-.687,3.106,3.106,0,0,1-.641-.984A3.087,3.087,0,0,1,8.781-3.016Zm3.2-1.562a1.608,1.608,0,0,0-.625.125,1.42,1.42,0,0,0-.516.328,1.422,1.422,0,0,0-.344.484,1.49,1.49,0,0,0-.125.625,1.541,1.541,0,0,0,.125.625,1.51,1.51,0,0,0,.344.516,1.511,1.511,0,0,0,.516.344,1.54,1.54,0,0,0,.625.125,1.443,1.443,0,0,0,.609-.125,1.413,1.413,0,0,0,.5-.344,1.633,1.633,0,0,0,.344-.516,1.609,1.609,0,0,0,.125-.625,1.553,1.553,0,0,0-.125-.625,1.538,1.538,0,0,0-.344-.484,1.329,1.329,0,0,0-.5-.328A1.5,1.5,0,0,0,11.984-4.578Zm0,0" fill="#fff"/>
      </g>
    </g>
    <g id="Group_4950" data-name="Group 4950">
      <g id="Group_4949" data-name="Group 4949" transform="translate(410.722 513.562)">
        <path id="Path_42360" data-name="Path 42360" d="M0,0ZM0,0" fill="#fff"/>
      </g>
    </g>
    <g id="Group_4952" data-name="Group 4952">
      <g id="Group_4951" data-name="Group 4951" transform="translate(414.903 513.562)">
        <path id="Path_42361" data-name="Path 42361" d="M1.328-14.156H11.484v4H9.563v-2.391H4.516V-8H9.375v1.578H4.516v4.812H5.938V0H1.328V-1.609H2.688V-12.547H1.328Zm0,0" fill="#fff"/>
      </g>
    </g>
    <g id="Group_4954" data-name="Group 4954">
      <g id="Group_4953" data-name="Group 4953" transform="translate(426.503 513.562)">
        <path id="Path_42362" data-name="Path 42362" d="M2.578-4.609a4.043,4.043,0,0,0,.063.75,3.41,3.41,0,0,0,.172.641A2.738,2.738,0,0,0,3.906-1.8a3.242,3.242,0,0,0,1.734.469,5.332,5.332,0,0,0,1.469-.2,7.1,7.1,0,0,0,1.5-.672l.7,1.188a7.407,7.407,0,0,1-1.922.969,6.434,6.434,0,0,1-2,.313A4.947,4.947,0,0,1,3.578-.062a3.932,3.932,0,0,1-1.437-.969A4.509,4.509,0,0,1,1.2-2.625a6.677,6.677,0,0,1-.344-2.25,6.67,6.67,0,0,1,.281-1.953,4.687,4.687,0,0,1,.875-1.609A4.066,4.066,0,0,1,3.438-9.516a4.544,4.544,0,0,1,1.984-.406,4.384,4.384,0,0,1,1.813.328,3.388,3.388,0,0,1,1.2.875,3.721,3.721,0,0,1,.7,1.25,7.641,7.641,0,0,1,.328,1.422c.031.242.051.484.063.734s.016.477.016.7ZM5.3-8.469A3.015,3.015,0,0,0,4.234-8.3a2.2,2.2,0,0,0-.781.5,2.277,2.277,0,0,0-.5.781,4.992,4.992,0,0,0-.281,1.047H7.688a4.785,4.785,0,0,0-.187-1,2.043,2.043,0,0,0-.406-.781,1.9,1.9,0,0,0-.719-.531A2.748,2.748,0,0,0,5.3-8.469Zm0,0" fill="#fff"/>
      </g>
    </g>
    <g id="Group_4956" data-name="Group 4956">
      <g id="Group_4955" data-name="Group 4955" transform="translate(437.469 513.562)">
        <path id="Path_42363" data-name="Path 42363" d="M2.578-4.609a4.043,4.043,0,0,0,.063.75,3.41,3.41,0,0,0,.172.641A2.738,2.738,0,0,0,3.906-1.8a3.242,3.242,0,0,0,1.734.469,5.332,5.332,0,0,0,1.469-.2,7.1,7.1,0,0,0,1.5-.672l.7,1.188a7.407,7.407,0,0,1-1.922.969,6.434,6.434,0,0,1-2,.313A4.947,4.947,0,0,1,3.578-.062a3.932,3.932,0,0,1-1.437-.969A4.509,4.509,0,0,1,1.2-2.625a6.677,6.677,0,0,1-.344-2.25,6.67,6.67,0,0,1,.281-1.953,4.687,4.687,0,0,1,.875-1.609A4.066,4.066,0,0,1,3.438-9.516a4.544,4.544,0,0,1,1.984-.406,4.384,4.384,0,0,1,1.813.328,3.388,3.388,0,0,1,1.2.875,3.721,3.721,0,0,1,.7,1.25,7.641,7.641,0,0,1,.328,1.422c.031.242.051.484.063.734s.016.477.016.7ZM5.3-8.469A3.015,3.015,0,0,0,4.234-8.3a2.2,2.2,0,0,0-.781.5,2.277,2.277,0,0,0-.5.781,4.992,4.992,0,0,0-.281,1.047H7.688a4.785,4.785,0,0,0-.187-1,2.043,2.043,0,0,0-.406-.781,1.9,1.9,0,0,0-.719-.531A2.748,2.748,0,0,0,5.3-8.469Zm0,0" fill="#fff"/>
      </g>
    </g>
    <g id="Group_4958" data-name="Group 4958">
      <g id="Group_4957" data-name="Group 4957" transform="translate(448.435 513.562)">
        <path id="Path_42364" data-name="Path 42364" d="M0,0ZM0,0" fill="#fff"/>
      </g>
    </g>
    <g id="Group_4960" data-name="Group 4960">
      <g id="Group_4959" data-name="Group 4959" transform="translate(452.616 513.562)">
        <path id="Path_42365" data-name="Path 42365" d="M10.094-14.156h4.594v1.609h-1.2V0H11.094L4.516-11.734V-1.609H5.969V0H1.375V-1.609H2.688V-12.547H1.328v-1.625H5.141L11.609-2.547,11.688-3v-9.547H10.094Zm0,0" fill="#fff"/>
      </g>
    </g>
    <g id="Group_4962" data-name="Group 4962">
      <g id="Group_4961" data-name="Group 4961" transform="translate(467.772 513.562)">
        <path id="Path_42366" data-name="Path 42366" d="M2.578-4.609a4.043,4.043,0,0,0,.063.75,3.41,3.41,0,0,0,.172.641A2.738,2.738,0,0,0,3.906-1.8a3.242,3.242,0,0,0,1.734.469,5.332,5.332,0,0,0,1.469-.2,7.1,7.1,0,0,0,1.5-.672l.7,1.188a7.407,7.407,0,0,1-1.922.969,6.434,6.434,0,0,1-2,.313A4.947,4.947,0,0,1,3.578-.062a3.932,3.932,0,0,1-1.437-.969A4.509,4.509,0,0,1,1.2-2.625a6.677,6.677,0,0,1-.344-2.25,6.67,6.67,0,0,1,.281-1.953,4.687,4.687,0,0,1,.875-1.609A4.066,4.066,0,0,1,3.438-9.516a4.544,4.544,0,0,1,1.984-.406,4.384,4.384,0,0,1,1.813.328,3.388,3.388,0,0,1,1.2.875,3.721,3.721,0,0,1,.7,1.25,7.641,7.641,0,0,1,.328,1.422c.031.242.051.484.063.734s.016.477.016.7ZM5.3-8.469A3.015,3.015,0,0,0,4.234-8.3a2.2,2.2,0,0,0-.781.5,2.277,2.277,0,0,0-.5.781,4.992,4.992,0,0,0-.281,1.047H7.688a4.785,4.785,0,0,0-.187-1,2.043,2.043,0,0,0-.406-.781,1.9,1.9,0,0,0-.719-.531A2.748,2.748,0,0,0,5.3-8.469Zm0,0" fill="#fff"/>
      </g>
    </g>
    <g id="Group_4964" data-name="Group 4964">
      <g id="Group_4963" data-name="Group 4963" transform="translate(478.738 513.562)">
        <path id="Path_42367" data-name="Path 42367" d="M3.734-9.672H6v1.406H3.719L3.688-2.687a2.832,2.832,0,0,0,.125.938.885.885,0,0,0,.422.484,1.5,1.5,0,0,0,.656.141,3.3,3.3,0,0,0,.688-.062,3.063,3.063,0,0,0,.656-.25L6.641-.266a4.6,4.6,0,0,1-.953.359A4.2,4.2,0,0,1,4.531.234,3.584,3.584,0,0,1,3.422.078a1.809,1.809,0,0,1-.8-.516,2.425,2.425,0,0,1-.484-.969,6.325,6.325,0,0,1-.156-1.531l.031-5.328H.469V-9.672H2.031v-2.313l1.7-.812Zm0,0" fill="#fff"/>
      </g>
    </g>
    <g id="Group_4966" data-name="Group 4966">
      <g id="Group_4965" data-name="Group 4965" transform="translate(485.85 513.562)">
        <path id="Path_42368" data-name="Path 42368" d="M.188-9.672H3.25v1.609H2.8L4.484-1.891,6.813-9.672H8.266l2.219,7.75L12.25-8.062h-.562V-9.672H14.75v1.609h-.828L11.266.156H9.656L7.469-7.578,5.281.156H3.656L1.016-8.062H.188Zm0,0" fill="#fff"/>
      </g>
    </g>
    <g id="Group_4968" data-name="Group 4968">
      <g id="Group_4967" data-name="Group 4967" transform="translate(501.155 513.562)">
        <path id="Path_42369" data-name="Path 42369" d="M.8-4.844a5.888,5.888,0,0,1,.375-2.078,4.728,4.728,0,0,1,1-1.625A4.38,4.38,0,0,1,3.7-9.578a4.974,4.974,0,0,1,1.953-.375,5.024,5.024,0,0,1,1.969.375A4.248,4.248,0,0,1,9.141-8.547a4.665,4.665,0,0,1,1,1.609A5.8,5.8,0,0,1,10.5-4.859a5.9,5.9,0,0,1-.359,2.094,5.009,5.009,0,0,1-1,1.625A4.48,4.48,0,0,1,7.625-.078,5.024,5.024,0,0,1,5.656.3,5.061,5.061,0,0,1,3.672-.078,4.484,4.484,0,0,1,2.156-1.125a4.88,4.88,0,0,1-1-1.625A6.274,6.274,0,0,1,.8-4.844Zm1.844,0a4.573,4.573,0,0,0,.234,1.516,3.567,3.567,0,0,0,.656,1.141,3.092,3.092,0,0,0,.969.734,2.725,2.725,0,0,0,1.156.25,2.912,2.912,0,0,0,1.2-.25,2.732,2.732,0,0,0,.969-.719,3.631,3.631,0,0,0,.641-1.156A4.573,4.573,0,0,0,8.7-4.844a4.7,4.7,0,0,0-.234-1.547,3.317,3.317,0,0,0-.641-1.141,2.479,2.479,0,0,0-.969-.687,3.1,3.1,0,0,0-1.2-.234A2.9,2.9,0,0,0,4.5-8.219a2.6,2.6,0,0,0-.969.688,3.406,3.406,0,0,0-.656,1.141A4.7,4.7,0,0,0,2.641-4.844Zm0,0" fill="#fff"/>
      </g>
    </g>
    <g id="Group_4970" data-name="Group 4970">
      <g id="Group_4969" data-name="Group 4969" transform="translate(512.588 513.562)">
        <path id="Path_42370" data-name="Path 42370" d="M7.891-7.625H6.109v-.609a1.779,1.779,0,0,0-.625.125,1.819,1.819,0,0,0-.594.359,2.248,2.248,0,0,0-.5.609,2.782,2.782,0,0,0-.3.859v4.672H5.734V0H.938V-1.609H2.266l.016-6.453H.938V-9.672H4.031v1.328a3.223,3.223,0,0,1,.359-.547,2.692,2.692,0,0,1,.469-.453,2.31,2.31,0,0,1,.578-.3,2.071,2.071,0,0,1,.672-.109h.922c.289,0,.578.008.859.016Zm0,0" fill="#fff"/>
      </g>
    </g>
    <g id="Group_4972" data-name="Group 4972">
      <g id="Group_4971" data-name="Group 4971" transform="translate(521.547 513.562)">
        <path id="Path_42371" data-name="Path 42371" d="M.859-14.531H4.266v1.609H4.25V-5.7H5.938l2.3-2.359H7.641V-9.672h3.672v1.609H10.094L7.156-5.031l3.2,3.422h1.172V0H9.484L5.531-4.328H4.25v2.719h.8V0H.922V-1.609H2.5V-12.922H.859Zm0,0" fill="#fff"/>
      </g>
    </g>
    <g id="Group_4974" data-name="Group 4974">
      <g id="Group_4973" data-name="Group 4973" transform="translate(360.861 312.875)">
        <path id="Path_42372" data-name="Path 42372" d="M1.063-11.219H4.7v1.281H3.578v8.672H7.438a.459.459,0,0,0,.234-.062.955.955,0,0,0,.219-.141.581.581,0,0,0,.156-.2.554.554,0,0,0,.063-.234V-3.328H9.516V0H1.063V-1.266H2.125V-9.937H1.063Zm0,0" fill="#2B1867"/>
      </g>
    </g>
    <g id="Group_4976" data-name="Group 4976">
      <g id="Group_4975" data-name="Group 4975" transform="translate(370.45 312.875)">
        <path id="Path_42373" data-name="Path 42373" d="M2.047-3.656a3.422,3.422,0,0,0,.047.594,2.785,2.785,0,0,0,.141.516,2.083,2.083,0,0,0,.859,1.109,2.567,2.567,0,0,0,1.375.375,4.256,4.256,0,0,0,1.156-.156,5.566,5.566,0,0,0,1.2-.531l.547.938a5.6,5.6,0,0,1-1.516.781,5.148,5.148,0,0,1-1.578.25,4.173,4.173,0,0,1-1.453-.25A3.149,3.149,0,0,1,1.688-.812,3.662,3.662,0,0,1,.953-2.078,5.343,5.343,0,0,1,.688-3.859,5.214,5.214,0,0,1,.906-5.406a3.782,3.782,0,0,1,.688-1.281,3.2,3.2,0,0,1,1.125-.859A3.717,3.717,0,0,1,4.3-7.859a3.473,3.473,0,0,1,1.438.266,2.524,2.524,0,0,1,.938.688,2.97,2.97,0,0,1,.563,1A4.91,4.91,0,0,1,7.5-4.781a3.535,3.535,0,0,1,.047.578c.008.188.016.371.016.547ZM4.2-6.719a2.3,2.3,0,0,0-.844.141,1.623,1.623,0,0,0-.609.406,1.862,1.862,0,0,0-.406.625,3.474,3.474,0,0,0-.234.813H6.094a3.966,3.966,0,0,0-.141-.781,1.841,1.841,0,0,0-.328-.641,1.422,1.422,0,0,0-.578-.406A2.086,2.086,0,0,0,4.2-6.719Zm0,0" fill="#2B1867"/>
      </g>
    </g>
    <g id="Group_4978" data-name="Group 4978">
      <g id="Group_4977" data-name="Group 4977" transform="translate(379.143 312.875)">
        <path id="Path_42374" data-name="Path 42374" d="M.141-7.672H2.8v1.281H2.078L3.969-1.109,5.828-6.391H5.359V-7.672H7.781v1.281H7.125L4.625.125H3.25L.75-6.391H.141Zm0,0" fill="#2B1867"/>
      </g>
    </g>
    <g id="Group_4980" data-name="Group 4980">
      <g id="Group_4979" data-name="Group 4979" transform="translate(387.282 312.875)">
        <path id="Path_42375" data-name="Path 42375" d="M2.047-3.656a3.422,3.422,0,0,0,.047.594,2.785,2.785,0,0,0,.141.516,2.083,2.083,0,0,0,.859,1.109,2.567,2.567,0,0,0,1.375.375,4.256,4.256,0,0,0,1.156-.156,5.566,5.566,0,0,0,1.2-.531l.547.938a5.6,5.6,0,0,1-1.516.781,5.148,5.148,0,0,1-1.578.25,4.173,4.173,0,0,1-1.453-.25A3.149,3.149,0,0,1,1.688-.812,3.662,3.662,0,0,1,.953-2.078,5.343,5.343,0,0,1,.688-3.859,5.214,5.214,0,0,1,.906-5.406a3.782,3.782,0,0,1,.688-1.281,3.2,3.2,0,0,1,1.125-.859A3.717,3.717,0,0,1,4.3-7.859a3.473,3.473,0,0,1,1.438.266,2.524,2.524,0,0,1,.938.688,2.97,2.97,0,0,1,.563,1A4.91,4.91,0,0,1,7.5-4.781a3.535,3.535,0,0,1,.047.578c.008.188.016.371.016.547ZM4.2-6.719a2.3,2.3,0,0,0-.844.141,1.623,1.623,0,0,0-.609.406,1.862,1.862,0,0,0-.406.625,3.474,3.474,0,0,0-.234.813H6.094a3.966,3.966,0,0,0-.141-.781,1.841,1.841,0,0,0-.328-.641,1.422,1.422,0,0,0-.578-.406A2.086,2.086,0,0,0,4.2-6.719Zm0,0" fill="#2B1867"/>
      </g>
    </g>
    <g id="Group_4982" data-name="Group 4982">
      <g id="Group_4981" data-name="Group 4981" transform="translate(395.975 312.875)">
        <path id="Path_42376" data-name="Path 42376" d="M5.781-1.266H6.875v-3.5a1.833,1.833,0,0,0-.453-1.344,1.744,1.744,0,0,0-1.281-.453,2.3,2.3,0,0,0-.984.234,4.589,4.589,0,0,0-.922.563v4.5H4.328V0H.734V-1.266H1.813V-6.391H.734V-7.672H3.188v.906H3.2a4.147,4.147,0,0,1,.516-.406A4.475,4.475,0,0,1,4.3-7.5a3.756,3.756,0,0,1,.641-.219,2.477,2.477,0,0,1,.688-.094,3.442,3.442,0,0,1,1.109.172,2.145,2.145,0,0,1,.844.531,2.334,2.334,0,0,1,.531.891A3.872,3.872,0,0,1,8.3-4.937v3.672H9.375V0H5.781Zm0,0" fill="#2B1867"/>
      </g>
    </g>
    <g id="Group_4984" data-name="Group 4984">
      <g id="Group_4983" data-name="Group 4983" transform="translate(406.072 312.875)">
        <path id="Path_42377" data-name="Path 42377" d="M0,0ZM0,0" fill="#2B1867"/>
      </g>
    </g>
    <g id="Group_4986" data-name="Group 4986">
      <g id="Group_4985" data-name="Group 4985" transform="translate(353.033 333.875)">
        <path id="Path_42378" data-name="Path 42378" d="M8-11.219h3.641v1.281h-.953V0H8.8L3.578-9.3v8.031H4.734V0H1.094V-1.266H2.125V-9.937H1.063v-1.3H4.078L9.2-2.016l.063-.359V-9.937H8Zm0,0" fill="#2B1867"/>
      </g>
    </g>
    <g id="Group_4988" data-name="Group 4988">
      <g id="Group_4987" data-name="Group 4987" transform="translate(365.048 333.875)">
        <path id="Path_42379" data-name="Path 42379" d="M2.047-3.656a3.422,3.422,0,0,0,.047.594,2.785,2.785,0,0,0,.141.516,2.083,2.083,0,0,0,.859,1.109,2.567,2.567,0,0,0,1.375.375,4.256,4.256,0,0,0,1.156-.156,5.566,5.566,0,0,0,1.2-.531l.547.938a5.6,5.6,0,0,1-1.516.781,5.148,5.148,0,0,1-1.578.25,4.173,4.173,0,0,1-1.453-.25A3.149,3.149,0,0,1,1.688-.812,3.662,3.662,0,0,1,.953-2.078,5.343,5.343,0,0,1,.688-3.859,5.214,5.214,0,0,1,.906-5.406a3.782,3.782,0,0,1,.688-1.281,3.2,3.2,0,0,1,1.125-.859A3.717,3.717,0,0,1,4.3-7.859a3.473,3.473,0,0,1,1.438.266,2.524,2.524,0,0,1,.938.688,2.97,2.97,0,0,1,.563,1A4.91,4.91,0,0,1,7.5-4.781a3.535,3.535,0,0,1,.047.578c.008.188.016.371.016.547ZM4.2-6.719a2.3,2.3,0,0,0-.844.141,1.623,1.623,0,0,0-.609.406,1.862,1.862,0,0,0-.406.625,3.474,3.474,0,0,0-.234.813H6.094a3.966,3.966,0,0,0-.141-.781,1.841,1.841,0,0,0-.328-.641,1.422,1.422,0,0,0-.578-.406A2.086,2.086,0,0,0,4.2-6.719Zm0,0" fill="#2B1867"/>
      </g>
    </g>
    <g id="Group_4990" data-name="Group 4990">
      <g id="Group_4989" data-name="Group 4989" transform="translate(373.742 333.875)">
        <path id="Path_42380" data-name="Path 42380" d="M2.953-7.672H4.766v1.125H2.953L2.922-2.125a2.364,2.364,0,0,0,.094.734A.661.661,0,0,0,3.359-1a1.185,1.185,0,0,0,.516.109,2.826,2.826,0,0,0,.547-.047,2.593,2.593,0,0,0,.516-.2l.328.922a4.1,4.1,0,0,1-.75.3,3.573,3.573,0,0,1-.922.109A2.8,2.8,0,0,1,2.719.063a1.513,1.513,0,0,1-.641-.406A1.9,1.9,0,0,1,1.7-1.125a4.758,4.758,0,0,1-.125-1.2l.016-4.219H.375V-7.672H1.609V-9.5l1.344-.641Zm0,0" fill="#2B1867"/>
      </g>
    </g>
    <g id="Group_4992" data-name="Group 4992">
      <g id="Group_4991" data-name="Group 4991" transform="translate(379.38 333.875)">
        <path id="Path_42381" data-name="Path 42381" d="M.141-7.672H2.578v1.281H2.219L3.563-1.5,5.391-7.672H6.547L8.3-1.516,9.7-6.391H9.266V-7.672h2.422v1.281h-.656L8.922.125H7.656L5.906-6,4.188.125h-1.3L.813-6.391H.141Zm0,0" fill="#2B1867"/>
      </g>
    </g>
    <g id="Group_4994" data-name="Group 4994">
      <g id="Group_4993" data-name="Group 4993" transform="translate(391.513 333.875)">
        <path id="Path_42382" data-name="Path 42382" d="M.641-3.828A4.618,4.618,0,0,1,.922-5.484a3.911,3.911,0,0,1,.8-1.281,3.4,3.4,0,0,1,1.219-.828,3.984,3.984,0,0,1,1.547-.3,3.984,3.984,0,0,1,1.547.3,3.374,3.374,0,0,1,1.219.813A3.814,3.814,0,0,1,8.031-5.5a4.618,4.618,0,0,1,.281,1.656A4.637,4.637,0,0,1,8.031-2.2a3.966,3.966,0,0,1-.781,1.3,3.661,3.661,0,0,1-1.219.844,3.984,3.984,0,0,1-1.547.3,4.021,4.021,0,0,1-1.562-.3A3.608,3.608,0,0,1,1.7-.891a3.9,3.9,0,0,1-.781-1.3A4.637,4.637,0,0,1,.641-3.828Zm1.453,0a3.54,3.54,0,0,0,.188,1.188,2.734,2.734,0,0,0,.516.906,2.245,2.245,0,0,0,.766.578,2.132,2.132,0,0,0,.922.2,2.22,2.22,0,0,0,.953-.2A2.283,2.283,0,0,0,6.2-1.734a2.577,2.577,0,0,0,.5-.906,3.54,3.54,0,0,0,.188-1.187A3.711,3.711,0,0,0,6.7-5.062a2.446,2.446,0,0,0-.5-.906,2.071,2.071,0,0,0-.766-.547A2.4,2.4,0,0,0,4.484-6.7a2.3,2.3,0,0,0-.922.188,2.206,2.206,0,0,0-.766.547,2.585,2.585,0,0,0-.516.906A3.711,3.711,0,0,0,2.094-3.828Zm0,0" fill="#2B1867"/>
      </g>
    </g>
    <g id="Group_4996" data-name="Group 4996">
      <g id="Group_4995" data-name="Group 4995" transform="translate(400.577 333.875)">
        <path id="Path_42383" data-name="Path 42383" d="M6.25-6.047H4.844v-.469a1.5,1.5,0,0,0-.5.094,1.529,1.529,0,0,0-.469.281,1.816,1.816,0,0,0-.391.484,1.983,1.983,0,0,0-.25.688v3.7H4.547V0H.734V-1.266H1.8l.016-5.125H.734V-7.672H3.188v1.063a4.512,4.512,0,0,1,.3-.437,2.508,2.508,0,0,1,.375-.359,1.512,1.512,0,0,1,.453-.234,1.8,1.8,0,0,1,.531-.078H6.25Zm0,0" fill="#2B1867"/>
      </g>
    </g>
    <g id="Group_4998" data-name="Group 4998">
      <g id="Group_4997" data-name="Group 4997" transform="translate(407.679 333.875)">
        <path id="Path_42384" data-name="Path 42384" d="M.688-11.516H3.375v7H4.7L6.516-6.391H6.063V-7.672H8.969v1.281H8L5.672-3.984,8.219-1.266h.922V0H7.516L4.375-3.422h-1v2.156H4V0H.719V-1.266H1.984V-10.25H.688Zm0,0" fill="#2B1867"/>
      </g>
    </g>
  </g>
</svg>
