<svg xmlns="http://www.w3.org/2000/svg" xmlns:xlink="http://www.w3.org/1999/xlink" width="544.965" height="449.427" viewBox="0 0 544.965 449.427">
  <defs>
    <clipPath id="clip-path">
      <path id="Path_42386" data-name="Path 42386" d="M183.074,181.5h402V455.25h-402Zm0,0" fill="#fff"/>
    </clipPath>
    <clipPath id="clip-path-2">
      <path id="Path_42421" data-name="Path 42421" d="M110.3,286.465H264.8v62.25H110.3Zm0,0"/>
    </clipPath>
    <clipPath id="clip-path-3">
      <path id="Path_42441" data-name="Path 42441" d="M500.762,286.465h154.5v62.25h-154.5Zm0,0"/>
    </clipPath>
  </defs>
  <g id="_3" data-name="3" transform="translate(-110.297 -64.431)">
    <g id="Group_4999" data-name="Group 4999" clip-path="url(#clip-path)">
      <path id="Path_42385" data-name="Path 42385" d="M448.316,181.5a136.659,136.659,0,0,0-64.164,15.984A136.669,136.669,0,0,0,319.984,181.5C244.453,181.5,183,242.926,183,318.426s61.453,136.926,136.984,136.926a136.364,136.364,0,0,0,64.168-15.985,135.758,135.758,0,0,0,64.164,15.985c75.536,0,136.985-61.426,136.985-136.926S523.852,181.5,448.316,181.5ZM319.984,447.309c-71.105,0-129.039-57.809-129.039-128.985s57.832-128.883,129.039-128.883A127.4,127.4,0,0,1,376,202.309a136.689,136.689,0,0,0,0,232.23A127.935,127.935,0,0,1,319.984,447.309Zm-.605-128.883a129.157,129.157,0,0,1,64.773-111.793,128.862,128.862,0,0,1,0,223.586A128.948,128.948,0,0,1,319.379,318.426ZM448.316,447.309A127.729,127.729,0,0,1,392.3,434.441a136.689,136.689,0,0,0,0-232.23,128.02,128.02,0,0,1,56.019-12.871c71.11,0,129.039,57.808,129.039,128.984A129.089,129.089,0,0,1,448.316,447.309Zm0,0" fill="#fff"/>
    </g>
    <path id="Path_42387" data-name="Path 42387" d="M384.152,420.867a120.863,120.863,0,0,1,0-204.883,120.866,120.866,0,0,1,0,204.883Zm0,0" fill="#fff"/>
    <g id="Group_5001" data-name="Group 5001">
      <g id="Group_5000" data-name="Group 5000" transform="translate(192.35 89.525)">
        <path id="Path_42388" data-name="Path 42388" d="M2.328-2.8H4.656v-19H2.328v-2.844l11.062.031a7.064,7.064,0,0,1,2.813.563,7.084,7.084,0,0,1,2.281,1.516,7.1,7.1,0,0,1,1.547,2.281,7.112,7.112,0,0,1,.563,2.828,4.957,4.957,0,0,1-.891,2.875,6.128,6.128,0,0,1-2.5,2.078,7.535,7.535,0,0,1,1.438.984A6.325,6.325,0,0,1,19.75-10.25a5.321,5.321,0,0,1,.719,1.406,4.853,4.853,0,0,1,.25,1.516,7.286,7.286,0,0,1-.562,2.875,7.353,7.353,0,0,1-1.547,2.328A7.274,7.274,0,0,1,16.328-.562,6.927,6.927,0,0,1,13.547,0H2.328Zm5.516-8.141V-2.8h5.734a2.75,2.75,0,0,0,1.438-.391A4.2,4.2,0,0,0,16.188-4.2a4.841,4.841,0,0,0,.781-1.406,4.669,4.669,0,0,0,.3-1.625,3.349,3.349,0,0,0-.3-1.375,4.119,4.119,0,0,0-.8-1.187A3.452,3.452,0,0,0,15-10.625a3.356,3.356,0,0,0-1.422-.312Zm0-10.859v8.031h5.578a3.374,3.374,0,0,0,1.453-.312,3.961,3.961,0,0,0,1.172-.828,3.8,3.8,0,0,0,.781-1.187,3.582,3.582,0,0,0,.3-1.422,4.349,4.349,0,0,0-.3-1.562,4.333,4.333,0,0,0-.8-1.375,3.966,3.966,0,0,0-1.172-.969,2.914,2.914,0,0,0-1.437-.375Zm0,0" fill="#fff"/>
      </g>
    </g>
    <g id="Group_5003" data-name="Group 5003">
      <g id="Group_5002" data-name="Group 5002" transform="translate(214.298 89.525)">
        <path id="Path_42389" data-name="Path 42389" d="M1.828-24.609H9.813V-21.8H7.3v11.453A11.824,11.824,0,0,0,7.75-6.828,6.581,6.581,0,0,0,9.031-4.453a5.085,5.085,0,0,0,1.953,1.344,6.969,6.969,0,0,0,2.469.422,8.286,8.286,0,0,0,2.563-.375,4.613,4.613,0,0,0,2-1.266,6.033,6.033,0,0,0,1.313-2.359,12.163,12.163,0,0,0,.469-3.656V-21.8H17.125v-2.812h7.969V-21.8H22.906V-10.7a14.11,14.11,0,0,1-.734,4.734,9.859,9.859,0,0,1-2.031,3.453A8.593,8.593,0,0,1,17.125-.391a9.71,9.71,0,0,1-3.734.719A9.3,9.3,0,0,1,9.75-.391,8.406,8.406,0,0,1,6.781-2.484,9.853,9.853,0,0,1,4.813-5.844a13.4,13.4,0,0,1-.719-4.563V-21.8H1.828Zm0,0" fill="#fff"/>
      </g>
    </g>
    <g id="Group_5005" data-name="Group 5005">
      <g id="Group_5004" data-name="Group 5004" transform="translate(239.46 89.525)">
        <path id="Path_42390" data-name="Path 42390" d="M.828-24.609H8.813V-21.8H6.484l4.625,7.906L16.063-21.8H13.484v-2.812h8V-21.8H19.391L12.469-11.312V-2.8H15V0H7.016V-2.8h2.25v-8.594L2.75-21.8H.828Zm0,0" fill="#fff"/>
      </g>
    </g>
    <g id="Group_5007" data-name="Group 5007">
      <g id="Group_5006" data-name="Group 5006" transform="translate(261.44 89.525)">
        <path id="Path_42391" data-name="Path 42391" d="M2.328-24.609H19.953v6.969H16.625V-21.8H7.844v7.859h7.391v2.8H7.844V-2.8h8.781V-6.953h3.328V0H2.328V-2.8H4.656v-19H2.328Zm0,0" fill="#fff"/>
      </g>
    </g>
    <g id="Group_5009" data-name="Group 5009">
      <g id="Group_5008" data-name="Group 5008" transform="translate(282.316 89.525)">
        <path id="Path_42392" data-name="Path 42392" d="M2.328-24.609H12.563a10.153,10.153,0,0,1,3.031.438A6.845,6.845,0,0,1,18-22.906a5.648,5.648,0,0,1,1.578,2.078,6.953,6.953,0,0,1,.563,2.875,5.312,5.312,0,0,1-.328,1.828,6.436,6.436,0,0,1-.922,1.672,7.456,7.456,0,0,1-1.406,1.375,6.621,6.621,0,0,1-1.766.922,3.431,3.431,0,0,1,.813.516,4.312,4.312,0,0,1,.781.813,5.813,5.813,0,0,1,.672,1.078,6.862,6.862,0,0,1,.469,1.313l1.375,5.359h2.125L21.984,0h-4.8L15.359-7.484a5.8,5.8,0,0,0-1.531-2.953A4.022,4.022,0,0,0,11-11.391H7.844V-2.8h2.469V0H2.328V-2.8H4.656v-19H2.328ZM7.844-21.8v7.734h4.719A5.757,5.757,0,0,0,14.25-14.3a3.76,3.76,0,0,0,1.344-.734,3.293,3.293,0,0,0,.875-1.2,4.292,4.292,0,0,0,.313-1.687,3.694,3.694,0,0,0-1.109-2.859,5.05,5.05,0,0,0-3.5-1.016Zm0,0" fill="#fff"/>
      </g>
    </g>
    <g id="Group_5011" data-name="Group 5011">
      <g id="Group_5010" data-name="Group 5010" transform="translate(305.984 89.525)">
        <path id="Path_42393" data-name="Path 42393" d="M14.938-17.922a3.561,3.561,0,0,0-.531-2.141,3.953,3.953,0,0,0-1.141-1.094,5.228,5.228,0,0,0-1.375-.594,5.665,5.665,0,0,0-1.484-.2,7.12,7.12,0,0,0-2.156.3,4.61,4.61,0,0,0-1.531.766A3.211,3.211,0,0,0,5.8-19.75a3.042,3.042,0,0,0-.312,1.359,3.439,3.439,0,0,0,.375,1.719,3.344,3.344,0,0,0,.969,1.063,5.452,5.452,0,0,0,1.3.625c.469.148.922.3,1.359.453l3.281,1.078a15.151,15.151,0,0,1,2.594,1.078,6.783,6.783,0,0,1,1.891,1.422,5.484,5.484,0,0,1,1.156,1.891,6.93,6.93,0,0,1,.406,2.469,6.451,6.451,0,0,1-.625,2.828A6.924,6.924,0,0,1,16.438-1.5,8.219,8.219,0,0,1,13.766,0a10.46,10.46,0,0,1-3.391.531A10.637,10.637,0,0,1,7.125.094,7.046,7.046,0,0,1,4.859-1.047,5.762,5.762,0,0,1,3.391-2.687a9.391,9.391,0,0,1-.859-1.906H1.3v-2.8H5.391a6.214,6.214,0,0,0,.375,2.563A3.59,3.59,0,0,0,6.828-3.594a4.752,4.752,0,0,0,1.625.75,8.1,8.1,0,0,0,2.078.25,6.759,6.759,0,0,0,1.984-.266,4.55,4.55,0,0,0,1.516-.75,3.345,3.345,0,0,0,.953-1.2,3.619,3.619,0,0,0,.344-1.594,3.183,3.183,0,0,0-.422-1.687,4,4,0,0,0-1.062-1.172,6.382,6.382,0,0,0-1.422-.8c-.512-.207-1.008-.391-1.484-.547l-3.547-1a10.5,10.5,0,0,1-2.141-.906,6.085,6.085,0,0,1-1.656-1.344,5.662,5.662,0,0,1-1.062-1.859,7.4,7.4,0,0,1-.375-2.469A6.408,6.408,0,0,1,2.7-20.828a6.3,6.3,0,0,1,1.625-2.156,7.616,7.616,0,0,1,2.625-1.453,10.958,10.958,0,0,1,3.547-.531,8.974,8.974,0,0,1,2.422.313,7.216,7.216,0,0,1,2.016.859,7,7,0,0,1,1.594,1.359A8.67,8.67,0,0,1,17.7-20.719h1.219v2.8Zm0,0" fill="#fff"/>
      </g>
    </g>
    <g id="Group_5013" data-name="Group 5013">
      <g id="Group_5012" data-name="Group 5012" transform="translate(325.616 89.525)">
        <path id="Path_42394" data-name="Path 42394" d="M0,0ZM0,0" fill="#fff"/>
      </g>
    </g>
    <g id="Group_5015" data-name="Group 5015">
      <g id="Group_5014" data-name="Group 5014" transform="translate(332.888 89.525)">
        <path id="Path_42395" data-name="Path 42395" d="M0,0ZM0,0" fill="#fff"/>
      </g>
    </g>
    <g id="Group_5017" data-name="Group 5017">
      <g id="Group_5016" data-name="Group 5016" transform="translate(340.159 89.525)">
        <path id="Path_42396" data-name="Path 42396" d="M19.8-18.125a8.071,8.071,0,0,0-2.891-2.891,7.727,7.727,0,0,0-4-1.062,7.448,7.448,0,0,0-3.438.8A8.331,8.331,0,0,0,6.8-19.141a9.883,9.883,0,0,0-1.734,3.094,11.293,11.293,0,0,0-.609,3.7A11.519,11.519,0,0,0,5.125-8.25,9.161,9.161,0,0,0,6.906-5.3,9.658,9.658,0,0,0,9.516-3.328a7.251,7.251,0,0,0,3.391.781,7.957,7.957,0,0,0,4.453-1.234,9.74,9.74,0,0,0,3.266-4.094l2.844,1.344a9.772,9.772,0,0,1-2.094,3.391A11.046,11.046,0,0,1,17.734-.516a11.376,11.376,0,0,1-4.8,1A11.251,11.251,0,0,1,8.313-.453a11.809,11.809,0,0,1-3.766-2.7A12.147,12.147,0,0,1,2.031-7.312a14.8,14.8,0,0,1-.859-5.031A14.169,14.169,0,0,1,2.031-17.3a12.564,12.564,0,0,1,2.438-4.078A11.375,11.375,0,0,1,8.2-24.094a11.14,11.14,0,0,1,4.7-1,10.71,10.71,0,0,1,3.891.641,11.09,11.09,0,0,1,2.781,1.531,11.4,11.4,0,0,1,1.984,1.906h1.719v2.891Zm0,0" fill="#fff"/>
      </g>
    </g>
    <g id="Group_5019" data-name="Group 5019">
      <g id="Group_5018" data-name="Group 5018" transform="translate(364.655 89.525)">
        <path id="Path_42397" data-name="Path 42397" d="M12.969.484A11.333,11.333,0,0,1,8.313-.453a11.809,11.809,0,0,1-3.766-2.7A11.793,11.793,0,0,1,2.031-7.312a14.707,14.707,0,0,1-.859-5A14.266,14.266,0,0,1,2.031-17.3a12.564,12.564,0,0,1,2.438-4.078A11.375,11.375,0,0,1,8.2-24.094a11.285,11.285,0,0,1,4.766-1,11.376,11.376,0,0,1,4.8,1,11.038,11.038,0,0,1,3.719,2.719A12.464,12.464,0,0,1,23.906-17.3a14.1,14.1,0,0,1,.875,4.984,14.121,14.121,0,0,1-.875,5A12.715,12.715,0,0,1,21.469-3.25,11.368,11.368,0,0,1,17.734-.516,11.309,11.309,0,0,1,12.969.484Zm0-3.016a7.6,7.6,0,0,0,3.5-.8,8.478,8.478,0,0,0,2.672-2.125,9.71,9.71,0,0,0,1.7-3.109,11.506,11.506,0,0,0,.609-3.75,11.472,11.472,0,0,0-.672-3.875,9.218,9.218,0,0,0-1.828-3.172,8.1,8.1,0,0,0-2.734-2.016,7.839,7.839,0,0,0-3.25-.7,7.65,7.65,0,0,0-3.5.8,8.266,8.266,0,0,0-2.687,2.141,9.844,9.844,0,0,0-1.7,3.109,11.621,11.621,0,0,0-.594,3.719A11.693,11.693,0,0,0,5.141-8.25,8.932,8.932,0,0,0,6.906-5.3,9.658,9.658,0,0,0,9.516-3.328,7.364,7.364,0,0,0,12.969-2.531Zm0,0" fill="#fff"/>
      </g>
    </g>
    <g id="Group_5021" data-name="Group 5021">
      <g id="Group_5020" data-name="Group 5020" transform="translate(390.58 89.525)">
        <path id="Path_42398" data-name="Path 42398" d="M17.547-24.609h7.984V-21.8H23.438V0H19.281L7.844-20.406V-2.8h2.531V0H2.391V-2.8H4.656v-19H2.328v-2.844H8.953l11.234,20.2.125-.781V-21.8H17.547Zm0,0" fill="#fff"/>
      </g>
    </g>
    <g id="Group_5023" data-name="Group 5023">
      <g id="Group_5022" data-name="Group 5022" transform="translate(416.943 89.525)">
        <path id="Path_42399" data-name="Path 42399" d="M17.547-24.609h7.984V-21.8H23.438V0H19.281L7.844-20.406V-2.8h2.531V0H2.391V-2.8H4.656v-19H2.328v-2.844H8.953l11.234,20.2.125-.781V-21.8H17.547Zm0,0" fill="#fff"/>
      </g>
    </g>
    <g id="Group_5025" data-name="Group 5025">
      <g id="Group_5024" data-name="Group 5024" transform="translate(443.306 89.525)">
        <path id="Path_42400" data-name="Path 42400" d="M2.328-24.609H19.953v6.969H16.625V-21.8H7.844v7.859h7.391v2.8H7.844V-2.8h8.781V-6.953h3.328V0H2.328V-2.8H4.656v-19H2.328Zm0,0" fill="#fff"/>
      </g>
    </g>
    <g id="Group_5027" data-name="Group 5027">
      <g id="Group_5026" data-name="Group 5026" transform="translate(464.182 89.525)">
        <path id="Path_42401" data-name="Path 42401" d="M19.8-18.125a8.071,8.071,0,0,0-2.891-2.891,7.727,7.727,0,0,0-4-1.062,7.448,7.448,0,0,0-3.438.8A8.331,8.331,0,0,0,6.8-19.141a9.883,9.883,0,0,0-1.734,3.094,11.293,11.293,0,0,0-.609,3.7A11.519,11.519,0,0,0,5.125-8.25,9.161,9.161,0,0,0,6.906-5.3,9.658,9.658,0,0,0,9.516-3.328a7.251,7.251,0,0,0,3.391.781,7.957,7.957,0,0,0,4.453-1.234,9.74,9.74,0,0,0,3.266-4.094l2.844,1.344a9.772,9.772,0,0,1-2.094,3.391A11.046,11.046,0,0,1,17.734-.516a11.376,11.376,0,0,1-4.8,1A11.251,11.251,0,0,1,8.313-.453a11.809,11.809,0,0,1-3.766-2.7A12.147,12.147,0,0,1,2.031-7.312a14.8,14.8,0,0,1-.859-5.031A14.169,14.169,0,0,1,2.031-17.3a12.564,12.564,0,0,1,2.438-4.078A11.375,11.375,0,0,1,8.2-24.094a11.14,11.14,0,0,1,4.7-1,10.71,10.71,0,0,1,3.891.641,11.09,11.09,0,0,1,2.781,1.531,11.4,11.4,0,0,1,1.984,1.906h1.719v2.891Zm0,0" fill="#fff"/>
      </g>
    </g>
    <g id="Group_5029" data-name="Group 5029">
      <g id="Group_5028" data-name="Group 5028" transform="translate(488.678 89.525)">
        <path id="Path_42402" data-name="Path 42402" d="M7.359-2.8h2.25V-21.953H4v3.828H.672v-6.484H22.609v6.484H19.281v-3.828H12.8V-2.8h2.531V0H7.359Zm0,0" fill="#fff"/>
      </g>
    </g>
    <g id="Group_5031" data-name="Group 5031">
      <g id="Group_5030" data-name="Group 5030" transform="translate(511.957 89.525)">
        <path id="Path_42403" data-name="Path 42403" d="M0,0ZM0,0" fill="#fff"/>
      </g>
    </g>
    <g id="Group_5033" data-name="Group 5033">
      <g id="Group_5032" data-name="Group 5032" transform="translate(519.23 89.525)">
        <path id="Path_42404" data-name="Path 42404" d="M7.359-2.8h2.25V-21.953H4v3.828H.672v-6.484H22.609v6.484H19.281v-3.828H12.8V-2.8h2.531V0H7.359Zm0,0" fill="#fff"/>
      </g>
    </g>
    <g id="Group_5035" data-name="Group 5035">
      <g id="Group_5034" data-name="Group 5034" transform="translate(542.509 89.525)">
        <path id="Path_42405" data-name="Path 42405" d="M12.969.484A11.333,11.333,0,0,1,8.313-.453a11.809,11.809,0,0,1-3.766-2.7A11.793,11.793,0,0,1,2.031-7.312a14.707,14.707,0,0,1-.859-5A14.266,14.266,0,0,1,2.031-17.3a12.564,12.564,0,0,1,2.438-4.078A11.375,11.375,0,0,1,8.2-24.094a11.285,11.285,0,0,1,4.766-1,11.376,11.376,0,0,1,4.8,1,11.038,11.038,0,0,1,3.719,2.719A12.464,12.464,0,0,1,23.906-17.3a14.1,14.1,0,0,1,.875,4.984,14.121,14.121,0,0,1-.875,5A12.715,12.715,0,0,1,21.469-3.25,11.368,11.368,0,0,1,17.734-.516,11.309,11.309,0,0,1,12.969.484Zm0-3.016a7.6,7.6,0,0,0,3.5-.8,8.478,8.478,0,0,0,2.672-2.125,9.71,9.71,0,0,0,1.7-3.109,11.506,11.506,0,0,0,.609-3.75,11.472,11.472,0,0,0-.672-3.875,9.218,9.218,0,0,0-1.828-3.172,8.1,8.1,0,0,0-2.734-2.016,7.839,7.839,0,0,0-3.25-.7,7.65,7.65,0,0,0-3.5.8,8.266,8.266,0,0,0-2.687,2.141,9.844,9.844,0,0,0-1.7,3.109,11.621,11.621,0,0,0-.594,3.719A11.693,11.693,0,0,0,5.141-8.25,8.932,8.932,0,0,0,6.906-5.3,9.658,9.658,0,0,0,9.516-3.328,7.364,7.364,0,0,0,12.969-2.531Zm0,0" fill="#fff"/>
      </g>
    </g>
    <g id="Group_5037" data-name="Group 5037">
      <g id="Group_5036" data-name="Group 5036" transform="translate(568.428 89.525)">
        <path id="Path_42406" data-name="Path 42406" d="M0,0ZM0,0"/>
      </g>
    </g>
    <g id="Group_5039" data-name="Group 5039">
      <g id="Group_5038" data-name="Group 5038" transform="translate(230.202 136.025)">
        <path id="Path_42407" data-name="Path 42407" d="M2.328-24.609h7.984V-21.8H7.844v19h8.484a1.262,1.262,0,0,0,.516-.109,1.854,1.854,0,0,0,.469-.312,1.6,1.6,0,0,0,.344-.453,1.025,1.025,0,0,0,.141-.516V-7.3h3.078V0H2.328V-2.8H4.656v-19H2.328Zm0,0" fill="#fff"/>
      </g>
    </g>
    <g id="Group_5041" data-name="Group 5041">
      <g id="Group_5040" data-name="Group 5040" transform="translate(251.24 136.025)">
        <path id="Path_42408" data-name="Path 42408" d="M2.328-24.609H19.953v6.969H16.625V-21.8H7.844v7.859h7.391v2.8H7.844V-2.8h8.781V-6.953h3.328V0H2.328V-2.8H4.656v-19H2.328Zm0,0" fill="#fff"/>
      </g>
    </g>
    <g id="Group_5043" data-name="Group 5043">
      <g id="Group_5042" data-name="Group 5042" transform="translate(272.116 136.025)">
        <path id="Path_42409" data-name="Path 42409" d="M16.453-24.609h7.984V-21.8H22.313L14.328,0H9.875L2.016-21.8H-.156v-2.812H7.828V-21.8H5.688L12-2.828,18.766-21.8H16.453Zm0,0" fill="#fff"/>
      </g>
    </g>
    <g id="Group_5045" data-name="Group 5045">
      <g id="Group_5044" data-name="Group 5044" transform="translate(296.223 136.025)">
        <path id="Path_42410" data-name="Path 42410" d="M2.328-24.609H19.953v6.969H16.625V-21.8H7.844v7.859h7.391v2.8H7.844V-2.8h8.781V-6.953h3.328V0H2.328V-2.8H4.656v-19H2.328Zm0,0" fill="#fff"/>
      </g>
    </g>
    <g id="Group_5047" data-name="Group 5047">
      <g id="Group_5046" data-name="Group 5046" transform="translate(317.099 136.025)">
        <path id="Path_42411" data-name="Path 42411" d="M17.547-24.609h7.984V-21.8H23.438V0H19.281L7.844-20.406V-2.8h2.531V0H2.391V-2.8H4.656v-19H2.328v-2.844H8.953l11.234,20.2.125-.781V-21.8H17.547Zm0,0" fill="#fff"/>
      </g>
    </g>
    <g id="Group_5049" data-name="Group 5049">
      <g id="Group_5048" data-name="Group 5048" transform="translate(343.462 136.025)">
        <path id="Path_42412" data-name="Path 42412" d="M0,0ZM0,0" fill="#fff"/>
      </g>
    </g>
    <g id="Group_5051" data-name="Group 5051">
      <g id="Group_5050" data-name="Group 5050" transform="translate(350.735 136.025)">
        <path id="Path_42413" data-name="Path 42413" d="M17.547-24.609h7.984V-21.8H23.438V0H19.281L7.844-20.406V-2.8h2.531V0H2.391V-2.8H4.656v-19H2.328v-2.844H8.953l11.234,20.2.125-.781V-21.8H17.547Zm0,0" fill="#fff"/>
      </g>
    </g>
    <g id="Group_5053" data-name="Group 5053">
      <g id="Group_5052" data-name="Group 5052" transform="translate(377.098 136.025)">
        <path id="Path_42414" data-name="Path 42414" d="M2.328-24.609H19.953v6.969H16.625V-21.8H7.844v7.859h7.391v2.8H7.844V-2.8h8.781V-6.953h3.328V0H2.328V-2.8H4.656v-19H2.328Zm0,0" fill="#fff"/>
      </g>
    </g>
    <g id="Group_5055" data-name="Group 5055">
      <g id="Group_5054" data-name="Group 5054" transform="translate(397.974 136.025)">
        <path id="Path_42415" data-name="Path 42415" d="M7.359-2.8h2.25V-21.953H4v3.828H.672v-6.484H22.609v6.484H19.281v-3.828H12.8V-2.8h2.531V0H7.359Zm0,0" fill="#fff"/>
      </g>
    </g>
    <g id="Group_5057" data-name="Group 5057">
      <g id="Group_5056" data-name="Group 5056" transform="translate(421.253 136.025)">
        <path id="Path_42416" data-name="Path 42416" d="M33.406-24.609h8V-21.8H39.25L32.234,0H27.266L20.594-21.453,14.438,0H9.516L2.344-21.8H.156v-2.812h8V-21.8H6L11.969-2.891,18.25-24.609h4.859L29.8-2.891,35.859-21.8H33.406Zm0,0" fill="#fff"/>
      </g>
    </g>
    <g id="Group_5059" data-name="Group 5059">
      <g id="Group_5058" data-name="Group 5058" transform="translate(462.811 136.025)">
        <path id="Path_42417" data-name="Path 42417" d="M12.969.484A11.333,11.333,0,0,1,8.313-.453a11.809,11.809,0,0,1-3.766-2.7A11.793,11.793,0,0,1,2.031-7.312a14.707,14.707,0,0,1-.859-5A14.266,14.266,0,0,1,2.031-17.3a12.564,12.564,0,0,1,2.438-4.078A11.375,11.375,0,0,1,8.2-24.094a11.285,11.285,0,0,1,4.766-1,11.376,11.376,0,0,1,4.8,1,11.038,11.038,0,0,1,3.719,2.719A12.464,12.464,0,0,1,23.906-17.3a14.1,14.1,0,0,1,.875,4.984,14.121,14.121,0,0,1-.875,5A12.715,12.715,0,0,1,21.469-3.25,11.368,11.368,0,0,1,17.734-.516,11.309,11.309,0,0,1,12.969.484Zm0-3.016a7.6,7.6,0,0,0,3.5-.8,8.478,8.478,0,0,0,2.672-2.125,9.71,9.71,0,0,0,1.7-3.109,11.506,11.506,0,0,0,.609-3.75,11.472,11.472,0,0,0-.672-3.875,9.218,9.218,0,0,0-1.828-3.172,8.1,8.1,0,0,0-2.734-2.016,7.839,7.839,0,0,0-3.25-.7,7.65,7.65,0,0,0-3.5.8,8.266,8.266,0,0,0-2.687,2.141,9.844,9.844,0,0,0-1.7,3.109,11.621,11.621,0,0,0-.594,3.719A11.693,11.693,0,0,0,5.141-8.25,8.932,8.932,0,0,0,6.906-5.3,9.658,9.658,0,0,0,9.516-3.328,7.364,7.364,0,0,0,12.969-2.531Zm0,0" fill="#fff"/>
      </g>
    </g>
    <g id="Group_5061" data-name="Group 5061">
      <g id="Group_5060" data-name="Group 5060" transform="translate(488.735 136.025)">
        <path id="Path_42418" data-name="Path 42418" d="M2.328-24.609H12.563a10.153,10.153,0,0,1,3.031.438A6.845,6.845,0,0,1,18-22.906a5.648,5.648,0,0,1,1.578,2.078,6.953,6.953,0,0,1,.563,2.875,5.312,5.312,0,0,1-.328,1.828,6.436,6.436,0,0,1-.922,1.672,7.456,7.456,0,0,1-1.406,1.375,6.621,6.621,0,0,1-1.766.922,3.431,3.431,0,0,1,.813.516,4.312,4.312,0,0,1,.781.813,5.813,5.813,0,0,1,.672,1.078,6.862,6.862,0,0,1,.469,1.313l1.375,5.359h2.125L21.984,0h-4.8L15.359-7.484a5.8,5.8,0,0,0-1.531-2.953A4.022,4.022,0,0,0,11-11.391H7.844V-2.8h2.469V0H2.328V-2.8H4.656v-19H2.328ZM7.844-21.8v7.734h4.719A5.757,5.757,0,0,0,14.25-14.3a3.76,3.76,0,0,0,1.344-.734,3.293,3.293,0,0,0,.875-1.2,4.292,4.292,0,0,0,.313-1.687,3.694,3.694,0,0,0-1.109-2.859,5.05,5.05,0,0,0-3.5-1.016Zm0,0" fill="#fff"/>
      </g>
    </g>
    <g id="Group_5063" data-name="Group 5063">
      <g id="Group_5062" data-name="Group 5062" transform="translate(512.404 136.025)">
        <path id="Path_42419" data-name="Path 42419" d="M18.625-21.8v-2.812h5.641V-21.8H22.344L11.563-12.734,21.641-2.8h2.625V0H17.641V-2.8L7.875-12.562ZM2.359-24.609h7.984V-21.8h-2.5v19h2.469V0H2.328V-2.8H4.656v-19h-2.3Zm0,0" fill="#fff"/>
      </g>
    </g>
    <g id="Group_5064" data-name="Group 5064" clip-path="url(#clip-path-2)">
      <path id="Path_42420" data-name="Path 42420" d="M110.3,239.992H264.8v154.5H110.3Zm0,0" fill="#2B1867"/>
    </g>
    <g id="Group_5066" data-name="Group 5066">
      <g id="Group_5065" data-name="Group 5065" transform="translate(146.69 312.009)">
        <path id="Path_42422" data-name="Path 42422" d="M9.016-8.266A3.471,3.471,0,0,0,7.7-9.578a3.507,3.507,0,0,0-1.812-.484A3.484,3.484,0,0,0,4.313-9.7a3.957,3.957,0,0,0-1.219.969,4.556,4.556,0,0,0-.781,1.422,5.033,5.033,0,0,0-.281,1.688,5.084,5.084,0,0,0,.313,1.859,4.153,4.153,0,0,0,.813,1.359,4.324,4.324,0,0,0,1.188.891,3.25,3.25,0,0,0,1.547.359,3.6,3.6,0,0,0,2.016-.562,4.511,4.511,0,0,0,1.5-1.875l1.3.625A4.7,4.7,0,0,1,9.75-1.422,5.048,5.048,0,0,1,8.078-.234,5.194,5.194,0,0,1,5.891.219,5.217,5.217,0,0,1,3.781-.2a5.388,5.388,0,0,1-1.7-1.234A5.646,5.646,0,0,1,.922-3.344,6.684,6.684,0,0,1,.531-5.625,6.5,6.5,0,0,1,.922-7.891,5.864,5.864,0,0,1,2.031-9.734a5.2,5.2,0,0,1,1.7-1.25,5.165,5.165,0,0,1,2.156-.453,4.844,4.844,0,0,1,1.766.3,4.728,4.728,0,0,1,1.266.688,5.375,5.375,0,0,1,.906.875h.781v1.313Zm0,0" fill="#fff"/>
      </g>
    </g>
    <g id="Group_5068" data-name="Group 5068">
      <g id="Group_5067" data-name="Group 5067" transform="translate(157.854 312.009)">
        <path id="Path_42423" data-name="Path 42423" d="M5.359-7.672H7.828v6.406h.859V0H6.453V-.7a4.846,4.846,0,0,1-1.141.625,3.847,3.847,0,0,1-1.3.219A3.049,3.049,0,0,1,2.969-.031a2.156,2.156,0,0,1-.812-.516,2.353,2.353,0,0,1-.5-.891,4.258,4.258,0,0,1-.172-1.3V-6.391H.438V-7.672H2.922v4.781a1.91,1.91,0,0,0,.406,1.328,1.462,1.462,0,0,0,1.156.453,3.174,3.174,0,0,0,.953-.156,4.728,4.728,0,0,0,.953-.453V-6.391H5.359Zm0,0" fill="#fff"/>
      </g>
    </g>
    <g id="Group_5070" data-name="Group 5070">
      <g id="Group_5069" data-name="Group 5069" transform="translate(167.842 312.009)">
        <path id="Path_42424" data-name="Path 42424" d="M5.172-5.609a.917.917,0,0,0-.156-.531,1.026,1.026,0,0,0-.375-.344,1.583,1.583,0,0,0-.5-.2,2.7,2.7,0,0,0-.547-.062,2.364,2.364,0,0,0-.547.063,1.437,1.437,0,0,0-.437.188.85.85,0,0,0-.266.313.843.843,0,0,0-.094.406.846.846,0,0,0,.219.609,2.162,2.162,0,0,0,.781.406l1.484.531a2.905,2.905,0,0,1,1.375.859,2.061,2.061,0,0,1,.438,1.313,2.17,2.17,0,0,1-.2.938,2.022,2.022,0,0,1-.578.719,2.841,2.841,0,0,1-.906.469A3.687,3.687,0,0,1,3.7.234,3.252,3.252,0,0,1,2.25-.047a2.242,2.242,0,0,1-.875-.781H.609V-2.094H2.141a1.109,1.109,0,0,0,.125.547,1.128,1.128,0,0,0,.359.359,2.03,2.03,0,0,0,.516.219,2.762,2.762,0,0,0,.594.063,2.326,2.326,0,0,0,.547-.062,1.618,1.618,0,0,0,.469-.219,1.081,1.081,0,0,0,.313-.328.777.777,0,0,0,.125-.437.881.881,0,0,0-.234-.625,1.983,1.983,0,0,0-.812-.469L2.672-3.594a3.261,3.261,0,0,1-1.328-.812A1.8,1.8,0,0,1,.906-5.641a2.235,2.235,0,0,1,.172-.891,2.018,2.018,0,0,1,.531-.719,2.4,2.4,0,0,1,.844-.469,3.519,3.519,0,0,1,1.141-.172,3.476,3.476,0,0,1,1.359.234,2.5,2.5,0,0,1,1.016.781h.719v1.266Zm0,0" fill="#fff"/>
      </g>
    </g>
    <g id="Group_5072" data-name="Group 5072">
      <g id="Group_5071" data-name="Group 5071" transform="translate(175.189 312.009)">
        <path id="Path_42425" data-name="Path 42425" d="M2.953-7.672H4.766v1.125H2.953L2.922-2.125a2.364,2.364,0,0,0,.094.734A.661.661,0,0,0,3.359-1a1.185,1.185,0,0,0,.516.109,2.826,2.826,0,0,0,.547-.047,2.593,2.593,0,0,0,.516-.2l.328.922a4.1,4.1,0,0,1-.75.3,3.573,3.573,0,0,1-.922.109A2.8,2.8,0,0,1,2.719.063a1.513,1.513,0,0,1-.641-.406A1.9,1.9,0,0,1,1.7-1.125a4.758,4.758,0,0,1-.125-1.2l.016-4.219H.375V-7.672H1.609V-9.5l1.344-.641Zm0,0" fill="#fff"/>
      </g>
    </g>
    <g id="Group_5074" data-name="Group 5074">
      <g id="Group_5073" data-name="Group 5073" transform="translate(180.827 312.009)">
        <path id="Path_42426" data-name="Path 42426" d="M.641-3.828A4.618,4.618,0,0,1,.922-5.484a3.911,3.911,0,0,1,.8-1.281,3.4,3.4,0,0,1,1.219-.828,3.984,3.984,0,0,1,1.547-.3,3.984,3.984,0,0,1,1.547.3,3.374,3.374,0,0,1,1.219.813A3.814,3.814,0,0,1,8.031-5.5a4.618,4.618,0,0,1,.281,1.656A4.637,4.637,0,0,1,8.031-2.2a3.966,3.966,0,0,1-.781,1.3,3.661,3.661,0,0,1-1.219.844,3.984,3.984,0,0,1-1.547.3,4.021,4.021,0,0,1-1.562-.3A3.608,3.608,0,0,1,1.7-.891a3.9,3.9,0,0,1-.781-1.3A4.637,4.637,0,0,1,.641-3.828Zm1.453,0a3.54,3.54,0,0,0,.188,1.188,2.734,2.734,0,0,0,.516.906,2.245,2.245,0,0,0,.766.578,2.132,2.132,0,0,0,.922.2,2.22,2.22,0,0,0,.953-.2A2.283,2.283,0,0,0,6.2-1.734a2.577,2.577,0,0,0,.5-.906,3.54,3.54,0,0,0,.188-1.187A3.711,3.711,0,0,0,6.7-5.062a2.446,2.446,0,0,0-.5-.906,2.071,2.071,0,0,0-.766-.547A2.4,2.4,0,0,0,4.484-6.7a2.3,2.3,0,0,0-.922.188,2.206,2.206,0,0,0-.766.547,2.585,2.585,0,0,0-.516.906A3.711,3.711,0,0,0,2.094-3.828Zm0,0" fill="#fff"/>
      </g>
    </g>
    <g id="Group_5076" data-name="Group 5076">
      <g id="Group_5075" data-name="Group 5075" transform="translate(189.89 312.009)">
        <path id="Path_42427" data-name="Path 42427" d="M.734-7.672H3.188v.906H3.2a5.747,5.747,0,0,1,.516-.406A4.475,4.475,0,0,1,4.3-7.5a3.756,3.756,0,0,1,.641-.219,2.477,2.477,0,0,1,.688-.094A3.043,3.043,0,0,1,7.047-7.5a2.148,2.148,0,0,1,.938.953c.188-.164.379-.328.578-.484A3.8,3.8,0,0,1,9.2-7.422,4.429,4.429,0,0,1,9.922-7.7a2.811,2.811,0,0,1,.766-.109,3.505,3.505,0,0,1,1.125.172,2.146,2.146,0,0,1,.844.531,2.217,2.217,0,0,1,.516.891,3.872,3.872,0,0,1,.188,1.281v3.672h1.078V0H10.844V-1.266h1.078v-3.5a1.879,1.879,0,0,0-.437-1.344A1.708,1.708,0,0,0,10.2-6.562a2.432,2.432,0,0,0-1.016.234,3.2,3.2,0,0,0-.891.594v4.469H9.359V0H5.781V-1.266H6.875v-3.5a1.833,1.833,0,0,0-.453-1.344,1.744,1.744,0,0,0-1.281-.453,2.3,2.3,0,0,0-.984.234,4.589,4.589,0,0,0-.922.563v4.5H4.328V0H.734V-1.266H1.813V-6.391H.734Zm0,0" fill="#fff"/>
      </g>
    </g>
    <g id="Group_5078" data-name="Group 5078">
      <g id="Group_5077" data-name="Group 5077" transform="translate(205.057 312.009)">
        <path id="Path_42428" data-name="Path 42428" d="M2.047-3.656a3.422,3.422,0,0,0,.047.594,2.785,2.785,0,0,0,.141.516,2.083,2.083,0,0,0,.859,1.109,2.567,2.567,0,0,0,1.375.375,4.256,4.256,0,0,0,1.156-.156,5.566,5.566,0,0,0,1.2-.531l.547.938a5.6,5.6,0,0,1-1.516.781,5.148,5.148,0,0,1-1.578.25,4.173,4.173,0,0,1-1.453-.25A3.149,3.149,0,0,1,1.688-.812,3.662,3.662,0,0,1,.953-2.078,5.343,5.343,0,0,1,.688-3.859,5.214,5.214,0,0,1,.906-5.406a3.782,3.782,0,0,1,.688-1.281,3.2,3.2,0,0,1,1.125-.859A3.717,3.717,0,0,1,4.3-7.859a3.473,3.473,0,0,1,1.438.266,2.524,2.524,0,0,1,.938.688,2.97,2.97,0,0,1,.563,1A4.91,4.91,0,0,1,7.5-4.781a3.535,3.535,0,0,1,.047.578c.008.188.016.371.016.547ZM4.2-6.719a2.3,2.3,0,0,0-.844.141,1.623,1.623,0,0,0-.609.406,1.862,1.862,0,0,0-.406.625,3.474,3.474,0,0,0-.234.813H6.094a3.966,3.966,0,0,0-.141-.781,1.841,1.841,0,0,0-.328-.641,1.422,1.422,0,0,0-.578-.406A2.086,2.086,0,0,0,4.2-6.719Zm0,0" fill="#fff"/>
      </g>
    </g>
    <g id="Group_5080" data-name="Group 5080">
      <g id="Group_5079" data-name="Group 5079" transform="translate(213.751 312.009)">
        <path id="Path_42429" data-name="Path 42429" d="M6.25-6.047H4.844v-.469a1.5,1.5,0,0,0-.5.094,1.529,1.529,0,0,0-.469.281,1.816,1.816,0,0,0-.391.484,1.983,1.983,0,0,0-.25.688v3.7H4.547V0H.734V-1.266H1.8l.016-5.125H.734V-7.672H3.188v1.063a4.512,4.512,0,0,1,.3-.437,2.508,2.508,0,0,1,.375-.359,1.512,1.512,0,0,1,.453-.234,1.8,1.8,0,0,1,.531-.078H6.25Zm0,0" fill="#fff"/>
      </g>
    </g>
    <g id="Group_5082" data-name="Group 5082">
      <g id="Group_5081" data-name="Group 5081" transform="translate(220.853 312.009)">
        <path id="Path_42430" data-name="Path 42430" d="M5.172-5.609a.917.917,0,0,0-.156-.531,1.026,1.026,0,0,0-.375-.344,1.583,1.583,0,0,0-.5-.2,2.7,2.7,0,0,0-.547-.062,2.364,2.364,0,0,0-.547.063,1.437,1.437,0,0,0-.437.188.85.85,0,0,0-.266.313.843.843,0,0,0-.094.406.846.846,0,0,0,.219.609,2.162,2.162,0,0,0,.781.406l1.484.531a2.905,2.905,0,0,1,1.375.859,2.061,2.061,0,0,1,.438,1.313,2.17,2.17,0,0,1-.2.938,2.022,2.022,0,0,1-.578.719,2.841,2.841,0,0,1-.906.469A3.687,3.687,0,0,1,3.7.234,3.252,3.252,0,0,1,2.25-.047a2.242,2.242,0,0,1-.875-.781H.609V-2.094H2.141a1.109,1.109,0,0,0,.125.547,1.128,1.128,0,0,0,.359.359,2.03,2.03,0,0,0,.516.219,2.762,2.762,0,0,0,.594.063,2.326,2.326,0,0,0,.547-.062,1.618,1.618,0,0,0,.469-.219,1.081,1.081,0,0,0,.313-.328.777.777,0,0,0,.125-.437.881.881,0,0,0-.234-.625,1.983,1.983,0,0,0-.812-.469L2.672-3.594a3.261,3.261,0,0,1-1.328-.812A1.8,1.8,0,0,1,.906-5.641a2.235,2.235,0,0,1,.172-.891,2.018,2.018,0,0,1,.531-.719,2.4,2.4,0,0,1,.844-.469,3.519,3.519,0,0,1,1.141-.172,3.476,3.476,0,0,1,1.359.234,2.5,2.5,0,0,1,1.016.781h.719v1.266Zm0,0" fill="#fff"/>
      </g>
    </g>
    <g id="Group_5084" data-name="Group 5084">
      <g id="Group_5083" data-name="Group 5083" transform="translate(148.612 333.009)">
        <path id="Path_42431" data-name="Path 42431" d="M.141-7.672H2.578v1.281H2.219L3.563-1.5,5.391-7.672H6.547L8.3-1.516,9.7-6.391H9.266V-7.672h2.422v1.281h-.656L8.922.125H7.656L5.906-6,4.188.125h-1.3L.813-6.391H.141Zm0,0" fill="#fff"/>
      </g>
    </g>
    <g id="Group_5086" data-name="Group 5086">
      <g id="Group_5085" data-name="Group 5085" transform="translate(160.745 333.009)">
        <path id="Path_42432" data-name="Path 42432" d="M.641-3.828A4.618,4.618,0,0,1,.922-5.484a3.911,3.911,0,0,1,.8-1.281,3.4,3.4,0,0,1,1.219-.828,3.984,3.984,0,0,1,1.547-.3,3.984,3.984,0,0,1,1.547.3,3.374,3.374,0,0,1,1.219.813A3.814,3.814,0,0,1,8.031-5.5a4.618,4.618,0,0,1,.281,1.656A4.637,4.637,0,0,1,8.031-2.2a3.966,3.966,0,0,1-.781,1.3,3.661,3.661,0,0,1-1.219.844,3.984,3.984,0,0,1-1.547.3,4.021,4.021,0,0,1-1.562-.3A3.608,3.608,0,0,1,1.7-.891a3.9,3.9,0,0,1-.781-1.3A4.637,4.637,0,0,1,.641-3.828Zm1.453,0a3.54,3.54,0,0,0,.188,1.188,2.734,2.734,0,0,0,.516.906,2.245,2.245,0,0,0,.766.578,2.132,2.132,0,0,0,.922.2,2.22,2.22,0,0,0,.953-.2A2.283,2.283,0,0,0,6.2-1.734a2.577,2.577,0,0,0,.5-.906,3.54,3.54,0,0,0,.188-1.187A3.711,3.711,0,0,0,6.7-5.062a2.446,2.446,0,0,0-.5-.906,2.071,2.071,0,0,0-.766-.547A2.4,2.4,0,0,0,4.484-6.7a2.3,2.3,0,0,0-.922.188,2.206,2.206,0,0,0-.766.547,2.585,2.585,0,0,0-.516.906A3.711,3.711,0,0,0,2.094-3.828Zm0,0" fill="#fff"/>
      </g>
    </g>
    <g id="Group_5088" data-name="Group 5088">
      <g id="Group_5087" data-name="Group 5087" transform="translate(169.809 333.009)">
        <path id="Path_42433" data-name="Path 42433" d="M6.25-6.047H4.844v-.469a1.5,1.5,0,0,0-.5.094,1.529,1.529,0,0,0-.469.281,1.816,1.816,0,0,0-.391.484,1.983,1.983,0,0,0-.25.688v3.7H4.547V0H.734V-1.266H1.8l.016-5.125H.734V-7.672H3.188v1.063a4.512,4.512,0,0,1,.3-.437,2.508,2.508,0,0,1,.375-.359,1.512,1.512,0,0,1,.453-.234,1.8,1.8,0,0,1,.531-.078H6.25Zm0,0" fill="#fff"/>
      </g>
    </g>
    <g id="Group_5090" data-name="Group 5090">
      <g id="Group_5089" data-name="Group 5089" transform="translate(176.911 333.009)">
        <path id="Path_42434" data-name="Path 42434" d="M.688-11.516H3.172v10.25H4.328V0H.688V-1.266H1.8V-10.25H.688Zm0,0" fill="#fff"/>
      </g>
    </g>
    <g id="Group_5092" data-name="Group 5092">
      <g id="Group_5091" data-name="Group 5091" transform="translate(181.839 333.009)">
        <path id="Path_42435" data-name="Path 42435" d="M5.266-11.516H7.688v10.25H8.813V0h-2.5V-.625a2.82,2.82,0,0,1-.875.594,2.857,2.857,0,0,1-1.094.2A3.923,3.923,0,0,1,2.891-.094a3.468,3.468,0,0,1-1.172-.8A3.682,3.682,0,0,1,.953-2.172,5.185,5.185,0,0,1,.688-3.906,4.561,4.561,0,0,1,.953-5.516a3.549,3.549,0,0,1,.75-1.25,3.252,3.252,0,0,1,1.172-.8,3.865,3.865,0,0,1,1.531-.3,3.888,3.888,0,0,1,1.016.125,2.7,2.7,0,0,1,.891.438V-10.25H5.266ZM4.516-1.031A2.578,2.578,0,0,0,5.531-1.2a2.58,2.58,0,0,0,.781-.547v-4.3A2.39,2.39,0,0,0,5.453-6.5a3.527,3.527,0,0,0-.984-.141,2.3,2.3,0,0,0-.922.188,2.112,2.112,0,0,0-.75.531,2.571,2.571,0,0,0-.5.844,3.293,3.293,0,0,0-.187,1.156,4.081,4.081,0,0,0,.172,1.25,2.616,2.616,0,0,0,.5.906,2,2,0,0,0,.75.547A2.54,2.54,0,0,0,4.516-1.031Zm0,0" fill="#fff"/>
      </g>
    </g>
    <g id="Group_5094" data-name="Group 5094">
      <g id="Group_5093" data-name="Group 5093" transform="translate(191.22 333.009)">
        <path id="Path_42436" data-name="Path 42436" d="M.141-7.672H2.578v1.281H2.219L3.563-1.5,5.391-7.672H6.547L8.3-1.516,9.7-6.391H9.266V-7.672h2.422v1.281h-.656L8.922.125H7.656L5.906-6,4.188.125h-1.3L.813-6.391H.141Zm0,0" fill="#fff"/>
      </g>
    </g>
    <g id="Group_5096" data-name="Group 5096">
      <g id="Group_5095" data-name="Group 5095" transform="translate(203.354 333.009)">
        <path id="Path_42437" data-name="Path 42437" d="M.688-7.672h2.5v6.406H4.344V0H.7V-1.266H1.8V-6.391H.688Zm.844-2.719a.829.829,0,0,1,.078-.359.979.979,0,0,1,.2-.3,1.077,1.077,0,0,1,.313-.219.907.907,0,0,1,.375-.078.889.889,0,0,1,.359.078.9.9,0,0,1,.313.219,1.143,1.143,0,0,1,.2.3.889.889,0,0,1,.078.359A1.025,1.025,0,0,1,3.375-10a1.3,1.3,0,0,1-.2.313.853.853,0,0,1-.312.219,1.024,1.024,0,0,1-.359.063,1.05,1.05,0,0,1-.375-.062,1.006,1.006,0,0,1-.312-.219,1.1,1.1,0,0,1-.2-.312A.956.956,0,0,1,1.531-10.391Zm0,0" fill="#fff"/>
      </g>
    </g>
    <g id="Group_5098" data-name="Group 5098">
      <g id="Group_5097" data-name="Group 5097" transform="translate(208.215 333.009)">
        <path id="Path_42438" data-name="Path 42438" d="M5.266-11.516H7.688v10.25H8.813V0h-2.5V-.625a2.82,2.82,0,0,1-.875.594,2.857,2.857,0,0,1-1.094.2A3.923,3.923,0,0,1,2.891-.094a3.468,3.468,0,0,1-1.172-.8A3.682,3.682,0,0,1,.953-2.172,5.185,5.185,0,0,1,.688-3.906,4.561,4.561,0,0,1,.953-5.516a3.549,3.549,0,0,1,.75-1.25,3.252,3.252,0,0,1,1.172-.8,3.865,3.865,0,0,1,1.531-.3,3.888,3.888,0,0,1,1.016.125,2.7,2.7,0,0,1,.891.438V-10.25H5.266ZM4.516-1.031A2.578,2.578,0,0,0,5.531-1.2a2.58,2.58,0,0,0,.781-.547v-4.3A2.39,2.39,0,0,0,5.453-6.5a3.527,3.527,0,0,0-.984-.141,2.3,2.3,0,0,0-.922.188,2.112,2.112,0,0,0-.75.531,2.571,2.571,0,0,0-.5.844,3.293,3.293,0,0,0-.187,1.156,4.081,4.081,0,0,0,.172,1.25,2.616,2.616,0,0,0,.5.906,2,2,0,0,0,.75.547A2.54,2.54,0,0,0,4.516-1.031Zm0,0" fill="#fff"/>
      </g>
    </g>
    <g id="Group_5100" data-name="Group 5100">
      <g id="Group_5099" data-name="Group 5099" transform="translate(217.596 333.009)">
        <path id="Path_42439" data-name="Path 42439" d="M2.047-3.656a3.422,3.422,0,0,0,.047.594,2.785,2.785,0,0,0,.141.516,2.083,2.083,0,0,0,.859,1.109,2.567,2.567,0,0,0,1.375.375,4.256,4.256,0,0,0,1.156-.156,5.566,5.566,0,0,0,1.2-.531l.547.938a5.6,5.6,0,0,1-1.516.781,5.148,5.148,0,0,1-1.578.25,4.173,4.173,0,0,1-1.453-.25A3.149,3.149,0,0,1,1.688-.812,3.662,3.662,0,0,1,.953-2.078,5.343,5.343,0,0,1,.688-3.859,5.214,5.214,0,0,1,.906-5.406a3.782,3.782,0,0,1,.688-1.281,3.2,3.2,0,0,1,1.125-.859A3.717,3.717,0,0,1,4.3-7.859a3.473,3.473,0,0,1,1.438.266,2.524,2.524,0,0,1,.938.688,2.97,2.97,0,0,1,.563,1A4.91,4.91,0,0,1,7.5-4.781a3.535,3.535,0,0,1,.047.578c.008.188.016.371.016.547ZM4.2-6.719a2.3,2.3,0,0,0-.844.141,1.623,1.623,0,0,0-.609.406,1.862,1.862,0,0,0-.406.625,3.474,3.474,0,0,0-.234.813H6.094a3.966,3.966,0,0,0-.141-.781,1.841,1.841,0,0,0-.328-.641,1.422,1.422,0,0,0-.578-.406A2.086,2.086,0,0,0,4.2-6.719Zm0,0" fill="#fff"/>
      </g>
    </g>
    <g id="Group_5101" data-name="Group 5101" clip-path="url(#clip-path-3)">
      <path id="Path_42440" data-name="Path 42440" d="M500.762,239.992h154.5v154.5h-154.5Zm0,0" fill="#2B1867"/>
    </g>
    <g id="Group_5103" data-name="Group 5103">
      <g id="Group_5102" data-name="Group 5102" transform="translate(546.304 312.009)">
        <path id="Path_42442" data-name="Path 42442" d="M1.063-1.266H2.125V-9.937H1.063v-1.3l5.047.016a3.1,3.1,0,0,1,1.266.266,3.228,3.228,0,0,1,1.047.688,3.089,3.089,0,0,1,.7,1.047,3.136,3.136,0,0,1,.266,1.281,2.277,2.277,0,0,1-.406,1.313,2.748,2.748,0,0,1-1.141.938,4.751,4.751,0,0,1,.656.453,2.72,2.72,0,0,1,.5.563,2.315,2.315,0,0,1,.328.641,2.359,2.359,0,0,1,.109.688,3.474,3.474,0,0,1-.25,1.313,3.234,3.234,0,0,1-.7,1.063A3.246,3.246,0,0,1,7.453-.25,3.258,3.258,0,0,1,6.172,0H1.063ZM3.578-4.984v3.719H6.188a1.268,1.268,0,0,0,.656-.172,1.97,1.97,0,0,0,.531-.469,2.232,2.232,0,0,0,.359-.656A2.249,2.249,0,0,0,7.859-3.3a1.447,1.447,0,0,0-.141-.625,1.829,1.829,0,0,0-.344-.547,1.677,1.677,0,0,0-.531-.375,1.6,1.6,0,0,0-.656-.141Zm0-4.953v3.656H6.125a1.6,1.6,0,0,0,.656-.141A1.677,1.677,0,0,0,7.313-6.8a1.624,1.624,0,0,0,.359-.547,1.542,1.542,0,0,0,.141-.641,1.851,1.851,0,0,0-.141-.7,1.938,1.938,0,0,0-.359-.625,1.959,1.959,0,0,0-.547-.453,1.281,1.281,0,0,0-.641-.172Zm0,0" fill="#fff"/>
      </g>
    </g>
    <g id="Group_5105" data-name="Group 5105">
      <g id="Group_5104" data-name="Group 5104" transform="translate(556.307 312.009)">
        <path id="Path_42443" data-name="Path 42443" d="M5.359-7.672H7.828v6.406h.859V0H6.453V-.7a4.846,4.846,0,0,1-1.141.625,3.847,3.847,0,0,1-1.3.219A3.049,3.049,0,0,1,2.969-.031a2.156,2.156,0,0,1-.812-.516,2.353,2.353,0,0,1-.5-.891,4.258,4.258,0,0,1-.172-1.3V-6.391H.438V-7.672H2.922v4.781a1.91,1.91,0,0,0,.406,1.328,1.462,1.462,0,0,0,1.156.453,3.174,3.174,0,0,0,.953-.156,4.728,4.728,0,0,0,.953-.453V-6.391H5.359Zm0,0" fill="#fff"/>
      </g>
    </g>
    <g id="Group_5107" data-name="Group 5107">
      <g id="Group_5106" data-name="Group 5106" transform="translate(566.295 312.009)">
        <path id="Path_42444" data-name="Path 42444" d="M5.172-5.609a.917.917,0,0,0-.156-.531,1.026,1.026,0,0,0-.375-.344,1.583,1.583,0,0,0-.5-.2,2.7,2.7,0,0,0-.547-.062,2.364,2.364,0,0,0-.547.063,1.437,1.437,0,0,0-.437.188.85.85,0,0,0-.266.313.843.843,0,0,0-.094.406.846.846,0,0,0,.219.609,2.162,2.162,0,0,0,.781.406l1.484.531a2.905,2.905,0,0,1,1.375.859,2.061,2.061,0,0,1,.438,1.313,2.17,2.17,0,0,1-.2.938,2.022,2.022,0,0,1-.578.719,2.841,2.841,0,0,1-.906.469A3.687,3.687,0,0,1,3.7.234,3.252,3.252,0,0,1,2.25-.047a2.242,2.242,0,0,1-.875-.781H.609V-2.094H2.141a1.109,1.109,0,0,0,.125.547,1.128,1.128,0,0,0,.359.359,2.03,2.03,0,0,0,.516.219,2.762,2.762,0,0,0,.594.063,2.326,2.326,0,0,0,.547-.062,1.618,1.618,0,0,0,.469-.219,1.081,1.081,0,0,0,.313-.328.777.777,0,0,0,.125-.437.881.881,0,0,0-.234-.625,1.983,1.983,0,0,0-.812-.469L2.672-3.594a3.261,3.261,0,0,1-1.328-.812A1.8,1.8,0,0,1,.906-5.641a2.235,2.235,0,0,1,.172-.891,2.018,2.018,0,0,1,.531-.719,2.4,2.4,0,0,1,.844-.469,3.519,3.519,0,0,1,1.141-.172,3.476,3.476,0,0,1,1.359.234,2.5,2.5,0,0,1,1.016.781h.719v1.266Zm0,0" fill="#fff"/>
      </g>
    </g>
    <g id="Group_5109" data-name="Group 5109">
      <g id="Group_5108" data-name="Group 5108" transform="translate(573.642 312.009)">
        <path id="Path_42445" data-name="Path 42445" d="M.688-7.672h2.5v6.406H4.344V0H.7V-1.266H1.8V-6.391H.688Zm.844-2.719a.829.829,0,0,1,.078-.359.979.979,0,0,1,.2-.3,1.077,1.077,0,0,1,.313-.219.907.907,0,0,1,.375-.078.889.889,0,0,1,.359.078.9.9,0,0,1,.313.219,1.143,1.143,0,0,1,.2.3.889.889,0,0,1,.078.359A1.025,1.025,0,0,1,3.375-10a1.3,1.3,0,0,1-.2.313.853.853,0,0,1-.312.219,1.024,1.024,0,0,1-.359.063,1.05,1.05,0,0,1-.375-.062,1.006,1.006,0,0,1-.312-.219,1.1,1.1,0,0,1-.2-.312A.956.956,0,0,1,1.531-10.391Zm0,0" fill="#fff"/>
      </g>
    </g>
    <g id="Group_5111" data-name="Group 5111">
      <g id="Group_5110" data-name="Group 5110" transform="translate(578.503 312.009)">
        <path id="Path_42446" data-name="Path 42446" d="M5.781-1.266H6.875v-3.5a1.833,1.833,0,0,0-.453-1.344,1.744,1.744,0,0,0-1.281-.453,2.3,2.3,0,0,0-.984.234,4.589,4.589,0,0,0-.922.563v4.5H4.328V0H.734V-1.266H1.813V-6.391H.734V-7.672H3.188v.906H3.2a4.147,4.147,0,0,1,.516-.406A4.475,4.475,0,0,1,4.3-7.5a3.756,3.756,0,0,1,.641-.219,2.477,2.477,0,0,1,.688-.094,3.442,3.442,0,0,1,1.109.172,2.145,2.145,0,0,1,.844.531,2.334,2.334,0,0,1,.531.891A3.872,3.872,0,0,1,8.3-4.937v3.672H9.375V0H5.781Zm0,0" fill="#fff"/>
      </g>
    </g>
    <g id="Group_5113" data-name="Group 5113">
      <g id="Group_5112" data-name="Group 5112" transform="translate(588.609 312.009)">
        <path id="Path_42447" data-name="Path 42447" d="M2.047-3.656a3.422,3.422,0,0,0,.047.594,2.785,2.785,0,0,0,.141.516,2.083,2.083,0,0,0,.859,1.109,2.567,2.567,0,0,0,1.375.375,4.256,4.256,0,0,0,1.156-.156,5.566,5.566,0,0,0,1.2-.531l.547.938a5.6,5.6,0,0,1-1.516.781,5.148,5.148,0,0,1-1.578.25,4.173,4.173,0,0,1-1.453-.25A3.149,3.149,0,0,1,1.688-.812,3.662,3.662,0,0,1,.953-2.078,5.343,5.343,0,0,1,.688-3.859,5.214,5.214,0,0,1,.906-5.406a3.782,3.782,0,0,1,.688-1.281,3.2,3.2,0,0,1,1.125-.859A3.717,3.717,0,0,1,4.3-7.859a3.473,3.473,0,0,1,1.438.266,2.524,2.524,0,0,1,.938.688,2.97,2.97,0,0,1,.563,1A4.91,4.91,0,0,1,7.5-4.781a3.535,3.535,0,0,1,.047.578c.008.188.016.371.016.547ZM4.2-6.719a2.3,2.3,0,0,0-.844.141,1.623,1.623,0,0,0-.609.406,1.862,1.862,0,0,0-.406.625,3.474,3.474,0,0,0-.234.813H6.094a3.966,3.966,0,0,0-.141-.781,1.841,1.841,0,0,0-.328-.641,1.422,1.422,0,0,0-.578-.406A2.086,2.086,0,0,0,4.2-6.719Zm0,0" fill="#fff"/>
      </g>
    </g>
    <g id="Group_5115" data-name="Group 5115">
      <g id="Group_5114" data-name="Group 5114" transform="translate(597.303 312.009)">
        <path id="Path_42448" data-name="Path 42448" d="M5.172-5.609a.917.917,0,0,0-.156-.531,1.026,1.026,0,0,0-.375-.344,1.583,1.583,0,0,0-.5-.2,2.7,2.7,0,0,0-.547-.062,2.364,2.364,0,0,0-.547.063,1.437,1.437,0,0,0-.437.188.85.85,0,0,0-.266.313.843.843,0,0,0-.094.406.846.846,0,0,0,.219.609,2.162,2.162,0,0,0,.781.406l1.484.531a2.905,2.905,0,0,1,1.375.859,2.061,2.061,0,0,1,.438,1.313,2.17,2.17,0,0,1-.2.938,2.022,2.022,0,0,1-.578.719,2.841,2.841,0,0,1-.906.469A3.687,3.687,0,0,1,3.7.234,3.252,3.252,0,0,1,2.25-.047a2.242,2.242,0,0,1-.875-.781H.609V-2.094H2.141a1.109,1.109,0,0,0,.125.547,1.128,1.128,0,0,0,.359.359,2.03,2.03,0,0,0,.516.219,2.762,2.762,0,0,0,.594.063,2.326,2.326,0,0,0,.547-.062,1.618,1.618,0,0,0,.469-.219,1.081,1.081,0,0,0,.313-.328.777.777,0,0,0,.125-.437.881.881,0,0,0-.234-.625,1.983,1.983,0,0,0-.812-.469L2.672-3.594a3.261,3.261,0,0,1-1.328-.812A1.8,1.8,0,0,1,.906-5.641a2.235,2.235,0,0,1,.172-.891,2.018,2.018,0,0,1,.531-.719,2.4,2.4,0,0,1,.844-.469,3.519,3.519,0,0,1,1.141-.172,3.476,3.476,0,0,1,1.359.234,2.5,2.5,0,0,1,1.016.781h.719v1.266Zm0,0" fill="#fff"/>
      </g>
    </g>
    <g id="Group_5117" data-name="Group 5117">
      <g id="Group_5116" data-name="Group 5116" transform="translate(604.65 312.009)">
        <path id="Path_42449" data-name="Path 42449" d="M5.172-5.609a.917.917,0,0,0-.156-.531,1.026,1.026,0,0,0-.375-.344,1.583,1.583,0,0,0-.5-.2,2.7,2.7,0,0,0-.547-.062,2.364,2.364,0,0,0-.547.063,1.437,1.437,0,0,0-.437.188.85.85,0,0,0-.266.313.843.843,0,0,0-.094.406.846.846,0,0,0,.219.609,2.162,2.162,0,0,0,.781.406l1.484.531a2.905,2.905,0,0,1,1.375.859,2.061,2.061,0,0,1,.438,1.313,2.17,2.17,0,0,1-.2.938,2.022,2.022,0,0,1-.578.719,2.841,2.841,0,0,1-.906.469A3.687,3.687,0,0,1,3.7.234,3.252,3.252,0,0,1,2.25-.047a2.242,2.242,0,0,1-.875-.781H.609V-2.094H2.141a1.109,1.109,0,0,0,.125.547,1.128,1.128,0,0,0,.359.359,2.03,2.03,0,0,0,.516.219,2.762,2.762,0,0,0,.594.063,2.326,2.326,0,0,0,.547-.062,1.618,1.618,0,0,0,.469-.219,1.081,1.081,0,0,0,.313-.328.777.777,0,0,0,.125-.437.881.881,0,0,0-.234-.625,1.983,1.983,0,0,0-.812-.469L2.672-3.594a3.261,3.261,0,0,1-1.328-.812A1.8,1.8,0,0,1,.906-5.641a2.235,2.235,0,0,1,.172-.891,2.018,2.018,0,0,1,.531-.719,2.4,2.4,0,0,1,.844-.469,3.519,3.519,0,0,1,1.141-.172,3.476,3.476,0,0,1,1.359.234,2.5,2.5,0,0,1,1.016.781h.719v1.266Zm0,0" fill="#fff"/>
      </g>
    </g>
    <g id="Group_5119" data-name="Group 5119">
      <g id="Group_5118" data-name="Group 5118" transform="translate(538.652 333.009)">
        <path id="Path_42450" data-name="Path 42450" d="M0,0ZM0,0" fill="#fff"/>
      </g>
    </g>
    <g id="Group_5121" data-name="Group 5121">
      <g id="Group_5120" data-name="Group 5120" transform="translate(541.957 333.009)">
        <path id="Path_42451" data-name="Path 42451" d="M.141-7.672H2.578v1.281H2.219L3.563-1.5,5.391-7.672H6.547L8.3-1.516,9.7-6.391H9.266V-7.672h2.422v1.281h-.656L8.922.125H7.656L5.906-6,4.188.125h-1.3L.813-6.391H.141Zm0,0" fill="#fff"/>
      </g>
    </g>
    <g id="Group_5123" data-name="Group 5123">
      <g id="Group_5122" data-name="Group 5122" transform="translate(554.09 333.009)">
        <path id="Path_42452" data-name="Path 42452" d="M.641-3.828A4.618,4.618,0,0,1,.922-5.484a3.911,3.911,0,0,1,.8-1.281,3.4,3.4,0,0,1,1.219-.828,3.984,3.984,0,0,1,1.547-.3,3.984,3.984,0,0,1,1.547.3,3.374,3.374,0,0,1,1.219.813A3.814,3.814,0,0,1,8.031-5.5a4.618,4.618,0,0,1,.281,1.656A4.637,4.637,0,0,1,8.031-2.2a3.966,3.966,0,0,1-.781,1.3,3.661,3.661,0,0,1-1.219.844,3.984,3.984,0,0,1-1.547.3,4.021,4.021,0,0,1-1.562-.3A3.608,3.608,0,0,1,1.7-.891a3.9,3.9,0,0,1-.781-1.3A4.637,4.637,0,0,1,.641-3.828Zm1.453,0a3.54,3.54,0,0,0,.188,1.188,2.734,2.734,0,0,0,.516.906,2.245,2.245,0,0,0,.766.578,2.132,2.132,0,0,0,.922.2,2.22,2.22,0,0,0,.953-.2A2.283,2.283,0,0,0,6.2-1.734a2.577,2.577,0,0,0,.5-.906,3.54,3.54,0,0,0,.188-1.187A3.711,3.711,0,0,0,6.7-5.062a2.446,2.446,0,0,0-.5-.906,2.071,2.071,0,0,0-.766-.547A2.4,2.4,0,0,0,4.484-6.7a2.3,2.3,0,0,0-.922.188,2.206,2.206,0,0,0-.766.547,2.585,2.585,0,0,0-.516.906A3.711,3.711,0,0,0,2.094-3.828Zm0,0" fill="#fff"/>
      </g>
    </g>
    <g id="Group_5125" data-name="Group 5125">
      <g id="Group_5124" data-name="Group 5124" transform="translate(563.154 333.009)">
        <path id="Path_42453" data-name="Path 42453" d="M6.25-6.047H4.844v-.469a1.5,1.5,0,0,0-.5.094,1.529,1.529,0,0,0-.469.281,1.816,1.816,0,0,0-.391.484,1.983,1.983,0,0,0-.25.688v3.7H4.547V0H.734V-1.266H1.8l.016-5.125H.734V-7.672H3.188v1.063a4.512,4.512,0,0,1,.3-.437,2.508,2.508,0,0,1,.375-.359,1.512,1.512,0,0,1,.453-.234,1.8,1.8,0,0,1,.531-.078H6.25Zm0,0" fill="#fff"/>
      </g>
    </g>
    <g id="Group_5127" data-name="Group 5127">
      <g id="Group_5126" data-name="Group 5126" transform="translate(570.256 333.009)">
        <path id="Path_42454" data-name="Path 42454" d="M.688-11.516H3.172v10.25H4.328V0H.688V-1.266H1.8V-10.25H.688Zm0,0" fill="#fff"/>
      </g>
    </g>
    <g id="Group_5129" data-name="Group 5129">
      <g id="Group_5128" data-name="Group 5128" transform="translate(575.184 333.009)">
        <path id="Path_42455" data-name="Path 42455" d="M5.266-11.516H7.688v10.25H8.813V0h-2.5V-.625a2.82,2.82,0,0,1-.875.594,2.857,2.857,0,0,1-1.094.2A3.923,3.923,0,0,1,2.891-.094a3.468,3.468,0,0,1-1.172-.8A3.682,3.682,0,0,1,.953-2.172,5.185,5.185,0,0,1,.688-3.906,4.561,4.561,0,0,1,.953-5.516a3.549,3.549,0,0,1,.75-1.25,3.252,3.252,0,0,1,1.172-.8,3.865,3.865,0,0,1,1.531-.3,3.888,3.888,0,0,1,1.016.125,2.7,2.7,0,0,1,.891.438V-10.25H5.266ZM4.516-1.031A2.578,2.578,0,0,0,5.531-1.2a2.58,2.58,0,0,0,.781-.547v-4.3A2.39,2.39,0,0,0,5.453-6.5a3.527,3.527,0,0,0-.984-.141,2.3,2.3,0,0,0-.922.188,2.112,2.112,0,0,0-.75.531,2.571,2.571,0,0,0-.5.844,3.293,3.293,0,0,0-.187,1.156,4.081,4.081,0,0,0,.172,1.25,2.616,2.616,0,0,0,.5.906,2,2,0,0,0,.75.547A2.54,2.54,0,0,0,4.516-1.031Zm0,0" fill="#fff"/>
      </g>
    </g>
    <g id="Group_5131" data-name="Group 5131">
      <g id="Group_5130" data-name="Group 5130" transform="translate(584.565 333.009)">
        <path id="Path_42456" data-name="Path 42456" d="M.141-7.672H2.578v1.281H2.219L3.563-1.5,5.391-7.672H6.547L8.3-1.516,9.7-6.391H9.266V-7.672h2.422v1.281h-.656L8.922.125H7.656L5.906-6,4.188.125h-1.3L.813-6.391H.141Zm0,0" fill="#fff"/>
      </g>
    </g>
    <g id="Group_5133" data-name="Group 5133">
      <g id="Group_5132" data-name="Group 5132" transform="translate(596.699 333.009)">
        <path id="Path_42457" data-name="Path 42457" d="M.688-7.672h2.5v6.406H4.344V0H.7V-1.266H1.8V-6.391H.688Zm.844-2.719a.829.829,0,0,1,.078-.359.979.979,0,0,1,.2-.3,1.077,1.077,0,0,1,.313-.219.907.907,0,0,1,.375-.078.889.889,0,0,1,.359.078.9.9,0,0,1,.313.219,1.143,1.143,0,0,1,.2.3.889.889,0,0,1,.078.359A1.025,1.025,0,0,1,3.375-10a1.3,1.3,0,0,1-.2.313.853.853,0,0,1-.312.219,1.024,1.024,0,0,1-.359.063,1.05,1.05,0,0,1-.375-.062,1.006,1.006,0,0,1-.312-.219,1.1,1.1,0,0,1-.2-.312A.956.956,0,0,1,1.531-10.391Zm0,0" fill="#fff"/>
      </g>
    </g>
    <g id="Group_5135" data-name="Group 5135">
      <g id="Group_5134" data-name="Group 5134" transform="translate(601.56 333.009)">
        <path id="Path_42458" data-name="Path 42458" d="M5.266-11.516H7.688v10.25H8.813V0h-2.5V-.625a2.82,2.82,0,0,1-.875.594,2.857,2.857,0,0,1-1.094.2A3.923,3.923,0,0,1,2.891-.094a3.468,3.468,0,0,1-1.172-.8A3.682,3.682,0,0,1,.953-2.172,5.185,5.185,0,0,1,.688-3.906,4.561,4.561,0,0,1,.953-5.516a3.549,3.549,0,0,1,.75-1.25,3.252,3.252,0,0,1,1.172-.8,3.865,3.865,0,0,1,1.531-.3,3.888,3.888,0,0,1,1.016.125,2.7,2.7,0,0,1,.891.438V-10.25H5.266ZM4.516-1.031A2.578,2.578,0,0,0,5.531-1.2a2.58,2.58,0,0,0,.781-.547v-4.3A2.39,2.39,0,0,0,5.453-6.5a3.527,3.527,0,0,0-.984-.141,2.3,2.3,0,0,0-.922.188,2.112,2.112,0,0,0-.75.531,2.571,2.571,0,0,0-.5.844,3.293,3.293,0,0,0-.187,1.156,4.081,4.081,0,0,0,.172,1.25,2.616,2.616,0,0,0,.5.906,2,2,0,0,0,.75.547A2.54,2.54,0,0,0,4.516-1.031Zm0,0" fill="#fff"/>
      </g>
    </g>
    <g id="Group_5137" data-name="Group 5137">
      <g id="Group_5136" data-name="Group 5136" transform="translate(610.941 333.009)">
        <path id="Path_42459" data-name="Path 42459" d="M2.047-3.656a3.422,3.422,0,0,0,.047.594,2.785,2.785,0,0,0,.141.516,2.083,2.083,0,0,0,.859,1.109,2.567,2.567,0,0,0,1.375.375,4.256,4.256,0,0,0,1.156-.156,5.566,5.566,0,0,0,1.2-.531l.547.938a5.6,5.6,0,0,1-1.516.781,5.148,5.148,0,0,1-1.578.25,4.173,4.173,0,0,1-1.453-.25A3.149,3.149,0,0,1,1.688-.812,3.662,3.662,0,0,1,.953-2.078,5.343,5.343,0,0,1,.688-3.859,5.214,5.214,0,0,1,.906-5.406a3.782,3.782,0,0,1,.688-1.281,3.2,3.2,0,0,1,1.125-.859A3.717,3.717,0,0,1,4.3-7.859a3.473,3.473,0,0,1,1.438.266,2.524,2.524,0,0,1,.938.688,2.97,2.97,0,0,1,.563,1A4.91,4.91,0,0,1,7.5-4.781a3.535,3.535,0,0,1,.047.578c.008.188.016.371.016.547ZM4.2-6.719a2.3,2.3,0,0,0-.844.141,1.623,1.623,0,0,0-.609.406,1.862,1.862,0,0,0-.406.625,3.474,3.474,0,0,0-.234.813H6.094a3.966,3.966,0,0,0-.141-.781,1.841,1.841,0,0,0-.328-.641,1.422,1.422,0,0,0-.578-.406A2.086,2.086,0,0,0,4.2-6.719Zm0,0" fill="#fff"/>
      </g>
    </g>
    <g id="Group_5139" data-name="Group 5139">
      <g id="Group_5138" data-name="Group 5138" transform="translate(232.636 513.562)">
        <path id="Path_42460" data-name="Path 42460" d="M7.469.281A6.506,6.506,0,0,1,4.781-.266,6.79,6.79,0,0,1,2.609-1.812,6.827,6.827,0,0,1,1.156-4.2,8.629,8.629,0,0,1,.672-7.078a8.134,8.134,0,0,1,.5-2.875,7.13,7.13,0,0,1,1.391-2.328,6.638,6.638,0,0,1,2.156-1.578,6.507,6.507,0,0,1,2.75-.578,6.52,6.52,0,0,1,2.75.578,6.535,6.535,0,0,1,2.141,1.578A6.87,6.87,0,0,1,13.75-9.953a8.224,8.224,0,0,1,.5,2.875,8.192,8.192,0,0,1-.5,2.875,7.212,7.212,0,0,1-1.406,2.344A6.547,6.547,0,0,1,10.2-.3,6.486,6.486,0,0,1,7.469.281Zm0-1.734a4.318,4.318,0,0,0,2-.453A4.821,4.821,0,0,0,11-3.141a5.479,5.479,0,0,0,.984-1.781,6.538,6.538,0,0,0,.359-2.156,6.578,6.578,0,0,0-.391-2.234,5.206,5.206,0,0,0-1.062-1.828A4.749,4.749,0,0,0,9.328-12.3,4.456,4.456,0,0,0,7.469-12.7a4.348,4.348,0,0,0-2.031.469,4.826,4.826,0,0,0-1.547,1.219,5.558,5.558,0,0,0-.969,1.8,6.608,6.608,0,0,0-.344,2.141,6.83,6.83,0,0,0,.375,2.344A5.049,5.049,0,0,0,3.969-3.047a5.994,5.994,0,0,0,1.5,1.141A4.251,4.251,0,0,0,7.469-1.453Zm0,0" fill="#fff"/>
      </g>
    </g>
    <g id="Group_5141" data-name="Group 5141">
      <g id="Group_5140" data-name="Group 5140" transform="translate(247.54 513.562)">
        <path id="Path_42461" data-name="Path 42461" d="M.188-9.672H3.25v1.609H2.8L4.484-1.891,6.813-9.672H8.266l2.219,7.75L12.25-8.062h-.562V-9.672H14.75v1.609h-.828L11.266.156H9.656L7.469-7.578,5.281.156H3.656L1.016-8.062H.188Zm0,0" fill="#fff"/>
      </g>
    </g>
    <g id="Group_5143" data-name="Group 5143">
      <g id="Group_5142" data-name="Group 5142" transform="translate(262.846 513.562)">
        <path id="Path_42462" data-name="Path 42462" d="M7.3-1.609H8.672V-6.016A2.265,2.265,0,0,0,8.094-7.7a2.157,2.157,0,0,0-1.609-.578,2.889,2.889,0,0,0-1.234.3,5.979,5.979,0,0,0-1.156.7v5.672H5.453V0H.938V-1.609H2.281V-8.062H.938V-9.672H4.016v1.141h.016a5.952,5.952,0,0,1,.656-.516,5.152,5.152,0,0,1,.734-.422,5.671,5.671,0,0,1,.8-.281,3.58,3.58,0,0,1,.875-.109A4.284,4.284,0,0,1,8.5-9.641a2.87,2.87,0,0,1,1.063.656,2.921,2.921,0,0,1,.672,1.125,4.834,4.834,0,0,1,.25,1.625v4.625h1.344V0H7.3Zm0,0" fill="#fff"/>
      </g>
    </g>
    <g id="Group_5145" data-name="Group 5145">
      <g id="Group_5144" data-name="Group 5144" transform="translate(275.594 513.562)">
        <path id="Path_42463" data-name="Path 42463" d="M0,0ZM0,0" fill="#fff"/>
      </g>
    </g>
    <g id="Group_5147" data-name="Group 5147">
      <g id="Group_5146" data-name="Group 5146" transform="translate(279.775 513.562)">
        <path id="Path_42464" data-name="Path 42464" d="M4.234-1.609h1.3V-12.625H2.3v2.2H.391v-3.734H13.016v3.734H11.094v-2.2H7.359V-1.609H8.813V0H4.234Zm0,0" fill="#fff"/>
      </g>
    </g>
    <g id="Group_5149" data-name="Group 5149">
      <g id="Group_5148" data-name="Group 5148" transform="translate(293.158 513.562)">
        <path id="Path_42465" data-name="Path 42465" d="M1.063-14.531H4.125v5.922h.063a3.107,3.107,0,0,1,.594-.484A5,5,0,0,1,5.5-9.5a4.234,4.234,0,0,1,.766-.266,3.724,3.724,0,0,1,.844-.094,4.284,4.284,0,0,1,1.406.219,2.87,2.87,0,0,1,1.063.656,2.92,2.92,0,0,1,.672,1.125,4.831,4.831,0,0,1,.25,1.625v4.625h1.453V0H7.359V-1.609H8.688V-6.016A2.292,2.292,0,0,0,8.125-7.7,2.177,2.177,0,0,0,6.5-8.281,2.941,2.941,0,0,0,5.281-8a5.691,5.691,0,0,0-1.156.719v5.672H5.531V0H.938V-1.609H2.391V-12.922H1.063Zm0,0" fill="#fff"/>
      </g>
    </g>
    <g id="Group_5151" data-name="Group 5151">
      <g id="Group_5150" data-name="Group 5150" transform="translate(305.795 513.562)">
        <path id="Path_42466" data-name="Path 42466" d="M2.578-4.609a4.043,4.043,0,0,0,.063.75,3.41,3.41,0,0,0,.172.641A2.738,2.738,0,0,0,3.906-1.8a3.242,3.242,0,0,0,1.734.469,5.332,5.332,0,0,0,1.469-.2,7.1,7.1,0,0,0,1.5-.672l.7,1.188a7.407,7.407,0,0,1-1.922.969,6.434,6.434,0,0,1-2,.313A4.947,4.947,0,0,1,3.578-.062a3.932,3.932,0,0,1-1.437-.969A4.509,4.509,0,0,1,1.2-2.625a6.677,6.677,0,0,1-.344-2.25,6.67,6.67,0,0,1,.281-1.953,4.687,4.687,0,0,1,.875-1.609A4.066,4.066,0,0,1,3.438-9.516a4.544,4.544,0,0,1,1.984-.406,4.384,4.384,0,0,1,1.813.328,3.388,3.388,0,0,1,1.2.875,3.721,3.721,0,0,1,.7,1.25,7.641,7.641,0,0,1,.328,1.422c.031.242.051.484.063.734s.016.477.016.7ZM5.3-8.469A3.015,3.015,0,0,0,4.234-8.3a2.2,2.2,0,0,0-.781.5,2.277,2.277,0,0,0-.5.781,4.992,4.992,0,0,0-.281,1.047H7.688a4.785,4.785,0,0,0-.187-1,2.043,2.043,0,0,0-.406-.781,1.9,1.9,0,0,0-.719-.531A2.748,2.748,0,0,0,5.3-8.469Zm0,0" fill="#fff"/>
      </g>
    </g>
    <g id="Group_5153" data-name="Group 5153">
      <g id="Group_5152" data-name="Group 5152" transform="translate(316.761 513.562)">
        <path id="Path_42467" data-name="Path 42467" d="M0,0ZM0,0" fill="#fff"/>
      </g>
    </g>
    <g id="Group_5155" data-name="Group 5155">
      <g id="Group_5154" data-name="Group 5154" transform="translate(320.942 513.562)">
        <path id="Path_42468" data-name="Path 42468" d="M1.328-14.156H5.938v1.609H4.516V-1.609H9.391a.711.711,0,0,0,.3-.062,1.015,1.015,0,0,0,.266-.187.967.967,0,0,0,.2-.25.675.675,0,0,0,.078-.3V-4.187h1.781V0H1.328V-1.609H2.688V-12.547H1.328Zm0,0" fill="#fff"/>
      </g>
    </g>
    <g id="Group_5157" data-name="Group 5157">
      <g id="Group_5156" data-name="Group 5156" transform="translate(333.037 513.562)">
        <path id="Path_42469" data-name="Path 42469" d="M2.578-4.609a4.043,4.043,0,0,0,.063.75,3.41,3.41,0,0,0,.172.641A2.738,2.738,0,0,0,3.906-1.8a3.242,3.242,0,0,0,1.734.469,5.332,5.332,0,0,0,1.469-.2,7.1,7.1,0,0,0,1.5-.672l.7,1.188a7.407,7.407,0,0,1-1.922.969,6.434,6.434,0,0,1-2,.313A4.947,4.947,0,0,1,3.578-.062a3.932,3.932,0,0,1-1.437-.969A4.509,4.509,0,0,1,1.2-2.625a6.677,6.677,0,0,1-.344-2.25,6.67,6.67,0,0,1,.281-1.953,4.687,4.687,0,0,1,.875-1.609A4.066,4.066,0,0,1,3.438-9.516a4.544,4.544,0,0,1,1.984-.406,4.384,4.384,0,0,1,1.813.328,3.388,3.388,0,0,1,1.2.875,3.721,3.721,0,0,1,.7,1.25,7.641,7.641,0,0,1,.328,1.422c.031.242.051.484.063.734s.016.477.016.7ZM5.3-8.469A3.015,3.015,0,0,0,4.234-8.3a2.2,2.2,0,0,0-.781.5,2.277,2.277,0,0,0-.5.781,4.992,4.992,0,0,0-.281,1.047H7.688a4.785,4.785,0,0,0-.187-1,2.043,2.043,0,0,0-.406-.781,1.9,1.9,0,0,0-.719-.531A2.748,2.748,0,0,0,5.3-8.469Zm0,0" fill="#fff"/>
      </g>
    </g>
    <g id="Group_5159" data-name="Group 5159">
      <g id="Group_5158" data-name="Group 5158" transform="translate(344.003 513.562)">
        <path id="Path_42470" data-name="Path 42470" d="M.188-9.672H3.531v1.609H2.625L5.016-1.406,7.344-8.062H6.766V-9.672H9.828v1.609H9L5.828.156H4.109L.953-8.062H.188Zm0,0" fill="#fff"/>
      </g>
    </g>
    <g id="Group_5161" data-name="Group 5161">
      <g id="Group_5160" data-name="Group 5160" transform="translate(354.269 513.562)">
        <path id="Path_42471" data-name="Path 42471" d="M2.578-4.609a4.043,4.043,0,0,0,.063.75,3.41,3.41,0,0,0,.172.641A2.738,2.738,0,0,0,3.906-1.8a3.242,3.242,0,0,0,1.734.469,5.332,5.332,0,0,0,1.469-.2,7.1,7.1,0,0,0,1.5-.672l.7,1.188a7.407,7.407,0,0,1-1.922.969,6.434,6.434,0,0,1-2,.313A4.947,4.947,0,0,1,3.578-.062a3.932,3.932,0,0,1-1.437-.969A4.509,4.509,0,0,1,1.2-2.625a6.677,6.677,0,0,1-.344-2.25,6.67,6.67,0,0,1,.281-1.953,4.687,4.687,0,0,1,.875-1.609A4.066,4.066,0,0,1,3.438-9.516a4.544,4.544,0,0,1,1.984-.406,4.384,4.384,0,0,1,1.813.328,3.388,3.388,0,0,1,1.2.875,3.721,3.721,0,0,1,.7,1.25,7.641,7.641,0,0,1,.328,1.422c.031.242.051.484.063.734s.016.477.016.7ZM5.3-8.469A3.015,3.015,0,0,0,4.234-8.3a2.2,2.2,0,0,0-.781.5,2.277,2.277,0,0,0-.5.781,4.992,4.992,0,0,0-.281,1.047H7.688a4.785,4.785,0,0,0-.187-1,2.043,2.043,0,0,0-.406-.781,1.9,1.9,0,0,0-.719-.531A2.748,2.748,0,0,0,5.3-8.469Zm0,0" fill="#fff"/>
      </g>
    </g>
    <g id="Group_5163" data-name="Group 5163">
      <g id="Group_5162" data-name="Group 5162" transform="translate(365.235 513.562)">
        <path id="Path_42472" data-name="Path 42472" d="M7.3-1.609H8.672V-6.016A2.265,2.265,0,0,0,8.094-7.7a2.157,2.157,0,0,0-1.609-.578,2.889,2.889,0,0,0-1.234.3,5.979,5.979,0,0,0-1.156.7v5.672H5.453V0H.938V-1.609H2.281V-8.062H.938V-9.672H4.016v1.141h.016a5.952,5.952,0,0,1,.656-.516,5.152,5.152,0,0,1,.734-.422,5.671,5.671,0,0,1,.8-.281,3.58,3.58,0,0,1,.875-.109A4.284,4.284,0,0,1,8.5-9.641a2.87,2.87,0,0,1,1.063.656,2.921,2.921,0,0,1,.672,1.125,4.834,4.834,0,0,1,.25,1.625v4.625h1.344V0H7.3Zm0,0" fill="#fff"/>
      </g>
    </g>
    <g id="Group_5165" data-name="Group 5165">
      <g id="Group_5164" data-name="Group 5164" transform="translate(377.983 513.562)">
        <path id="Path_42473" data-name="Path 42473" d="M0,0ZM0,0" fill="#fff"/>
      </g>
    </g>
    <g id="Group_5167" data-name="Group 5167">
      <g id="Group_5166" data-name="Group 5166" transform="translate(382.164 513.562)">
        <path id="Path_42474" data-name="Path 42474" d="M6.109.172A5.226,5.226,0,0,1,3.578-.391,4.372,4.372,0,0,1,1.953-1.922a6.913,6.913,0,0,1-.875-2.3,15.228,15.228,0,0,1-.25-2.844,12.62,12.62,0,0,1,.344-3.016,6.781,6.781,0,0,1,.953-2.25,5.66,5.66,0,0,1,1.516-1.453,4.534,4.534,0,0,1,2.5-.594,5.761,5.761,0,0,1,2.5.484,3.955,3.955,0,0,1,1.641,1.453,6.244,6.244,0,0,1,.906,2.375,15.876,15.876,0,0,1,.266,2.953,14.561,14.561,0,0,1-.266,2.844,6.586,6.586,0,0,1-.875,2.312A4.574,4.574,0,0,1,8.656-.391,5.216,5.216,0,0,1,6.109.172Zm0-1.672a3.187,3.187,0,0,0,1.766-.437,2.636,2.636,0,0,0,1-1.2,7.506,7.506,0,0,0,.516-1.781,13.425,13.425,0,0,0,.172-2.187A15.639,15.639,0,0,0,9.422-9.25a5.858,5.858,0,0,0-.5-1.8,3.155,3.155,0,0,0-1.047-1.266,2.972,2.972,0,0,0-1.734-.469,2.975,2.975,0,0,0-1.766.469,3.087,3.087,0,0,0-.969,1.125,6.822,6.822,0,0,0-.5,1.813,14.86,14.86,0,0,0-.172,2.266,20.39,20.39,0,0,0,.109,2.188,5.712,5.712,0,0,0,.484,1.781,2.8,2.8,0,0,0,1.031,1.2A3.141,3.141,0,0,0,6.109-1.5Zm0,0" fill="#fff"/>
      </g>
    </g>
    <g id="Group_5169" data-name="Group 5169">
      <g id="Group_5168" data-name="Group 5168" transform="translate(394.576 513.562)">
        <path id="Path_42475" data-name="Path 42475" d="M.7-10.891a3.1,3.1,0,0,1,.234-1.2,3.019,3.019,0,0,1,.656-.984,3.193,3.193,0,0,1,1-.672,3.35,3.35,0,0,1,1.3-.25,3.244,3.244,0,0,1,1.281.25,3.177,3.177,0,0,1,1.016.672,3.019,3.019,0,0,1,.656.984,2.976,2.976,0,0,1,.25,1.2A3.052,3.052,0,0,1,6.859-9.7a3.173,3.173,0,0,1-.656,1,2.965,2.965,0,0,1-1,.672,3.344,3.344,0,0,1-1.312.25,3.317,3.317,0,0,1-1.312-.25A3.073,3.073,0,0,1,1.563-8.7a3.269,3.269,0,0,1-.641-1A3.189,3.189,0,0,1,.7-10.891Zm3.188-1.578a1.609,1.609,0,0,0-.625.125,1.421,1.421,0,0,0-.516.328,1.412,1.412,0,0,0-.344.5,1.489,1.489,0,0,0-.125.625,1.493,1.493,0,0,0,.125.609,1.511,1.511,0,0,0,.344.516,1.512,1.512,0,0,0,.516.344,1.54,1.54,0,0,0,.625.125A1.442,1.442,0,0,0,4.5-9.422a1.759,1.759,0,0,0,.516-.328,1.633,1.633,0,0,0,.344-.516,1.608,1.608,0,0,0,.125-.625,1.552,1.552,0,0,0-.125-.625,1.521,1.521,0,0,0-.344-.5,1.49,1.49,0,0,0-.516-.328A1.505,1.505,0,0,0,3.891-12.469Zm7.8-1.906h1.828L3.8.156H1.984ZM8.781-3.016A3.066,3.066,0,0,1,9.016-4.2a3.02,3.02,0,0,1,.656-.984,3.359,3.359,0,0,1,1.016-.672,3.351,3.351,0,0,1,1.3-.25,3.245,3.245,0,0,1,1.281.25,3.177,3.177,0,0,1,1.016.672,3.02,3.02,0,0,1,.656.984,3.065,3.065,0,0,1,.234,1.187,3.086,3.086,0,0,1-.234,1.2,2.861,2.861,0,0,1-.641.984,3.185,3.185,0,0,1-1,.688,3.416,3.416,0,0,1-1.312.25,3.424,3.424,0,0,1-1.328-.25,3.373,3.373,0,0,1-1-.687,3.106,3.106,0,0,1-.641-.984A3.087,3.087,0,0,1,8.781-3.016Zm3.2-1.562a1.608,1.608,0,0,0-.625.125,1.42,1.42,0,0,0-.516.328,1.422,1.422,0,0,0-.344.484,1.49,1.49,0,0,0-.125.625,1.541,1.541,0,0,0,.125.625,1.51,1.51,0,0,0,.344.516,1.511,1.511,0,0,0,.516.344,1.54,1.54,0,0,0,.625.125,1.443,1.443,0,0,0,.609-.125,1.413,1.413,0,0,0,.5-.344,1.633,1.633,0,0,0,.344-.516,1.609,1.609,0,0,0,.125-.625,1.553,1.553,0,0,0-.125-.625,1.538,1.538,0,0,0-.344-.484,1.329,1.329,0,0,0-.5-.328A1.5,1.5,0,0,0,11.984-4.578Zm0,0" fill="#fff"/>
      </g>
    </g>
    <g id="Group_5171" data-name="Group 5171">
      <g id="Group_5170" data-name="Group 5170" transform="translate(410.722 513.562)">
        <path id="Path_42476" data-name="Path 42476" d="M0,0ZM0,0" fill="#fff"/>
      </g>
    </g>
    <g id="Group_5173" data-name="Group 5173">
      <g id="Group_5172" data-name="Group 5172" transform="translate(414.903 513.562)">
        <path id="Path_42477" data-name="Path 42477" d="M1.328-14.156H11.484v4H9.563v-2.391H4.516V-8H9.375v1.578H4.516v4.812H5.938V0H1.328V-1.609H2.688V-12.547H1.328Zm0,0" fill="#fff"/>
      </g>
    </g>
    <g id="Group_5175" data-name="Group 5175">
      <g id="Group_5174" data-name="Group 5174" transform="translate(426.503 513.562)">
        <path id="Path_42478" data-name="Path 42478" d="M2.578-4.609a4.043,4.043,0,0,0,.063.75,3.41,3.41,0,0,0,.172.641A2.738,2.738,0,0,0,3.906-1.8a3.242,3.242,0,0,0,1.734.469,5.332,5.332,0,0,0,1.469-.2,7.1,7.1,0,0,0,1.5-.672l.7,1.188a7.407,7.407,0,0,1-1.922.969,6.434,6.434,0,0,1-2,.313A4.947,4.947,0,0,1,3.578-.062a3.932,3.932,0,0,1-1.437-.969A4.509,4.509,0,0,1,1.2-2.625a6.677,6.677,0,0,1-.344-2.25,6.67,6.67,0,0,1,.281-1.953,4.687,4.687,0,0,1,.875-1.609A4.066,4.066,0,0,1,3.438-9.516a4.544,4.544,0,0,1,1.984-.406,4.384,4.384,0,0,1,1.813.328,3.388,3.388,0,0,1,1.2.875,3.721,3.721,0,0,1,.7,1.25,7.641,7.641,0,0,1,.328,1.422c.031.242.051.484.063.734s.016.477.016.7ZM5.3-8.469A3.015,3.015,0,0,0,4.234-8.3a2.2,2.2,0,0,0-.781.5,2.277,2.277,0,0,0-.5.781,4.992,4.992,0,0,0-.281,1.047H7.688a4.785,4.785,0,0,0-.187-1,2.043,2.043,0,0,0-.406-.781,1.9,1.9,0,0,0-.719-.531A2.748,2.748,0,0,0,5.3-8.469Zm0,0" fill="#fff"/>
      </g>
    </g>
    <g id="Group_5177" data-name="Group 5177">
      <g id="Group_5176" data-name="Group 5176" transform="translate(437.469 513.562)">
        <path id="Path_42479" data-name="Path 42479" d="M2.578-4.609a4.043,4.043,0,0,0,.063.75,3.41,3.41,0,0,0,.172.641A2.738,2.738,0,0,0,3.906-1.8a3.242,3.242,0,0,0,1.734.469,5.332,5.332,0,0,0,1.469-.2,7.1,7.1,0,0,0,1.5-.672l.7,1.188a7.407,7.407,0,0,1-1.922.969,6.434,6.434,0,0,1-2,.313A4.947,4.947,0,0,1,3.578-.062a3.932,3.932,0,0,1-1.437-.969A4.509,4.509,0,0,1,1.2-2.625a6.677,6.677,0,0,1-.344-2.25,6.67,6.67,0,0,1,.281-1.953,4.687,4.687,0,0,1,.875-1.609A4.066,4.066,0,0,1,3.438-9.516a4.544,4.544,0,0,1,1.984-.406,4.384,4.384,0,0,1,1.813.328,3.388,3.388,0,0,1,1.2.875,3.721,3.721,0,0,1,.7,1.25,7.641,7.641,0,0,1,.328,1.422c.031.242.051.484.063.734s.016.477.016.7ZM5.3-8.469A3.015,3.015,0,0,0,4.234-8.3a2.2,2.2,0,0,0-.781.5,2.277,2.277,0,0,0-.5.781,4.992,4.992,0,0,0-.281,1.047H7.688a4.785,4.785,0,0,0-.187-1,2.043,2.043,0,0,0-.406-.781,1.9,1.9,0,0,0-.719-.531A2.748,2.748,0,0,0,5.3-8.469Zm0,0" fill="#fff"/>
      </g>
    </g>
    <g id="Group_5179" data-name="Group 5179">
      <g id="Group_5178" data-name="Group 5178" transform="translate(448.435 513.562)">
        <path id="Path_42480" data-name="Path 42480" d="M0,0ZM0,0" fill="#fff"/>
      </g>
    </g>
    <g id="Group_5181" data-name="Group 5181">
      <g id="Group_5180" data-name="Group 5180" transform="translate(452.616 513.562)">
        <path id="Path_42481" data-name="Path 42481" d="M10.094-14.156h4.594v1.609h-1.2V0H11.094L4.516-11.734V-1.609H5.969V0H1.375V-1.609H2.688V-12.547H1.328v-1.625H5.141L11.609-2.547,11.688-3v-9.547H10.094Zm0,0" fill="#fff"/>
      </g>
    </g>
    <g id="Group_5183" data-name="Group 5183">
      <g id="Group_5182" data-name="Group 5182" transform="translate(467.772 513.562)">
        <path id="Path_42482" data-name="Path 42482" d="M2.578-4.609a4.043,4.043,0,0,0,.063.75,3.41,3.41,0,0,0,.172.641A2.738,2.738,0,0,0,3.906-1.8a3.242,3.242,0,0,0,1.734.469,5.332,5.332,0,0,0,1.469-.2,7.1,7.1,0,0,0,1.5-.672l.7,1.188a7.407,7.407,0,0,1-1.922.969,6.434,6.434,0,0,1-2,.313A4.947,4.947,0,0,1,3.578-.062a3.932,3.932,0,0,1-1.437-.969A4.509,4.509,0,0,1,1.2-2.625a6.677,6.677,0,0,1-.344-2.25,6.67,6.67,0,0,1,.281-1.953,4.687,4.687,0,0,1,.875-1.609A4.066,4.066,0,0,1,3.438-9.516a4.544,4.544,0,0,1,1.984-.406,4.384,4.384,0,0,1,1.813.328,3.388,3.388,0,0,1,1.2.875,3.721,3.721,0,0,1,.7,1.25,7.641,7.641,0,0,1,.328,1.422c.031.242.051.484.063.734s.016.477.016.7ZM5.3-8.469A3.015,3.015,0,0,0,4.234-8.3a2.2,2.2,0,0,0-.781.5,2.277,2.277,0,0,0-.5.781,4.992,4.992,0,0,0-.281,1.047H7.688a4.785,4.785,0,0,0-.187-1,2.043,2.043,0,0,0-.406-.781,1.9,1.9,0,0,0-.719-.531A2.748,2.748,0,0,0,5.3-8.469Zm0,0" fill="#fff"/>
      </g>
    </g>
    <g id="Group_5185" data-name="Group 5185">
      <g id="Group_5184" data-name="Group 5184" transform="translate(478.738 513.562)">
        <path id="Path_42483" data-name="Path 42483" d="M3.734-9.672H6v1.406H3.719L3.688-2.687a2.832,2.832,0,0,0,.125.938.885.885,0,0,0,.422.484,1.5,1.5,0,0,0,.656.141,3.3,3.3,0,0,0,.688-.062,3.063,3.063,0,0,0,.656-.25L6.641-.266a4.6,4.6,0,0,1-.953.359A4.2,4.2,0,0,1,4.531.234,3.584,3.584,0,0,1,3.422.078a1.809,1.809,0,0,1-.8-.516,2.425,2.425,0,0,1-.484-.969,6.325,6.325,0,0,1-.156-1.531l.031-5.328H.469V-9.672H2.031v-2.313l1.7-.812Zm0,0" fill="#fff"/>
      </g>
    </g>
    <g id="Group_5187" data-name="Group 5187">
      <g id="Group_5186" data-name="Group 5186" transform="translate(485.85 513.562)">
        <path id="Path_42484" data-name="Path 42484" d="M.188-9.672H3.25v1.609H2.8L4.484-1.891,6.813-9.672H8.266l2.219,7.75L12.25-8.062h-.562V-9.672H14.75v1.609h-.828L11.266.156H9.656L7.469-7.578,5.281.156H3.656L1.016-8.062H.188Zm0,0" fill="#fff"/>
      </g>
    </g>
    <g id="Group_5189" data-name="Group 5189">
      <g id="Group_5188" data-name="Group 5188" transform="translate(501.155 513.562)">
        <path id="Path_42485" data-name="Path 42485" d="M.8-4.844a5.888,5.888,0,0,1,.375-2.078,4.728,4.728,0,0,1,1-1.625A4.38,4.38,0,0,1,3.7-9.578a4.974,4.974,0,0,1,1.953-.375,5.024,5.024,0,0,1,1.969.375A4.248,4.248,0,0,1,9.141-8.547a4.665,4.665,0,0,1,1,1.609A5.8,5.8,0,0,1,10.5-4.859a5.9,5.9,0,0,1-.359,2.094,5.009,5.009,0,0,1-1,1.625A4.48,4.48,0,0,1,7.625-.078,5.024,5.024,0,0,1,5.656.3,5.061,5.061,0,0,1,3.672-.078,4.484,4.484,0,0,1,2.156-1.125a4.88,4.88,0,0,1-1-1.625A6.274,6.274,0,0,1,.8-4.844Zm1.844,0a4.573,4.573,0,0,0,.234,1.516,3.567,3.567,0,0,0,.656,1.141,3.092,3.092,0,0,0,.969.734,2.725,2.725,0,0,0,1.156.25,2.912,2.912,0,0,0,1.2-.25,2.732,2.732,0,0,0,.969-.719,3.631,3.631,0,0,0,.641-1.156A4.573,4.573,0,0,0,8.7-4.844a4.7,4.7,0,0,0-.234-1.547,3.317,3.317,0,0,0-.641-1.141,2.479,2.479,0,0,0-.969-.687,3.1,3.1,0,0,0-1.2-.234A2.9,2.9,0,0,0,4.5-8.219a2.6,2.6,0,0,0-.969.688,3.406,3.406,0,0,0-.656,1.141A4.7,4.7,0,0,0,2.641-4.844Zm0,0" fill="#fff"/>
      </g>
    </g>
    <g id="Group_5191" data-name="Group 5191">
      <g id="Group_5190" data-name="Group 5190" transform="translate(512.588 513.562)">
        <path id="Path_42486" data-name="Path 42486" d="M7.891-7.625H6.109v-.609a1.779,1.779,0,0,0-.625.125,1.819,1.819,0,0,0-.594.359,2.248,2.248,0,0,0-.5.609,2.782,2.782,0,0,0-.3.859v4.672H5.734V0H.938V-1.609H2.266l.016-6.453H.938V-9.672H4.031v1.328a3.223,3.223,0,0,1,.359-.547,2.692,2.692,0,0,1,.469-.453,2.31,2.31,0,0,1,.578-.3,2.071,2.071,0,0,1,.672-.109h.922c.289,0,.578.008.859.016Zm0,0" fill="#fff"/>
      </g>
    </g>
    <g id="Group_5193" data-name="Group 5193">
      <g id="Group_5192" data-name="Group 5192" transform="translate(521.547 513.562)">
        <path id="Path_42487" data-name="Path 42487" d="M.859-14.531H4.266v1.609H4.25V-5.7H5.938l2.3-2.359H7.641V-9.672h3.672v1.609H10.094L7.156-5.031l3.2,3.422h1.172V0H9.484L5.531-4.328H4.25v2.719h.8V0H.922V-1.609H2.5V-12.922H.859Zm0,0" fill="#fff"/>
      </g>
    </g>
    <g id="Group_5195" data-name="Group 5195">
      <g id="Group_5194" data-name="Group 5194" transform="translate(359.764 312.009)">
        <path id="Path_42488" data-name="Path 42488" d="M1.063-11.219H4.7v1.281H3.578v8.672H7.438a.459.459,0,0,0,.234-.062.955.955,0,0,0,.219-.141.581.581,0,0,0,.156-.2.554.554,0,0,0,.063-.234V-3.328H9.516V0H1.063V-1.266H2.125V-9.937H1.063Zm0,0" fill="#2B1867"/>
      </g>
    </g>
    <g id="Group_5197" data-name="Group 5197">
      <g id="Group_5196" data-name="Group 5196" transform="translate(369.353 312.009)">
        <path id="Path_42489" data-name="Path 42489" d="M2.047-3.656a3.422,3.422,0,0,0,.047.594,2.785,2.785,0,0,0,.141.516,2.083,2.083,0,0,0,.859,1.109,2.567,2.567,0,0,0,1.375.375,4.256,4.256,0,0,0,1.156-.156,5.566,5.566,0,0,0,1.2-.531l.547.938a5.6,5.6,0,0,1-1.516.781,5.148,5.148,0,0,1-1.578.25,4.173,4.173,0,0,1-1.453-.25A3.149,3.149,0,0,1,1.688-.812,3.662,3.662,0,0,1,.953-2.078,5.343,5.343,0,0,1,.688-3.859,5.214,5.214,0,0,1,.906-5.406a3.782,3.782,0,0,1,.688-1.281,3.2,3.2,0,0,1,1.125-.859A3.717,3.717,0,0,1,4.3-7.859a3.473,3.473,0,0,1,1.438.266,2.524,2.524,0,0,1,.938.688,2.97,2.97,0,0,1,.563,1A4.91,4.91,0,0,1,7.5-4.781a3.535,3.535,0,0,1,.047.578c.008.188.016.371.016.547ZM4.2-6.719a2.3,2.3,0,0,0-.844.141,1.623,1.623,0,0,0-.609.406,1.862,1.862,0,0,0-.406.625,3.474,3.474,0,0,0-.234.813H6.094a3.966,3.966,0,0,0-.141-.781,1.841,1.841,0,0,0-.328-.641,1.422,1.422,0,0,0-.578-.406A2.086,2.086,0,0,0,4.2-6.719Zm0,0" fill="#2B1867"/>
      </g>
    </g>
    <g id="Group_5199" data-name="Group 5199">
      <g id="Group_5198" data-name="Group 5198" transform="translate(378.046 312.009)">
        <path id="Path_42490" data-name="Path 42490" d="M.141-7.672H2.8v1.281H2.078L3.969-1.109,5.828-6.391H5.359V-7.672H7.781v1.281H7.125L4.625.125H3.25L.75-6.391H.141Zm0,0" fill="#2B1867"/>
      </g>
    </g>
    <g id="Group_5201" data-name="Group 5201">
      <g id="Group_5200" data-name="Group 5200" transform="translate(386.185 312.009)">
        <path id="Path_42491" data-name="Path 42491" d="M2.047-3.656a3.422,3.422,0,0,0,.047.594,2.785,2.785,0,0,0,.141.516,2.083,2.083,0,0,0,.859,1.109,2.567,2.567,0,0,0,1.375.375,4.256,4.256,0,0,0,1.156-.156,5.566,5.566,0,0,0,1.2-.531l.547.938a5.6,5.6,0,0,1-1.516.781,5.148,5.148,0,0,1-1.578.25,4.173,4.173,0,0,1-1.453-.25A3.149,3.149,0,0,1,1.688-.812,3.662,3.662,0,0,1,.953-2.078,5.343,5.343,0,0,1,.688-3.859,5.214,5.214,0,0,1,.906-5.406a3.782,3.782,0,0,1,.688-1.281,3.2,3.2,0,0,1,1.125-.859A3.717,3.717,0,0,1,4.3-7.859a3.473,3.473,0,0,1,1.438.266,2.524,2.524,0,0,1,.938.688,2.97,2.97,0,0,1,.563,1A4.91,4.91,0,0,1,7.5-4.781a3.535,3.535,0,0,1,.047.578c.008.188.016.371.016.547ZM4.2-6.719a2.3,2.3,0,0,0-.844.141,1.623,1.623,0,0,0-.609.406,1.862,1.862,0,0,0-.406.625,3.474,3.474,0,0,0-.234.813H6.094a3.966,3.966,0,0,0-.141-.781,1.841,1.841,0,0,0-.328-.641,1.422,1.422,0,0,0-.578-.406A2.086,2.086,0,0,0,4.2-6.719Zm0,0" fill="#2B1867"/>
      </g>
    </g>
    <g id="Group_5203" data-name="Group 5203">
      <g id="Group_5202" data-name="Group 5202" transform="translate(394.878 312.009)">
        <path id="Path_42492" data-name="Path 42492" d="M5.781-1.266H6.875v-3.5a1.833,1.833,0,0,0-.453-1.344,1.744,1.744,0,0,0-1.281-.453,2.3,2.3,0,0,0-.984.234,4.589,4.589,0,0,0-.922.563v4.5H4.328V0H.734V-1.266H1.813V-6.391H.734V-7.672H3.188v.906H3.2a4.147,4.147,0,0,1,.516-.406A4.475,4.475,0,0,1,4.3-7.5a3.756,3.756,0,0,1,.641-.219,2.477,2.477,0,0,1,.688-.094,3.442,3.442,0,0,1,1.109.172,2.145,2.145,0,0,1,.844.531,2.334,2.334,0,0,1,.531.891A3.872,3.872,0,0,1,8.3-4.937v3.672H9.375V0H5.781Zm0,0" fill="#2B1867"/>
      </g>
    </g>
    <g id="Group_5205" data-name="Group 5205">
      <g id="Group_5204" data-name="Group 5204" transform="translate(404.975 312.009)">
        <path id="Path_42493" data-name="Path 42493" d="M0,0ZM0,0" fill="#2B1867"/>
      </g>
    </g>
    <g id="Group_5207" data-name="Group 5207">
      <g id="Group_5206" data-name="Group 5206" transform="translate(351.936 333.009)">
        <path id="Path_42494" data-name="Path 42494" d="M8-11.219h3.641v1.281h-.953V0H8.8L3.578-9.3v8.031H4.734V0H1.094V-1.266H2.125V-9.937H1.063v-1.3H4.078L9.2-2.016l.063-.359V-9.937H8Zm0,0" fill="#2B1867"/>
      </g>
    </g>
    <g id="Group_5209" data-name="Group 5209">
      <g id="Group_5208" data-name="Group 5208" transform="translate(363.951 333.009)">
        <path id="Path_42495" data-name="Path 42495" d="M2.047-3.656a3.422,3.422,0,0,0,.047.594,2.785,2.785,0,0,0,.141.516,2.083,2.083,0,0,0,.859,1.109,2.567,2.567,0,0,0,1.375.375,4.256,4.256,0,0,0,1.156-.156,5.566,5.566,0,0,0,1.2-.531l.547.938a5.6,5.6,0,0,1-1.516.781,5.148,5.148,0,0,1-1.578.25,4.173,4.173,0,0,1-1.453-.25A3.149,3.149,0,0,1,1.688-.812,3.662,3.662,0,0,1,.953-2.078,5.343,5.343,0,0,1,.688-3.859,5.214,5.214,0,0,1,.906-5.406a3.782,3.782,0,0,1,.688-1.281,3.2,3.2,0,0,1,1.125-.859A3.717,3.717,0,0,1,4.3-7.859a3.473,3.473,0,0,1,1.438.266,2.524,2.524,0,0,1,.938.688,2.97,2.97,0,0,1,.563,1A4.91,4.91,0,0,1,7.5-4.781a3.535,3.535,0,0,1,.047.578c.008.188.016.371.016.547ZM4.2-6.719a2.3,2.3,0,0,0-.844.141,1.623,1.623,0,0,0-.609.406,1.862,1.862,0,0,0-.406.625,3.474,3.474,0,0,0-.234.813H6.094a3.966,3.966,0,0,0-.141-.781,1.841,1.841,0,0,0-.328-.641,1.422,1.422,0,0,0-.578-.406A2.086,2.086,0,0,0,4.2-6.719Zm0,0" fill="#2B1867"/>
      </g>
    </g>
    <g id="Group_5211" data-name="Group 5211">
      <g id="Group_5210" data-name="Group 5210" transform="translate(372.645 333.009)">
        <path id="Path_42496" data-name="Path 42496" d="M2.953-7.672H4.766v1.125H2.953L2.922-2.125a2.364,2.364,0,0,0,.094.734A.661.661,0,0,0,3.359-1a1.185,1.185,0,0,0,.516.109,2.826,2.826,0,0,0,.547-.047,2.593,2.593,0,0,0,.516-.2l.328.922a4.1,4.1,0,0,1-.75.3,3.573,3.573,0,0,1-.922.109A2.8,2.8,0,0,1,2.719.063a1.513,1.513,0,0,1-.641-.406A1.9,1.9,0,0,1,1.7-1.125a4.758,4.758,0,0,1-.125-1.2l.016-4.219H.375V-7.672H1.609V-9.5l1.344-.641Zm0,0" fill="#2B1867"/>
      </g>
    </g>
    <g id="Group_5213" data-name="Group 5213">
      <g id="Group_5212" data-name="Group 5212" transform="translate(378.282 333.009)">
        <path id="Path_42497" data-name="Path 42497" d="M.141-7.672H2.578v1.281H2.219L3.563-1.5,5.391-7.672H6.547L8.3-1.516,9.7-6.391H9.266V-7.672h2.422v1.281h-.656L8.922.125H7.656L5.906-6,4.188.125h-1.3L.813-6.391H.141Zm0,0" fill="#2B1867"/>
      </g>
    </g>
    <g id="Group_5215" data-name="Group 5215">
      <g id="Group_5214" data-name="Group 5214" transform="translate(390.416 333.009)">
        <path id="Path_42498" data-name="Path 42498" d="M.641-3.828A4.618,4.618,0,0,1,.922-5.484a3.911,3.911,0,0,1,.8-1.281,3.4,3.4,0,0,1,1.219-.828,3.984,3.984,0,0,1,1.547-.3,3.984,3.984,0,0,1,1.547.3,3.374,3.374,0,0,1,1.219.813A3.814,3.814,0,0,1,8.031-5.5a4.618,4.618,0,0,1,.281,1.656A4.637,4.637,0,0,1,8.031-2.2a3.966,3.966,0,0,1-.781,1.3,3.661,3.661,0,0,1-1.219.844,3.984,3.984,0,0,1-1.547.3,4.021,4.021,0,0,1-1.562-.3A3.608,3.608,0,0,1,1.7-.891a3.9,3.9,0,0,1-.781-1.3A4.637,4.637,0,0,1,.641-3.828Zm1.453,0a3.54,3.54,0,0,0,.188,1.188,2.734,2.734,0,0,0,.516.906,2.245,2.245,0,0,0,.766.578,2.132,2.132,0,0,0,.922.2,2.22,2.22,0,0,0,.953-.2A2.283,2.283,0,0,0,6.2-1.734a2.577,2.577,0,0,0,.5-.906,3.54,3.54,0,0,0,.188-1.187A3.711,3.711,0,0,0,6.7-5.062a2.446,2.446,0,0,0-.5-.906,2.071,2.071,0,0,0-.766-.547A2.4,2.4,0,0,0,4.484-6.7a2.3,2.3,0,0,0-.922.188,2.206,2.206,0,0,0-.766.547,2.585,2.585,0,0,0-.516.906A3.711,3.711,0,0,0,2.094-3.828Zm0,0" fill="#2B1867"/>
      </g>
    </g>
    <g id="Group_5217" data-name="Group 5217">
      <g id="Group_5216" data-name="Group 5216" transform="translate(399.479 333.009)">
        <path id="Path_42499" data-name="Path 42499" d="M6.25-6.047H4.844v-.469a1.5,1.5,0,0,0-.5.094,1.529,1.529,0,0,0-.469.281,1.816,1.816,0,0,0-.391.484,1.983,1.983,0,0,0-.25.688v3.7H4.547V0H.734V-1.266H1.8l.016-5.125H.734V-7.672H3.188v1.063a4.512,4.512,0,0,1,.3-.437,2.508,2.508,0,0,1,.375-.359,1.512,1.512,0,0,1,.453-.234,1.8,1.8,0,0,1,.531-.078H6.25Zm0,0" fill="#2B1867"/>
      </g>
    </g>
    <g id="Group_5219" data-name="Group 5219">
      <g id="Group_5218" data-name="Group 5218" transform="translate(406.582 333.009)">
        <path id="Path_42500" data-name="Path 42500" d="M.688-11.516H3.375v7H4.7L6.516-6.391H6.063V-7.672H8.969v1.281H8L5.672-3.984,8.219-1.266h.922V0H7.516L4.375-3.422h-1v2.156H4V0H.719V-1.266H1.984V-10.25H.688Zm0,0" fill="#2B1867"/>
      </g>
    </g>
  </g>
</svg>
