<svg xmlns="http://www.w3.org/2000/svg" xmlns:xlink="http://www.w3.org/1999/xlink" width="544.965" height="449.428" viewBox="0 0 544.965 449.428">
  <defs>
    <clipPath id="clip-path">
      <path id="Path_42151" data-name="Path 42151" d="M183.074,181.5h402V455.25h-402Zm0,0"/>
    </clipPath>
    <clipPath id="clip-path-2">
      <path id="Path_42188" data-name="Path 42188" d="M110.3,286.465H264.8v62.25H110.3Zm0,0"/>
    </clipPath>
    <clipPath id="clip-path-3">
      <path id="Path_42209" data-name="Path 42209" d="M500.762,286.465h154.5v62.25h-154.5Zm0,0"/>
    </clipPath>
  </defs>
  <g id="_1" data-name="1" transform="translate(-110.297 -64.431)">
    <g id="Group_4551" data-name="Group 4551" clip-path="url(#clip-path)">
      <path id="Path_42150" data-name="Path 42150" d="M448.316,181.5a136.659,136.659,0,0,0-64.164,15.984A136.669,136.669,0,0,0,319.984,181.5C244.453,181.5,183,242.926,183,318.426s61.453,136.926,136.984,136.926a136.364,136.364,0,0,0,64.168-15.985,135.758,135.758,0,0,0,64.164,15.985c75.536,0,136.985-61.426,136.985-136.926S523.852,181.5,448.316,181.5ZM319.984,447.309c-71.105,0-129.039-57.809-129.039-128.985s57.832-128.883,129.039-128.883A127.4,127.4,0,0,1,376,202.309a136.689,136.689,0,0,0,0,232.23A127.935,127.935,0,0,1,319.984,447.309Zm-.605-128.883a129.157,129.157,0,0,1,64.773-111.793,128.862,128.862,0,0,1,0,223.586A128.948,128.948,0,0,1,319.379,318.426ZM448.316,447.309A127.729,127.729,0,0,1,392.3,434.441a136.689,136.689,0,0,0,0-232.23,128.02,128.02,0,0,1,56.019-12.871c71.11,0,129.039,57.808,129.039,128.984A129.089,129.089,0,0,1,448.316,447.309Zm0,0" fill="#fff"/>
    </g>
    <path id="Path_42152" data-name="Path 42152" d="M384.152,420.867a120.863,120.863,0,0,1,0-204.883,120.866,120.866,0,0,1,0,204.883Zm0,0" fill="#fff"/>
    <g id="Group_4553" data-name="Group 4553">
      <g id="Group_4552" data-name="Group 4552" transform="translate(155.168 89.525)">
        <path id="Path_42153" data-name="Path 42153" d="M2.328-24.609h9.156a11.6,11.6,0,0,1,3.2.438,11.653,11.653,0,0,1,2.844,1.234,12.07,12.07,0,0,1,2.391,1.906,11.461,11.461,0,0,1,1.828,2.484,12.733,12.733,0,0,1,1.156,2.922,12.932,12.932,0,0,1,.406,3.25,13.213,13.213,0,0,1-.406,3.3A13.17,13.17,0,0,1,21.75-6.109a11.649,11.649,0,0,1-1.828,2.5,12.086,12.086,0,0,1-2.391,1.938A11.505,11.505,0,0,1,14.688-.437a11.454,11.454,0,0,1-3.2.438H2.328V-2.8H4.656v-19H2.328ZM7.844-21.8v19h3.828a7.162,7.162,0,0,0,3.2-.734A8.415,8.415,0,0,0,17.5-5.578a9.745,9.745,0,0,0,1.766-3.031,10.628,10.628,0,0,0,.656-3.766,10.315,10.315,0,0,0-.656-3.7A9.422,9.422,0,0,0,17.5-19.062a8.21,8.21,0,0,0-2.625-2,7.214,7.214,0,0,0-3.2-.734Zm0,0" fill="#fff"/>
      </g>
    </g>
    <g id="Group_4555" data-name="Group 4555">
      <g id="Group_4554" data-name="Group 4554" transform="translate(179.632 89.525)">
        <path id="Path_42154" data-name="Path 42154" d="M2.328-24.609H19.953v6.969H16.625V-21.8H7.844v7.859h7.391v2.8H7.844V-2.8h8.781V-6.953h3.328V0H2.328V-2.8H4.656v-19H2.328Zm0,0" fill="#fff"/>
      </g>
    </g>
    <g id="Group_4557" data-name="Group 4557">
      <g id="Group_4556" data-name="Group 4556" transform="translate(200.508 89.525)">
        <path id="Path_42155" data-name="Path 42155" d="M16.453-24.609h7.984V-21.8H22.313L14.328,0H9.875L2.016-21.8H-.156v-2.812H7.828V-21.8H5.688L12-2.828,18.766-21.8H16.453Zm0,0" fill="#fff"/>
      </g>
    </g>
    <g id="Group_4559" data-name="Group 4559">
      <g id="Group_4558" data-name="Group 4558" transform="translate(224.615 89.525)">
        <path id="Path_42156" data-name="Path 42156" d="M2.328-24.609H19.953v6.969H16.625V-21.8H7.844v7.859h7.391v2.8H7.844V-2.8h8.781V-6.953h3.328V0H2.328V-2.8H4.656v-19H2.328Zm0,0" fill="#fff"/>
      </g>
    </g>
    <g id="Group_4561" data-name="Group 4561">
      <g id="Group_4560" data-name="Group 4560" transform="translate(245.491 89.525)">
        <path id="Path_42157" data-name="Path 42157" d="M2.328-24.609h7.984V-21.8H7.844v19h8.484a1.262,1.262,0,0,0,.516-.109,1.854,1.854,0,0,0,.469-.312,1.6,1.6,0,0,0,.344-.453,1.025,1.025,0,0,0,.141-.516V-7.3h3.078V0H2.328V-2.8H4.656v-19H2.328Zm0,0" fill="#fff"/>
      </g>
    </g>
    <g id="Group_4563" data-name="Group 4563">
      <g id="Group_4562" data-name="Group 4562" transform="translate(266.529 89.525)">
        <path id="Path_42158" data-name="Path 42158" d="M12.969.484A11.333,11.333,0,0,1,8.313-.453a11.809,11.809,0,0,1-3.766-2.7A11.793,11.793,0,0,1,2.031-7.312a14.707,14.707,0,0,1-.859-5A14.266,14.266,0,0,1,2.031-17.3a12.564,12.564,0,0,1,2.438-4.078A11.375,11.375,0,0,1,8.2-24.094a11.285,11.285,0,0,1,4.766-1,11.376,11.376,0,0,1,4.8,1,11.038,11.038,0,0,1,3.719,2.719A12.464,12.464,0,0,1,23.906-17.3a14.1,14.1,0,0,1,.875,4.984,14.121,14.121,0,0,1-.875,5A12.715,12.715,0,0,1,21.469-3.25,11.368,11.368,0,0,1,17.734-.516,11.309,11.309,0,0,1,12.969.484Zm0-3.016a7.6,7.6,0,0,0,3.5-.8,8.478,8.478,0,0,0,2.672-2.125,9.71,9.71,0,0,0,1.7-3.109,11.506,11.506,0,0,0,.609-3.75,11.472,11.472,0,0,0-.672-3.875,9.218,9.218,0,0,0-1.828-3.172,8.1,8.1,0,0,0-2.734-2.016,7.839,7.839,0,0,0-3.25-.7,7.65,7.65,0,0,0-3.5.8,8.266,8.266,0,0,0-2.687,2.141,9.844,9.844,0,0,0-1.7,3.109,11.621,11.621,0,0,0-.594,3.719A11.693,11.693,0,0,0,5.141-8.25,8.932,8.932,0,0,0,6.906-5.3,9.658,9.658,0,0,0,9.516-3.328,7.364,7.364,0,0,0,12.969-2.531Zm0,0" fill="#fff"/>
      </g>
    </g>
    <g id="Group_4565" data-name="Group 4565">
      <g id="Group_4564" data-name="Group 4564" transform="translate(292.454 89.525)">
        <path id="Path_42159" data-name="Path 42159" d="M2.328-24.609h9.953a10.06,10.06,0,0,1,3.031.438,6.844,6.844,0,0,1,2.406,1.266A5.649,5.649,0,0,1,19.3-20.828a6.953,6.953,0,0,1,.563,2.875,5.928,5.928,0,0,1-.562,2.547,6.219,6.219,0,0,1-1.562,2.078,7.593,7.593,0,0,1-2.406,1.422,8.947,8.947,0,0,1-3.125.516H7.844V-2.8h2.469V0H2.328V-2.8H4.656v-19H2.328ZM7.844-21.8v7.734h4.438a5.386,5.386,0,0,0,1.688-.25,3.794,3.794,0,0,0,1.328-.734,3.256,3.256,0,0,0,.875-1.219,4.091,4.091,0,0,0,.328-1.687,3.618,3.618,0,0,0-1.109-2.828A5.115,5.115,0,0,0,11.875-21.8Zm0,0" fill="#fff"/>
      </g>
    </g>
    <g id="Group_4567" data-name="Group 4567">
      <g id="Group_4566" data-name="Group 4566" transform="translate(313.103 89.525)">
        <path id="Path_42160" data-name="Path 42160" d="M2.328-24.609H19.953v6.969H16.625V-21.8H7.844v7.859h7.391v2.8H7.844V-2.8h8.781V-6.953h3.328V0H2.328V-2.8H4.656v-19H2.328Zm0,0" fill="#fff"/>
      </g>
    </g>
    <g id="Group_4569" data-name="Group 4569">
      <g id="Group_4568" data-name="Group 4568" transform="translate(333.979 89.525)">
        <path id="Path_42161" data-name="Path 42161" d="M2.328-24.609H12.563a10.153,10.153,0,0,1,3.031.438A6.845,6.845,0,0,1,18-22.906a5.648,5.648,0,0,1,1.578,2.078,6.953,6.953,0,0,1,.563,2.875,5.312,5.312,0,0,1-.328,1.828,6.436,6.436,0,0,1-.922,1.672,7.456,7.456,0,0,1-1.406,1.375,6.621,6.621,0,0,1-1.766.922,3.431,3.431,0,0,1,.813.516,4.312,4.312,0,0,1,.781.813,5.813,5.813,0,0,1,.672,1.078,6.862,6.862,0,0,1,.469,1.313l1.375,5.359h2.125L21.984,0h-4.8L15.359-7.484a5.8,5.8,0,0,0-1.531-2.953A4.022,4.022,0,0,0,11-11.391H7.844V-2.8h2.469V0H2.328V-2.8H4.656v-19H2.328ZM7.844-21.8v7.734h4.719A5.757,5.757,0,0,0,14.25-14.3a3.76,3.76,0,0,0,1.344-.734,3.293,3.293,0,0,0,.875-1.2,4.292,4.292,0,0,0,.313-1.687,3.694,3.694,0,0,0-1.109-2.859,5.05,5.05,0,0,0-3.5-1.016Zm0,0" fill="#fff"/>
      </g>
    </g>
    <g id="Group_4571" data-name="Group 4571">
      <g id="Group_4570" data-name="Group 4570" transform="translate(357.648 89.525)">
        <path id="Path_42162" data-name="Path 42162" d="M14.938-17.922a3.561,3.561,0,0,0-.531-2.141,3.953,3.953,0,0,0-1.141-1.094,5.228,5.228,0,0,0-1.375-.594,5.665,5.665,0,0,0-1.484-.2,7.12,7.12,0,0,0-2.156.3,4.61,4.61,0,0,0-1.531.766A3.211,3.211,0,0,0,5.8-19.75a3.042,3.042,0,0,0-.312,1.359,3.439,3.439,0,0,0,.375,1.719,3.344,3.344,0,0,0,.969,1.063,5.452,5.452,0,0,0,1.3.625c.469.148.922.3,1.359.453l3.281,1.078a15.151,15.151,0,0,1,2.594,1.078,6.783,6.783,0,0,1,1.891,1.422,5.484,5.484,0,0,1,1.156,1.891,6.93,6.93,0,0,1,.406,2.469,6.451,6.451,0,0,1-.625,2.828A6.924,6.924,0,0,1,16.438-1.5,8.219,8.219,0,0,1,13.766,0a10.46,10.46,0,0,1-3.391.531A10.637,10.637,0,0,1,7.125.094,7.046,7.046,0,0,1,4.859-1.047,5.762,5.762,0,0,1,3.391-2.687a9.391,9.391,0,0,1-.859-1.906H1.3v-2.8H5.391a6.214,6.214,0,0,0,.375,2.563A3.59,3.59,0,0,0,6.828-3.594a4.752,4.752,0,0,0,1.625.75,8.1,8.1,0,0,0,2.078.25,6.759,6.759,0,0,0,1.984-.266,4.55,4.55,0,0,0,1.516-.75,3.345,3.345,0,0,0,.953-1.2,3.619,3.619,0,0,0,.344-1.594,3.183,3.183,0,0,0-.422-1.687,4,4,0,0,0-1.062-1.172,6.382,6.382,0,0,0-1.422-.8c-.512-.207-1.008-.391-1.484-.547l-3.547-1a10.5,10.5,0,0,1-2.141-.906,6.085,6.085,0,0,1-1.656-1.344,5.662,5.662,0,0,1-1.062-1.859,7.4,7.4,0,0,1-.375-2.469A6.408,6.408,0,0,1,2.7-20.828a6.3,6.3,0,0,1,1.625-2.156,7.616,7.616,0,0,1,2.625-1.453,10.958,10.958,0,0,1,3.547-.531,8.974,8.974,0,0,1,2.422.313,7.216,7.216,0,0,1,2.016.859,7,7,0,0,1,1.594,1.359A8.67,8.67,0,0,1,17.7-20.719h1.219v2.8Zm0,0" fill="#fff"/>
      </g>
    </g>
    <g id="Group_4573" data-name="Group 4573">
      <g id="Group_4572" data-name="Group 4572" transform="translate(377.29 89.525)">
        <path id="Path_42163" data-name="Path 42163" d="M0,0ZM0,0" fill="#fff"/>
      </g>
    </g>
    <g id="Group_4575" data-name="Group 4575">
      <g id="Group_4574" data-name="Group 4574" transform="translate(384.563 89.525)">
        <path id="Path_42164" data-name="Path 42164" d="M19.8-18.125a8.071,8.071,0,0,0-2.891-2.891,7.727,7.727,0,0,0-4-1.062,7.448,7.448,0,0,0-3.438.8A8.331,8.331,0,0,0,6.8-19.141a9.883,9.883,0,0,0-1.734,3.094,11.293,11.293,0,0,0-.609,3.7A11.519,11.519,0,0,0,5.125-8.25,9.161,9.161,0,0,0,6.906-5.3,9.658,9.658,0,0,0,9.516-3.328a7.251,7.251,0,0,0,3.391.781,7.957,7.957,0,0,0,4.453-1.234,9.74,9.74,0,0,0,3.266-4.094l2.844,1.344a9.772,9.772,0,0,1-2.094,3.391A11.046,11.046,0,0,1,17.734-.516a11.376,11.376,0,0,1-4.8,1A11.251,11.251,0,0,1,8.313-.453a11.809,11.809,0,0,1-3.766-2.7A12.147,12.147,0,0,1,2.031-7.312a14.8,14.8,0,0,1-.859-5.031A14.169,14.169,0,0,1,2.031-17.3a12.564,12.564,0,0,1,2.438-4.078A11.375,11.375,0,0,1,8.2-24.094a11.14,11.14,0,0,1,4.7-1,10.71,10.71,0,0,1,3.891.641,11.09,11.09,0,0,1,2.781,1.531,11.4,11.4,0,0,1,1.984,1.906h1.719v2.891Zm0,0" fill="#fff"/>
      </g>
    </g>
    <g id="Group_4577" data-name="Group 4577">
      <g id="Group_4576" data-name="Group 4576" transform="translate(409.059 89.525)">
        <path id="Path_42165" data-name="Path 42165" d="M12.969.484A11.333,11.333,0,0,1,8.313-.453a11.809,11.809,0,0,1-3.766-2.7A11.793,11.793,0,0,1,2.031-7.312a14.707,14.707,0,0,1-.859-5A14.266,14.266,0,0,1,2.031-17.3a12.564,12.564,0,0,1,2.438-4.078A11.375,11.375,0,0,1,8.2-24.094a11.285,11.285,0,0,1,4.766-1,11.376,11.376,0,0,1,4.8,1,11.038,11.038,0,0,1,3.719,2.719A12.464,12.464,0,0,1,23.906-17.3a14.1,14.1,0,0,1,.875,4.984,14.121,14.121,0,0,1-.875,5A12.715,12.715,0,0,1,21.469-3.25,11.368,11.368,0,0,1,17.734-.516,11.309,11.309,0,0,1,12.969.484Zm0-3.016a7.6,7.6,0,0,0,3.5-.8,8.478,8.478,0,0,0,2.672-2.125,9.71,9.71,0,0,0,1.7-3.109,11.506,11.506,0,0,0,.609-3.75,11.472,11.472,0,0,0-.672-3.875,9.218,9.218,0,0,0-1.828-3.172,8.1,8.1,0,0,0-2.734-2.016,7.839,7.839,0,0,0-3.25-.7,7.65,7.65,0,0,0-3.5.8,8.266,8.266,0,0,0-2.687,2.141,9.844,9.844,0,0,0-1.7,3.109,11.621,11.621,0,0,0-.594,3.719A11.693,11.693,0,0,0,5.141-8.25,8.932,8.932,0,0,0,6.906-5.3,9.658,9.658,0,0,0,9.516-3.328,7.364,7.364,0,0,0,12.969-2.531Zm0,0" fill="#fff"/>
      </g>
    </g>
    <g id="Group_4579" data-name="Group 4579">
      <g id="Group_4578" data-name="Group 4578" transform="translate(434.984 89.525)">
        <path id="Path_42166" data-name="Path 42166" d="M17.547-24.609h7.984V-21.8H23.438V0H19.281L7.844-20.406V-2.8h2.531V0H2.391V-2.8H4.656v-19H2.328v-2.844H8.953l11.234,20.2.125-.781V-21.8H17.547Zm0,0" fill="#fff"/>
      </g>
    </g>
    <g id="Group_4581" data-name="Group 4581">
      <g id="Group_4580" data-name="Group 4580" transform="translate(461.347 89.525)">
        <path id="Path_42167" data-name="Path 42167" d="M17.547-24.609h7.984V-21.8H23.438V0H19.281L7.844-20.406V-2.8h2.531V0H2.391V-2.8H4.656v-19H2.328v-2.844H8.953l11.234,20.2.125-.781V-21.8H17.547Zm0,0" fill="#fff"/>
      </g>
    </g>
    <g id="Group_4583" data-name="Group 4583">
      <g id="Group_4582" data-name="Group 4582" transform="translate(487.71 89.525)">
        <path id="Path_42168" data-name="Path 42168" d="M2.328-24.609H19.953v6.969H16.625V-21.8H7.844v7.859h7.391v2.8H7.844V-2.8h8.781V-6.953h3.328V0H2.328V-2.8H4.656v-19H2.328Zm0,0" fill="#fff"/>
      </g>
    </g>
    <g id="Group_4585" data-name="Group 4585">
      <g id="Group_4584" data-name="Group 4584" transform="translate(508.586 89.525)">
        <path id="Path_42169" data-name="Path 42169" d="M19.8-18.125a8.071,8.071,0,0,0-2.891-2.891,7.727,7.727,0,0,0-4-1.062,7.448,7.448,0,0,0-3.438.8A8.331,8.331,0,0,0,6.8-19.141a9.883,9.883,0,0,0-1.734,3.094,11.293,11.293,0,0,0-.609,3.7A11.519,11.519,0,0,0,5.125-8.25,9.161,9.161,0,0,0,6.906-5.3,9.658,9.658,0,0,0,9.516-3.328a7.251,7.251,0,0,0,3.391.781,7.957,7.957,0,0,0,4.453-1.234,9.74,9.74,0,0,0,3.266-4.094l2.844,1.344a9.772,9.772,0,0,1-2.094,3.391A11.046,11.046,0,0,1,17.734-.516a11.376,11.376,0,0,1-4.8,1A11.251,11.251,0,0,1,8.313-.453a11.809,11.809,0,0,1-3.766-2.7A12.147,12.147,0,0,1,2.031-7.312a14.8,14.8,0,0,1-.859-5.031A14.169,14.169,0,0,1,2.031-17.3a12.564,12.564,0,0,1,2.438-4.078A11.375,11.375,0,0,1,8.2-24.094a11.14,11.14,0,0,1,4.7-1,10.71,10.71,0,0,1,3.891.641,11.09,11.09,0,0,1,2.781,1.531,11.4,11.4,0,0,1,1.984,1.906h1.719v2.891Zm0,0" fill="#fff"/>
      </g>
    </g>
    <g id="Group_4587" data-name="Group 4587">
      <g id="Group_4586" data-name="Group 4586" transform="translate(533.083 89.525)">
        <path id="Path_42170" data-name="Path 42170" d="M7.359-2.8h2.25V-21.953H4v3.828H.672v-6.484H22.609v6.484H19.281v-3.828H12.8V-2.8h2.531V0H7.359Zm0,0" fill="#fff"/>
      </g>
    </g>
    <g id="Group_4589" data-name="Group 4589">
      <g id="Group_4588" data-name="Group 4588" transform="translate(556.361 89.525)">
        <path id="Path_42171" data-name="Path 42171" d="M0,0ZM0,0" fill="#fff"/>
      </g>
    </g>
    <g id="Group_4591" data-name="Group 4591">
      <g id="Group_4590" data-name="Group 4590" transform="translate(563.634 89.525)">
        <path id="Path_42172" data-name="Path 42172" d="M7.359-2.8h2.25V-21.953H4v3.828H.672v-6.484H22.609v6.484H19.281v-3.828H12.8V-2.8h2.531V0H7.359Zm0,0" fill="#fff"/>
      </g>
    </g>
    <g id="Group_4593" data-name="Group 4593">
      <g id="Group_4592" data-name="Group 4592" transform="translate(586.913 89.525)">
        <path id="Path_42173" data-name="Path 42173" d="M12.969.484A11.333,11.333,0,0,1,8.313-.453a11.809,11.809,0,0,1-3.766-2.7A11.793,11.793,0,0,1,2.031-7.312a14.707,14.707,0,0,1-.859-5A14.266,14.266,0,0,1,2.031-17.3a12.564,12.564,0,0,1,2.438-4.078A11.375,11.375,0,0,1,8.2-24.094a11.285,11.285,0,0,1,4.766-1,11.376,11.376,0,0,1,4.8,1,11.038,11.038,0,0,1,3.719,2.719A12.464,12.464,0,0,1,23.906-17.3a14.1,14.1,0,0,1,.875,4.984,14.121,14.121,0,0,1-.875,5A12.715,12.715,0,0,1,21.469-3.25,11.368,11.368,0,0,1,17.734-.516,11.309,11.309,0,0,1,12.969.484Zm0-3.016a7.6,7.6,0,0,0,3.5-.8,8.478,8.478,0,0,0,2.672-2.125,9.71,9.71,0,0,0,1.7-3.109,11.506,11.506,0,0,0,.609-3.75,11.472,11.472,0,0,0-.672-3.875,9.218,9.218,0,0,0-1.828-3.172,8.1,8.1,0,0,0-2.734-2.016,7.839,7.839,0,0,0-3.25-.7,7.65,7.65,0,0,0-3.5.8,8.266,8.266,0,0,0-2.687,2.141,9.844,9.844,0,0,0-1.7,3.109,11.621,11.621,0,0,0-.594,3.719A11.693,11.693,0,0,0,5.141-8.25,8.932,8.932,0,0,0,6.906-5.3,9.658,9.658,0,0,0,9.516-3.328,7.364,7.364,0,0,0,12.969-2.531Zm0,0" fill="#fff"/>
      </g>
    </g>
    <g id="Group_4595" data-name="Group 4595">
      <g id="Group_4594" data-name="Group 4594" transform="translate(230.18 136.025)">
        <path id="Path_42174" data-name="Path 42174" d="M2.328-24.609h7.984V-21.8H7.844v19h8.484a1.262,1.262,0,0,0,.516-.109,1.854,1.854,0,0,0,.469-.312,1.6,1.6,0,0,0,.344-.453,1.025,1.025,0,0,0,.141-.516V-7.3h3.078V0H2.328V-2.8H4.656v-19H2.328Zm0,0" fill="#fff"/>
      </g>
    </g>
    <g id="Group_4597" data-name="Group 4597">
      <g id="Group_4596" data-name="Group 4596" transform="translate(251.218 136.025)">
        <path id="Path_42175" data-name="Path 42175" d="M2.328-24.609H19.953v6.969H16.625V-21.8H7.844v7.859h7.391v2.8H7.844V-2.8h8.781V-6.953h3.328V0H2.328V-2.8H4.656v-19H2.328Zm0,0" fill="#fff"/>
      </g>
    </g>
    <g id="Group_4599" data-name="Group 4599">
      <g id="Group_4598" data-name="Group 4598" transform="translate(272.094 136.025)">
        <path id="Path_42176" data-name="Path 42176" d="M16.453-24.609h7.984V-21.8H22.313L14.328,0H9.875L2.016-21.8H-.156v-2.812H7.828V-21.8H5.688L12-2.828,18.766-21.8H16.453Zm0,0" fill="#fff"/>
      </g>
    </g>
    <g id="Group_4601" data-name="Group 4601">
      <g id="Group_4600" data-name="Group 4600" transform="translate(296.201 136.025)">
        <path id="Path_42177" data-name="Path 42177" d="M2.328-24.609H19.953v6.969H16.625V-21.8H7.844v7.859h7.391v2.8H7.844V-2.8h8.781V-6.953h3.328V0H2.328V-2.8H4.656v-19H2.328Zm0,0" fill="#fff"/>
      </g>
    </g>
    <g id="Group_4603" data-name="Group 4603">
      <g id="Group_4602" data-name="Group 4602" transform="translate(317.077 136.025)">
        <path id="Path_42178" data-name="Path 42178" d="M17.547-24.609h7.984V-21.8H23.438V0H19.281L7.844-20.406V-2.8h2.531V0H2.391V-2.8H4.656v-19H2.328v-2.844H8.953l11.234,20.2.125-.781V-21.8H17.547Zm0,0" fill="#fff"/>
      </g>
    </g>
    <g id="Group_4605" data-name="Group 4605">
      <g id="Group_4604" data-name="Group 4604" transform="translate(343.44 136.025)">
        <path id="Path_42179" data-name="Path 42179" d="M0,0ZM0,0" fill="#fff"/>
      </g>
    </g>
    <g id="Group_4607" data-name="Group 4607">
      <g id="Group_4606" data-name="Group 4606" transform="translate(350.713 136.025)">
        <path id="Path_42180" data-name="Path 42180" d="M17.547-24.609h7.984V-21.8H23.438V0H19.281L7.844-20.406V-2.8h2.531V0H2.391V-2.8H4.656v-19H2.328v-2.844H8.953l11.234,20.2.125-.781V-21.8H17.547Zm0,0" fill="#fff"/>
      </g>
    </g>
    <g id="Group_4609" data-name="Group 4609">
      <g id="Group_4608" data-name="Group 4608" transform="translate(377.076 136.025)">
        <path id="Path_42181" data-name="Path 42181" d="M2.328-24.609H19.953v6.969H16.625V-21.8H7.844v7.859h7.391v2.8H7.844V-2.8h8.781V-6.953h3.328V0H2.328V-2.8H4.656v-19H2.328Zm0,0" fill="#fff"/>
      </g>
    </g>
    <g id="Group_4611" data-name="Group 4611">
      <g id="Group_4610" data-name="Group 4610" transform="translate(397.952 136.025)">
        <path id="Path_42182" data-name="Path 42182" d="M7.359-2.8h2.25V-21.953H4v3.828H.672v-6.484H22.609v6.484H19.281v-3.828H12.8V-2.8h2.531V0H7.359Zm0,0" fill="#fff"/>
      </g>
    </g>
    <g id="Group_4613" data-name="Group 4613">
      <g id="Group_4612" data-name="Group 4612" transform="translate(421.231 136.025)">
        <path id="Path_42183" data-name="Path 42183" d="M33.406-24.609h8V-21.8H39.25L32.234,0H27.266L20.594-21.453,14.438,0H9.516L2.344-21.8H.156v-2.812h8V-21.8H6L11.969-2.891,18.25-24.609h4.859L29.8-2.891,35.859-21.8H33.406Zm0,0" fill="#fff"/>
      </g>
    </g>
    <g id="Group_4615" data-name="Group 4615">
      <g id="Group_4614" data-name="Group 4614" transform="translate(462.789 136.025)">
        <path id="Path_42184" data-name="Path 42184" d="M12.969.484A11.333,11.333,0,0,1,8.313-.453a11.809,11.809,0,0,1-3.766-2.7A11.793,11.793,0,0,1,2.031-7.312a14.707,14.707,0,0,1-.859-5A14.266,14.266,0,0,1,2.031-17.3a12.564,12.564,0,0,1,2.438-4.078A11.375,11.375,0,0,1,8.2-24.094a11.285,11.285,0,0,1,4.766-1,11.376,11.376,0,0,1,4.8,1,11.038,11.038,0,0,1,3.719,2.719A12.464,12.464,0,0,1,23.906-17.3a14.1,14.1,0,0,1,.875,4.984,14.121,14.121,0,0,1-.875,5A12.715,12.715,0,0,1,21.469-3.25,11.368,11.368,0,0,1,17.734-.516,11.309,11.309,0,0,1,12.969.484Zm0-3.016a7.6,7.6,0,0,0,3.5-.8,8.478,8.478,0,0,0,2.672-2.125,9.71,9.71,0,0,0,1.7-3.109,11.506,11.506,0,0,0,.609-3.75,11.472,11.472,0,0,0-.672-3.875,9.218,9.218,0,0,0-1.828-3.172,8.1,8.1,0,0,0-2.734-2.016,7.839,7.839,0,0,0-3.25-.7,7.65,7.65,0,0,0-3.5.8,8.266,8.266,0,0,0-2.687,2.141,9.844,9.844,0,0,0-1.7,3.109,11.621,11.621,0,0,0-.594,3.719A11.693,11.693,0,0,0,5.141-8.25,8.932,8.932,0,0,0,6.906-5.3,9.658,9.658,0,0,0,9.516-3.328,7.364,7.364,0,0,0,12.969-2.531Zm0,0" fill="#fff"/>
      </g>
    </g>
    <g id="Group_4617" data-name="Group 4617">
      <g id="Group_4616" data-name="Group 4616" transform="translate(488.714 136.025)">
        <path id="Path_42185" data-name="Path 42185" d="M2.328-24.609H12.563a10.153,10.153,0,0,1,3.031.438A6.845,6.845,0,0,1,18-22.906a5.648,5.648,0,0,1,1.578,2.078,6.953,6.953,0,0,1,.563,2.875,5.312,5.312,0,0,1-.328,1.828,6.436,6.436,0,0,1-.922,1.672,7.456,7.456,0,0,1-1.406,1.375,6.621,6.621,0,0,1-1.766.922,3.431,3.431,0,0,1,.813.516,4.312,4.312,0,0,1,.781.813,5.813,5.813,0,0,1,.672,1.078,6.862,6.862,0,0,1,.469,1.313l1.375,5.359h2.125L21.984,0h-4.8L15.359-7.484a5.8,5.8,0,0,0-1.531-2.953A4.022,4.022,0,0,0,11-11.391H7.844V-2.8h2.469V0H2.328V-2.8H4.656v-19H2.328ZM7.844-21.8v7.734h4.719A5.757,5.757,0,0,0,14.25-14.3a3.76,3.76,0,0,0,1.344-.734,3.293,3.293,0,0,0,.875-1.2,4.292,4.292,0,0,0,.313-1.687,3.694,3.694,0,0,0-1.109-2.859,5.05,5.05,0,0,0-3.5-1.016Zm0,0" fill="#fff"/>
      </g>
    </g>
    <g id="Group_4619" data-name="Group 4619">
      <g id="Group_4618" data-name="Group 4618" transform="translate(512.382 136.025)">
        <path id="Path_42186" data-name="Path 42186" d="M18.625-21.8v-2.812h5.641V-21.8H22.344L11.563-12.734,21.641-2.8h2.625V0H17.641V-2.8L7.875-12.562ZM2.359-24.609h7.984V-21.8h-2.5v19h2.469V0H2.328V-2.8H4.656v-19h-2.3Zm0,0" fill="#fff"/>
      </g>
    </g>
    <g id="Group_4620" data-name="Group 4620" clip-path="url(#clip-path-2)">
      <path id="Path_42187" data-name="Path 42187" d="M110.3,239.992H264.8v154.5H110.3Zm0,0" fill="#2B1867"/>
    </g>
    <g id="Group_4622" data-name="Group 4622">
      <g id="Group_4621" data-name="Group 4621" transform="translate(145.928 312.009)">
        <path id="Path_42189" data-name="Path 42189" d="M1.063-11.219H5.234a5.225,5.225,0,0,1,1.453.2,5.518,5.518,0,0,1,1.3.563,5.034,5.034,0,0,1,1.094.875,5.5,5.5,0,0,1,.828,1.125,5.686,5.686,0,0,1,.531,1.328,5.879,5.879,0,0,1,.188,1.484,5.889,5.889,0,0,1-.187,1.5,6.223,6.223,0,0,1-.531,1.359,5.716,5.716,0,0,1-.828,1.141,4.92,4.92,0,0,1-1.094.875,5.214,5.214,0,0,1-1.3.563A5.083,5.083,0,0,1,5.234,0H1.063V-1.266H2.125V-9.937H1.063ZM3.578-9.937v8.672h1.75a3.206,3.206,0,0,0,1.453-.344,3.79,3.79,0,0,0,1.188-.922,4.5,4.5,0,0,0,.813-1.391,4.933,4.933,0,0,0,.3-1.719,4.79,4.79,0,0,0-.3-1.687,4.384,4.384,0,0,0-.812-1.359,3.686,3.686,0,0,0-1.187-.906,3.257,3.257,0,0,0-1.453-.344Zm0,0" fill="#fff"/>
      </g>
    </g>
    <g id="Group_4624" data-name="Group 4624">
      <g id="Group_4623" data-name="Group 4623" transform="translate(157.078 312.009)">
        <path id="Path_42190" data-name="Path 42190" d="M2.047-3.656a3.422,3.422,0,0,0,.047.594,2.785,2.785,0,0,0,.141.516,2.083,2.083,0,0,0,.859,1.109,2.567,2.567,0,0,0,1.375.375,4.256,4.256,0,0,0,1.156-.156,5.566,5.566,0,0,0,1.2-.531l.547.938a5.6,5.6,0,0,1-1.516.781,5.148,5.148,0,0,1-1.578.25,4.173,4.173,0,0,1-1.453-.25A3.149,3.149,0,0,1,1.688-.812,3.662,3.662,0,0,1,.953-2.078,5.343,5.343,0,0,1,.688-3.859,5.214,5.214,0,0,1,.906-5.406a3.782,3.782,0,0,1,.688-1.281,3.2,3.2,0,0,1,1.125-.859A3.717,3.717,0,0,1,4.3-7.859a3.473,3.473,0,0,1,1.438.266,2.524,2.524,0,0,1,.938.688,2.97,2.97,0,0,1,.563,1A4.91,4.91,0,0,1,7.5-4.781a3.535,3.535,0,0,1,.047.578c.008.188.016.371.016.547ZM4.2-6.719a2.3,2.3,0,0,0-.844.141,1.623,1.623,0,0,0-.609.406,1.862,1.862,0,0,0-.406.625,3.474,3.474,0,0,0-.234.813H6.094a3.966,3.966,0,0,0-.141-.781,1.841,1.841,0,0,0-.328-.641,1.422,1.422,0,0,0-.578-.406A2.086,2.086,0,0,0,4.2-6.719Zm0,0" fill="#fff"/>
      </g>
    </g>
    <g id="Group_4626" data-name="Group 4626">
      <g id="Group_4625" data-name="Group 4625" transform="translate(165.771 312.009)">
        <path id="Path_42191" data-name="Path 42191" d="M.141-7.672H2.8v1.281H2.078L3.969-1.109,5.828-6.391H5.359V-7.672H7.781v1.281H7.125L4.625.125H3.25L.75-6.391H.141Zm0,0" fill="#fff"/>
      </g>
    </g>
    <g id="Group_4628" data-name="Group 4628">
      <g id="Group_4627" data-name="Group 4627" transform="translate(173.91 312.009)">
        <path id="Path_42192" data-name="Path 42192" d="M2.047-3.656a3.422,3.422,0,0,0,.047.594,2.785,2.785,0,0,0,.141.516,2.083,2.083,0,0,0,.859,1.109,2.567,2.567,0,0,0,1.375.375,4.256,4.256,0,0,0,1.156-.156,5.566,5.566,0,0,0,1.2-.531l.547.938a5.6,5.6,0,0,1-1.516.781,5.148,5.148,0,0,1-1.578.25,4.173,4.173,0,0,1-1.453-.25A3.149,3.149,0,0,1,1.688-.812,3.662,3.662,0,0,1,.953-2.078,5.343,5.343,0,0,1,.688-3.859,5.214,5.214,0,0,1,.906-5.406a3.782,3.782,0,0,1,.688-1.281,3.2,3.2,0,0,1,1.125-.859A3.717,3.717,0,0,1,4.3-7.859a3.473,3.473,0,0,1,1.438.266,2.524,2.524,0,0,1,.938.688,2.97,2.97,0,0,1,.563,1A4.91,4.91,0,0,1,7.5-4.781a3.535,3.535,0,0,1,.047.578c.008.188.016.371.016.547ZM4.2-6.719a2.3,2.3,0,0,0-.844.141,1.623,1.623,0,0,0-.609.406,1.862,1.862,0,0,0-.406.625,3.474,3.474,0,0,0-.234.813H6.094a3.966,3.966,0,0,0-.141-.781,1.841,1.841,0,0,0-.328-.641,1.422,1.422,0,0,0-.578-.406A2.086,2.086,0,0,0,4.2-6.719Zm0,0" fill="#fff"/>
      </g>
    </g>
    <g id="Group_4630" data-name="Group 4630">
      <g id="Group_4629" data-name="Group 4629" transform="translate(182.603 312.009)">
        <path id="Path_42193" data-name="Path 42193" d="M.688-11.516H3.172v10.25H4.328V0H.688V-1.266H1.8V-10.25H.688Zm0,0" fill="#fff"/>
      </g>
    </g>
    <g id="Group_4632" data-name="Group 4632">
      <g id="Group_4631" data-name="Group 4631" transform="translate(187.53 312.009)">
        <path id="Path_42194" data-name="Path 42194" d="M.641-3.828A4.618,4.618,0,0,1,.922-5.484a3.911,3.911,0,0,1,.8-1.281,3.4,3.4,0,0,1,1.219-.828,3.984,3.984,0,0,1,1.547-.3,3.984,3.984,0,0,1,1.547.3,3.374,3.374,0,0,1,1.219.813A3.814,3.814,0,0,1,8.031-5.5a4.618,4.618,0,0,1,.281,1.656A4.637,4.637,0,0,1,8.031-2.2a3.966,3.966,0,0,1-.781,1.3,3.661,3.661,0,0,1-1.219.844,3.984,3.984,0,0,1-1.547.3,4.021,4.021,0,0,1-1.562-.3A3.608,3.608,0,0,1,1.7-.891a3.9,3.9,0,0,1-.781-1.3A4.637,4.637,0,0,1,.641-3.828Zm1.453,0a3.54,3.54,0,0,0,.188,1.188,2.734,2.734,0,0,0,.516.906,2.245,2.245,0,0,0,.766.578,2.132,2.132,0,0,0,.922.2,2.22,2.22,0,0,0,.953-.2A2.283,2.283,0,0,0,6.2-1.734a2.577,2.577,0,0,0,.5-.906,3.54,3.54,0,0,0,.188-1.187A3.711,3.711,0,0,0,6.7-5.062a2.446,2.446,0,0,0-.5-.906,2.071,2.071,0,0,0-.766-.547A2.4,2.4,0,0,0,4.484-6.7a2.3,2.3,0,0,0-.922.188,2.206,2.206,0,0,0-.766.547,2.585,2.585,0,0,0-.516.906A3.711,3.711,0,0,0,2.094-3.828Zm0,0" fill="#fff"/>
      </g>
    </g>
    <g id="Group_4634" data-name="Group 4634">
      <g id="Group_4633" data-name="Group 4633" transform="translate(196.594 312.009)">
        <path id="Path_42195" data-name="Path 42195" d="M.438-7.672H2.875v.641a4.525,4.525,0,0,1,1.063-.594,3.158,3.158,0,0,1,1.2-.234,3.317,3.317,0,0,1,1.375.281,3.126,3.126,0,0,1,1.094.8,3.745,3.745,0,0,1,.7,1.234,4.76,4.76,0,0,1,.25,1.578,4.84,4.84,0,0,1-.281,1.688A3.966,3.966,0,0,1,7.5-.984a3.606,3.606,0,0,1-1.187.859A3.842,3.842,0,0,1,4.8.172,3.925,3.925,0,0,1,3.766.047a5.961,5.961,0,0,1-.875-.312V2.219h1.2V3.484H.453V2.219H1.5V-6.391H.438ZM4.766-6.641a2.56,2.56,0,0,0-1.031.219,2.7,2.7,0,0,0-.844.594v4.141a2.043,2.043,0,0,0,.7.469,2.987,2.987,0,0,0,1.141.188,2.283,2.283,0,0,0,.906-.187,2.191,2.191,0,0,0,.766-.547,2.724,2.724,0,0,0,.531-.906,3.631,3.631,0,0,0,.2-1.25,3.293,3.293,0,0,0-.187-1.156,2.474,2.474,0,0,0-.516-.844,1.983,1.983,0,0,0-.75-.531A2.249,2.249,0,0,0,4.766-6.641Zm0,0" fill="#fff"/>
      </g>
    </g>
    <g id="Group_4636" data-name="Group 4636">
      <g id="Group_4635" data-name="Group 4635" transform="translate(205.835 312.009)">
        <path id="Path_42196" data-name="Path 42196" d="M2.047-3.656a3.422,3.422,0,0,0,.047.594,2.785,2.785,0,0,0,.141.516,2.083,2.083,0,0,0,.859,1.109,2.567,2.567,0,0,0,1.375.375,4.256,4.256,0,0,0,1.156-.156,5.566,5.566,0,0,0,1.2-.531l.547.938a5.6,5.6,0,0,1-1.516.781,5.148,5.148,0,0,1-1.578.25,4.173,4.173,0,0,1-1.453-.25A3.149,3.149,0,0,1,1.688-.812,3.662,3.662,0,0,1,.953-2.078,5.343,5.343,0,0,1,.688-3.859,5.214,5.214,0,0,1,.906-5.406a3.782,3.782,0,0,1,.688-1.281,3.2,3.2,0,0,1,1.125-.859A3.717,3.717,0,0,1,4.3-7.859a3.473,3.473,0,0,1,1.438.266,2.524,2.524,0,0,1,.938.688,2.97,2.97,0,0,1,.563,1A4.91,4.91,0,0,1,7.5-4.781a3.535,3.535,0,0,1,.047.578c.008.188.016.371.016.547ZM4.2-6.719a2.3,2.3,0,0,0-.844.141,1.623,1.623,0,0,0-.609.406,1.862,1.862,0,0,0-.406.625,3.474,3.474,0,0,0-.234.813H6.094a3.966,3.966,0,0,0-.141-.781,1.841,1.841,0,0,0-.328-.641,1.422,1.422,0,0,0-.578-.406A2.086,2.086,0,0,0,4.2-6.719Zm0,0" fill="#fff"/>
      </g>
    </g>
    <g id="Group_4638" data-name="Group 4638">
      <g id="Group_4637" data-name="Group 4637" transform="translate(214.528 312.009)">
        <path id="Path_42197" data-name="Path 42197" d="M6.25-6.047H4.844v-.469a1.5,1.5,0,0,0-.5.094,1.529,1.529,0,0,0-.469.281,1.816,1.816,0,0,0-.391.484,1.983,1.983,0,0,0-.25.688v3.7H4.547V0H.734V-1.266H1.8l.016-5.125H.734V-7.672H3.188v1.063a4.512,4.512,0,0,1,.3-.437,2.508,2.508,0,0,1,.375-.359,1.512,1.512,0,0,1,.453-.234,1.8,1.8,0,0,1,.531-.078H6.25Zm0,0" fill="#fff"/>
      </g>
    </g>
    <g id="Group_4640" data-name="Group 4640">
      <g id="Group_4639" data-name="Group 4639" transform="translate(221.631 312.009)">
        <path id="Path_42198" data-name="Path 42198" d="M5.172-5.609a.917.917,0,0,0-.156-.531,1.026,1.026,0,0,0-.375-.344,1.583,1.583,0,0,0-.5-.2,2.7,2.7,0,0,0-.547-.062,2.364,2.364,0,0,0-.547.063,1.437,1.437,0,0,0-.437.188.85.85,0,0,0-.266.313.843.843,0,0,0-.094.406.846.846,0,0,0,.219.609,2.162,2.162,0,0,0,.781.406l1.484.531a2.905,2.905,0,0,1,1.375.859,2.061,2.061,0,0,1,.438,1.313,2.17,2.17,0,0,1-.2.938,2.022,2.022,0,0,1-.578.719,2.841,2.841,0,0,1-.906.469A3.687,3.687,0,0,1,3.7.234,3.252,3.252,0,0,1,2.25-.047a2.242,2.242,0,0,1-.875-.781H.609V-2.094H2.141a1.109,1.109,0,0,0,.125.547,1.128,1.128,0,0,0,.359.359,2.03,2.03,0,0,0,.516.219,2.762,2.762,0,0,0,.594.063,2.326,2.326,0,0,0,.547-.062,1.618,1.618,0,0,0,.469-.219,1.081,1.081,0,0,0,.313-.328.777.777,0,0,0,.125-.437.881.881,0,0,0-.234-.625,1.983,1.983,0,0,0-.812-.469L2.672-3.594a3.261,3.261,0,0,1-1.328-.812A1.8,1.8,0,0,1,.906-5.641a2.235,2.235,0,0,1,.172-.891,2.018,2.018,0,0,1,.531-.719,2.4,2.4,0,0,1,.844-.469,3.519,3.519,0,0,1,1.141-.172,3.476,3.476,0,0,1,1.359.234,2.5,2.5,0,0,1,1.016.781h.719v1.266Zm0,0" fill="#fff"/>
      </g>
    </g>
    <g id="Group_4642" data-name="Group 4642">
      <g id="Group_4641" data-name="Group 4641" transform="translate(148.612 333.009)">
        <path id="Path_42199" data-name="Path 42199" d="M.141-7.672H2.578v1.281H2.219L3.563-1.5,5.391-7.672H6.547L8.3-1.516,9.7-6.391H9.266V-7.672h2.422v1.281h-.656L8.922.125H7.656L5.906-6,4.188.125h-1.3L.813-6.391H.141Zm0,0" fill="#fff"/>
      </g>
    </g>
    <g id="Group_4644" data-name="Group 4644">
      <g id="Group_4643" data-name="Group 4643" transform="translate(160.745 333.009)">
        <path id="Path_42200" data-name="Path 42200" d="M.641-3.828A4.618,4.618,0,0,1,.922-5.484a3.911,3.911,0,0,1,.8-1.281,3.4,3.4,0,0,1,1.219-.828,3.984,3.984,0,0,1,1.547-.3,3.984,3.984,0,0,1,1.547.3,3.374,3.374,0,0,1,1.219.813A3.814,3.814,0,0,1,8.031-5.5a4.618,4.618,0,0,1,.281,1.656A4.637,4.637,0,0,1,8.031-2.2a3.966,3.966,0,0,1-.781,1.3,3.661,3.661,0,0,1-1.219.844,3.984,3.984,0,0,1-1.547.3,4.021,4.021,0,0,1-1.562-.3A3.608,3.608,0,0,1,1.7-.891a3.9,3.9,0,0,1-.781-1.3A4.637,4.637,0,0,1,.641-3.828Zm1.453,0a3.54,3.54,0,0,0,.188,1.188,2.734,2.734,0,0,0,.516.906,2.245,2.245,0,0,0,.766.578,2.132,2.132,0,0,0,.922.2,2.22,2.22,0,0,0,.953-.2A2.283,2.283,0,0,0,6.2-1.734a2.577,2.577,0,0,0,.5-.906,3.54,3.54,0,0,0,.188-1.187A3.711,3.711,0,0,0,6.7-5.062a2.446,2.446,0,0,0-.5-.906,2.071,2.071,0,0,0-.766-.547A2.4,2.4,0,0,0,4.484-6.7a2.3,2.3,0,0,0-.922.188,2.206,2.206,0,0,0-.766.547,2.585,2.585,0,0,0-.516.906A3.711,3.711,0,0,0,2.094-3.828Zm0,0" fill="#fff"/>
      </g>
    </g>
    <g id="Group_4646" data-name="Group 4646">
      <g id="Group_4645" data-name="Group 4645" transform="translate(169.809 333.009)">
        <path id="Path_42201" data-name="Path 42201" d="M6.25-6.047H4.844v-.469a1.5,1.5,0,0,0-.5.094,1.529,1.529,0,0,0-.469.281,1.816,1.816,0,0,0-.391.484,1.983,1.983,0,0,0-.25.688v3.7H4.547V0H.734V-1.266H1.8l.016-5.125H.734V-7.672H3.188v1.063a4.512,4.512,0,0,1,.3-.437,2.508,2.508,0,0,1,.375-.359,1.512,1.512,0,0,1,.453-.234,1.8,1.8,0,0,1,.531-.078H6.25Zm0,0" fill="#fff"/>
      </g>
    </g>
    <g id="Group_4648" data-name="Group 4648">
      <g id="Group_4647" data-name="Group 4647" transform="translate(176.911 333.009)">
        <path id="Path_42202" data-name="Path 42202" d="M.688-11.516H3.172v10.25H4.328V0H.688V-1.266H1.8V-10.25H.688Zm0,0" fill="#fff"/>
      </g>
    </g>
    <g id="Group_4650" data-name="Group 4650">
      <g id="Group_4649" data-name="Group 4649" transform="translate(181.839 333.009)">
        <path id="Path_42203" data-name="Path 42203" d="M5.266-11.516H7.688v10.25H8.813V0h-2.5V-.625a2.82,2.82,0,0,1-.875.594,2.857,2.857,0,0,1-1.094.2A3.923,3.923,0,0,1,2.891-.094a3.468,3.468,0,0,1-1.172-.8A3.682,3.682,0,0,1,.953-2.172,5.185,5.185,0,0,1,.688-3.906,4.561,4.561,0,0,1,.953-5.516a3.549,3.549,0,0,1,.75-1.25,3.252,3.252,0,0,1,1.172-.8,3.865,3.865,0,0,1,1.531-.3,3.888,3.888,0,0,1,1.016.125,2.7,2.7,0,0,1,.891.438V-10.25H5.266ZM4.516-1.031A2.578,2.578,0,0,0,5.531-1.2a2.58,2.58,0,0,0,.781-.547v-4.3A2.39,2.39,0,0,0,5.453-6.5a3.527,3.527,0,0,0-.984-.141,2.3,2.3,0,0,0-.922.188,2.112,2.112,0,0,0-.75.531,2.571,2.571,0,0,0-.5.844,3.293,3.293,0,0,0-.187,1.156,4.081,4.081,0,0,0,.172,1.25,2.616,2.616,0,0,0,.5.906,2,2,0,0,0,.75.547A2.54,2.54,0,0,0,4.516-1.031Zm0,0" fill="#fff"/>
      </g>
    </g>
    <g id="Group_4652" data-name="Group 4652">
      <g id="Group_4651" data-name="Group 4651" transform="translate(191.22 333.009)">
        <path id="Path_42204" data-name="Path 42204" d="M.141-7.672H2.578v1.281H2.219L3.563-1.5,5.391-7.672H6.547L8.3-1.516,9.7-6.391H9.266V-7.672h2.422v1.281h-.656L8.922.125H7.656L5.906-6,4.188.125h-1.3L.813-6.391H.141Zm0,0" fill="#fff"/>
      </g>
    </g>
    <g id="Group_4654" data-name="Group 4654">
      <g id="Group_4653" data-name="Group 4653" transform="translate(203.354 333.009)">
        <path id="Path_42205" data-name="Path 42205" d="M.688-7.672h2.5v6.406H4.344V0H.7V-1.266H1.8V-6.391H.688Zm.844-2.719a.829.829,0,0,1,.078-.359.979.979,0,0,1,.2-.3,1.077,1.077,0,0,1,.313-.219.907.907,0,0,1,.375-.078.889.889,0,0,1,.359.078.9.9,0,0,1,.313.219,1.143,1.143,0,0,1,.2.3.889.889,0,0,1,.078.359A1.025,1.025,0,0,1,3.375-10a1.3,1.3,0,0,1-.2.313.853.853,0,0,1-.312.219,1.024,1.024,0,0,1-.359.063,1.05,1.05,0,0,1-.375-.062,1.006,1.006,0,0,1-.312-.219,1.1,1.1,0,0,1-.2-.312A.956.956,0,0,1,1.531-10.391Zm0,0" fill="#fff"/>
      </g>
    </g>
    <g id="Group_4656" data-name="Group 4656">
      <g id="Group_4655" data-name="Group 4655" transform="translate(208.215 333.009)">
        <path id="Path_42206" data-name="Path 42206" d="M5.266-11.516H7.688v10.25H8.813V0h-2.5V-.625a2.82,2.82,0,0,1-.875.594,2.857,2.857,0,0,1-1.094.2A3.923,3.923,0,0,1,2.891-.094a3.468,3.468,0,0,1-1.172-.8A3.682,3.682,0,0,1,.953-2.172,5.185,5.185,0,0,1,.688-3.906,4.561,4.561,0,0,1,.953-5.516a3.549,3.549,0,0,1,.75-1.25,3.252,3.252,0,0,1,1.172-.8,3.865,3.865,0,0,1,1.531-.3,3.888,3.888,0,0,1,1.016.125,2.7,2.7,0,0,1,.891.438V-10.25H5.266ZM4.516-1.031A2.578,2.578,0,0,0,5.531-1.2a2.58,2.58,0,0,0,.781-.547v-4.3A2.39,2.39,0,0,0,5.453-6.5a3.527,3.527,0,0,0-.984-.141,2.3,2.3,0,0,0-.922.188,2.112,2.112,0,0,0-.75.531,2.571,2.571,0,0,0-.5.844,3.293,3.293,0,0,0-.187,1.156,4.081,4.081,0,0,0,.172,1.25,2.616,2.616,0,0,0,.5.906,2,2,0,0,0,.75.547A2.54,2.54,0,0,0,4.516-1.031Zm0,0" fill="#fff"/>
      </g>
    </g>
    <g id="Group_4658" data-name="Group 4658">
      <g id="Group_4657" data-name="Group 4657" transform="translate(217.596 333.009)">
        <path id="Path_42207" data-name="Path 42207" d="M2.047-3.656a3.422,3.422,0,0,0,.047.594,2.785,2.785,0,0,0,.141.516,2.083,2.083,0,0,0,.859,1.109,2.567,2.567,0,0,0,1.375.375,4.256,4.256,0,0,0,1.156-.156,5.566,5.566,0,0,0,1.2-.531l.547.938a5.6,5.6,0,0,1-1.516.781,5.148,5.148,0,0,1-1.578.25,4.173,4.173,0,0,1-1.453-.25A3.149,3.149,0,0,1,1.688-.812,3.662,3.662,0,0,1,.953-2.078,5.343,5.343,0,0,1,.688-3.859,5.214,5.214,0,0,1,.906-5.406a3.782,3.782,0,0,1,.688-1.281,3.2,3.2,0,0,1,1.125-.859A3.717,3.717,0,0,1,4.3-7.859a3.473,3.473,0,0,1,1.438.266,2.524,2.524,0,0,1,.938.688,2.97,2.97,0,0,1,.563,1A4.91,4.91,0,0,1,7.5-4.781a3.535,3.535,0,0,1,.047.578c.008.188.016.371.016.547ZM4.2-6.719a2.3,2.3,0,0,0-.844.141,1.623,1.623,0,0,0-.609.406,1.862,1.862,0,0,0-.406.625,3.474,3.474,0,0,0-.234.813H6.094a3.966,3.966,0,0,0-.141-.781,1.841,1.841,0,0,0-.328-.641,1.422,1.422,0,0,0-.578-.406A2.086,2.086,0,0,0,4.2-6.719Zm0,0" fill="#fff"/>
      </g>
    </g>
    <g id="Group_4659" data-name="Group 4659" clip-path="url(#clip-path-3)">
      <path id="Path_42208" data-name="Path 42208" d="M500.762,239.992h154.5v154.5h-154.5Zm0,0" fill="#2B1867"/>
    </g>
    <g id="Group_4661" data-name="Group 4661">
      <g id="Group_4660" data-name="Group 4660" transform="translate(535.968 312.009)">
        <path id="Path_42210" data-name="Path 42210" d="M1.063-11.219H5.234a5.225,5.225,0,0,1,1.453.2,5.518,5.518,0,0,1,1.3.563,5.034,5.034,0,0,1,1.094.875,5.5,5.5,0,0,1,.828,1.125,5.686,5.686,0,0,1,.531,1.328,5.879,5.879,0,0,1,.188,1.484,5.889,5.889,0,0,1-.187,1.5,6.223,6.223,0,0,1-.531,1.359,5.716,5.716,0,0,1-.828,1.141,4.92,4.92,0,0,1-1.094.875,5.214,5.214,0,0,1-1.3.563A5.083,5.083,0,0,1,5.234,0H1.063V-1.266H2.125V-9.937H1.063ZM3.578-9.937v8.672h1.75a3.206,3.206,0,0,0,1.453-.344,3.79,3.79,0,0,0,1.188-.922,4.5,4.5,0,0,0,.813-1.391,4.933,4.933,0,0,0,.3-1.719,4.79,4.79,0,0,0-.3-1.687,4.384,4.384,0,0,0-.812-1.359,3.686,3.686,0,0,0-1.187-.906,3.257,3.257,0,0,0-1.453-.344Zm0,0" fill="#fff"/>
      </g>
    </g>
    <g id="Group_4663" data-name="Group 4663">
      <g id="Group_4662" data-name="Group 4662" transform="translate(547.118 312.009)">
        <path id="Path_42211" data-name="Path 42211" d="M2.047-3.656a3.422,3.422,0,0,0,.047.594,2.785,2.785,0,0,0,.141.516,2.083,2.083,0,0,0,.859,1.109,2.567,2.567,0,0,0,1.375.375,4.256,4.256,0,0,0,1.156-.156,5.566,5.566,0,0,0,1.2-.531l.547.938a5.6,5.6,0,0,1-1.516.781,5.148,5.148,0,0,1-1.578.25,4.173,4.173,0,0,1-1.453-.25A3.149,3.149,0,0,1,1.688-.812,3.662,3.662,0,0,1,.953-2.078,5.343,5.343,0,0,1,.688-3.859,5.214,5.214,0,0,1,.906-5.406a3.782,3.782,0,0,1,.688-1.281,3.2,3.2,0,0,1,1.125-.859A3.717,3.717,0,0,1,4.3-7.859a3.473,3.473,0,0,1,1.438.266,2.524,2.524,0,0,1,.938.688,2.97,2.97,0,0,1,.563,1A4.91,4.91,0,0,1,7.5-4.781a3.535,3.535,0,0,1,.047.578c.008.188.016.371.016.547ZM4.2-6.719a2.3,2.3,0,0,0-.844.141,1.623,1.623,0,0,0-.609.406,1.862,1.862,0,0,0-.406.625,3.474,3.474,0,0,0-.234.813H6.094a3.966,3.966,0,0,0-.141-.781,1.841,1.841,0,0,0-.328-.641,1.422,1.422,0,0,0-.578-.406A2.086,2.086,0,0,0,4.2-6.719Zm0,0" fill="#fff"/>
      </g>
    </g>
    <g id="Group_4665" data-name="Group 4665">
      <g id="Group_4664" data-name="Group 4664" transform="translate(555.811 312.009)">
        <path id="Path_42212" data-name="Path 42212" d="M.141-7.672H2.8v1.281H2.078L3.969-1.109,5.828-6.391H5.359V-7.672H7.781v1.281H7.125L4.625.125H3.25L.75-6.391H.141Zm0,0" fill="#fff"/>
      </g>
    </g>
    <g id="Group_4667" data-name="Group 4667">
      <g id="Group_4666" data-name="Group 4666" transform="translate(563.95 312.009)">
        <path id="Path_42213" data-name="Path 42213" d="M2.047-3.656a3.422,3.422,0,0,0,.047.594,2.785,2.785,0,0,0,.141.516,2.083,2.083,0,0,0,.859,1.109,2.567,2.567,0,0,0,1.375.375,4.256,4.256,0,0,0,1.156-.156,5.566,5.566,0,0,0,1.2-.531l.547.938a5.6,5.6,0,0,1-1.516.781,5.148,5.148,0,0,1-1.578.25,4.173,4.173,0,0,1-1.453-.25A3.149,3.149,0,0,1,1.688-.812,3.662,3.662,0,0,1,.953-2.078,5.343,5.343,0,0,1,.688-3.859,5.214,5.214,0,0,1,.906-5.406a3.782,3.782,0,0,1,.688-1.281,3.2,3.2,0,0,1,1.125-.859A3.717,3.717,0,0,1,4.3-7.859a3.473,3.473,0,0,1,1.438.266,2.524,2.524,0,0,1,.938.688,2.97,2.97,0,0,1,.563,1A4.91,4.91,0,0,1,7.5-4.781a3.535,3.535,0,0,1,.047.578c.008.188.016.371.016.547ZM4.2-6.719a2.3,2.3,0,0,0-.844.141,1.623,1.623,0,0,0-.609.406,1.862,1.862,0,0,0-.406.625,3.474,3.474,0,0,0-.234.813H6.094a3.966,3.966,0,0,0-.141-.781,1.841,1.841,0,0,0-.328-.641,1.422,1.422,0,0,0-.578-.406A2.086,2.086,0,0,0,4.2-6.719Zm0,0" fill="#fff"/>
      </g>
    </g>
    <g id="Group_4669" data-name="Group 4669">
      <g id="Group_4668" data-name="Group 4668" transform="translate(572.643 312.009)">
        <path id="Path_42214" data-name="Path 42214" d="M.688-11.516H3.172v10.25H4.328V0H.688V-1.266H1.8V-10.25H.688Zm0,0" fill="#fff"/>
      </g>
    </g>
    <g id="Group_4671" data-name="Group 4671">
      <g id="Group_4670" data-name="Group 4670" transform="translate(577.571 312.009)">
        <path id="Path_42215" data-name="Path 42215" d="M.641-3.828A4.618,4.618,0,0,1,.922-5.484a3.911,3.911,0,0,1,.8-1.281,3.4,3.4,0,0,1,1.219-.828,3.984,3.984,0,0,1,1.547-.3,3.984,3.984,0,0,1,1.547.3,3.374,3.374,0,0,1,1.219.813A3.814,3.814,0,0,1,8.031-5.5a4.618,4.618,0,0,1,.281,1.656A4.637,4.637,0,0,1,8.031-2.2a3.966,3.966,0,0,1-.781,1.3,3.661,3.661,0,0,1-1.219.844,3.984,3.984,0,0,1-1.547.3,4.021,4.021,0,0,1-1.562-.3A3.608,3.608,0,0,1,1.7-.891a3.9,3.9,0,0,1-.781-1.3A4.637,4.637,0,0,1,.641-3.828Zm1.453,0a3.54,3.54,0,0,0,.188,1.188,2.734,2.734,0,0,0,.516.906,2.245,2.245,0,0,0,.766.578,2.132,2.132,0,0,0,.922.2,2.22,2.22,0,0,0,.953-.2A2.283,2.283,0,0,0,6.2-1.734a2.577,2.577,0,0,0,.5-.906,3.54,3.54,0,0,0,.188-1.187A3.711,3.711,0,0,0,6.7-5.062a2.446,2.446,0,0,0-.5-.906,2.071,2.071,0,0,0-.766-.547A2.4,2.4,0,0,0,4.484-6.7a2.3,2.3,0,0,0-.922.188,2.206,2.206,0,0,0-.766.547,2.585,2.585,0,0,0-.516.906A3.711,3.711,0,0,0,2.094-3.828Zm0,0" fill="#fff"/>
      </g>
    </g>
    <g id="Group_4673" data-name="Group 4673">
      <g id="Group_4672" data-name="Group 4672" transform="translate(586.634 312.009)">
        <path id="Path_42216" data-name="Path 42216" d="M.438-7.672H2.875v.641a4.525,4.525,0,0,1,1.063-.594,3.158,3.158,0,0,1,1.2-.234,3.317,3.317,0,0,1,1.375.281,3.126,3.126,0,0,1,1.094.8,3.745,3.745,0,0,1,.7,1.234,4.76,4.76,0,0,1,.25,1.578,4.84,4.84,0,0,1-.281,1.688A3.966,3.966,0,0,1,7.5-.984a3.606,3.606,0,0,1-1.187.859A3.842,3.842,0,0,1,4.8.172,3.925,3.925,0,0,1,3.766.047a5.961,5.961,0,0,1-.875-.312V2.219h1.2V3.484H.453V2.219H1.5V-6.391H.438ZM4.766-6.641a2.56,2.56,0,0,0-1.031.219,2.7,2.7,0,0,0-.844.594v4.141a2.043,2.043,0,0,0,.7.469,2.987,2.987,0,0,0,1.141.188,2.283,2.283,0,0,0,.906-.187,2.191,2.191,0,0,0,.766-.547,2.724,2.724,0,0,0,.531-.906,3.631,3.631,0,0,0,.2-1.25,3.293,3.293,0,0,0-.187-1.156,2.474,2.474,0,0,0-.516-.844,1.983,1.983,0,0,0-.75-.531A2.249,2.249,0,0,0,4.766-6.641Zm0,0" fill="#fff"/>
      </g>
    </g>
    <g id="Group_4675" data-name="Group 4675">
      <g id="Group_4674" data-name="Group 4674" transform="translate(595.875 312.009)">
        <path id="Path_42217" data-name="Path 42217" d="M2.047-3.656a3.422,3.422,0,0,0,.047.594,2.785,2.785,0,0,0,.141.516,2.083,2.083,0,0,0,.859,1.109,2.567,2.567,0,0,0,1.375.375,4.256,4.256,0,0,0,1.156-.156,5.566,5.566,0,0,0,1.2-.531l.547.938a5.6,5.6,0,0,1-1.516.781,5.148,5.148,0,0,1-1.578.25,4.173,4.173,0,0,1-1.453-.25A3.149,3.149,0,0,1,1.688-.812,3.662,3.662,0,0,1,.953-2.078,5.343,5.343,0,0,1,.688-3.859,5.214,5.214,0,0,1,.906-5.406a3.782,3.782,0,0,1,.688-1.281,3.2,3.2,0,0,1,1.125-.859A3.717,3.717,0,0,1,4.3-7.859a3.473,3.473,0,0,1,1.438.266,2.524,2.524,0,0,1,.938.688,2.97,2.97,0,0,1,.563,1A4.91,4.91,0,0,1,7.5-4.781a3.535,3.535,0,0,1,.047.578c.008.188.016.371.016.547ZM4.2-6.719a2.3,2.3,0,0,0-.844.141,1.623,1.623,0,0,0-.609.406,1.862,1.862,0,0,0-.406.625,3.474,3.474,0,0,0-.234.813H6.094a3.966,3.966,0,0,0-.141-.781,1.841,1.841,0,0,0-.328-.641,1.422,1.422,0,0,0-.578-.406A2.086,2.086,0,0,0,4.2-6.719Zm0,0" fill="#fff"/>
      </g>
    </g>
    <g id="Group_4677" data-name="Group 4677">
      <g id="Group_4676" data-name="Group 4676" transform="translate(604.568 312.009)">
        <path id="Path_42218" data-name="Path 42218" d="M6.25-6.047H4.844v-.469a1.5,1.5,0,0,0-.5.094,1.529,1.529,0,0,0-.469.281,1.816,1.816,0,0,0-.391.484,1.983,1.983,0,0,0-.25.688v3.7H4.547V0H.734V-1.266H1.8l.016-5.125H.734V-7.672H3.188v1.063a4.512,4.512,0,0,1,.3-.437,2.508,2.508,0,0,1,.375-.359,1.512,1.512,0,0,1,.453-.234,1.8,1.8,0,0,1,.531-.078H6.25Zm0,0" fill="#fff"/>
      </g>
    </g>
    <g id="Group_4679" data-name="Group 4679">
      <g id="Group_4678" data-name="Group 4678" transform="translate(611.671 312.009)">
        <path id="Path_42219" data-name="Path 42219" d="M5.172-5.609a.917.917,0,0,0-.156-.531,1.026,1.026,0,0,0-.375-.344,1.583,1.583,0,0,0-.5-.2,2.7,2.7,0,0,0-.547-.062,2.364,2.364,0,0,0-.547.063,1.437,1.437,0,0,0-.437.188.85.85,0,0,0-.266.313.843.843,0,0,0-.094.406.846.846,0,0,0,.219.609,2.162,2.162,0,0,0,.781.406l1.484.531a2.905,2.905,0,0,1,1.375.859,2.061,2.061,0,0,1,.438,1.313,2.17,2.17,0,0,1-.2.938,2.022,2.022,0,0,1-.578.719,2.841,2.841,0,0,1-.906.469A3.687,3.687,0,0,1,3.7.234,3.252,3.252,0,0,1,2.25-.047a2.242,2.242,0,0,1-.875-.781H.609V-2.094H2.141a1.109,1.109,0,0,0,.125.547,1.128,1.128,0,0,0,.359.359,2.03,2.03,0,0,0,.516.219,2.762,2.762,0,0,0,.594.063,2.326,2.326,0,0,0,.547-.062,1.618,1.618,0,0,0,.469-.219,1.081,1.081,0,0,0,.313-.328.777.777,0,0,0,.125-.437.881.881,0,0,0-.234-.625,1.983,1.983,0,0,0-.812-.469L2.672-3.594a3.261,3.261,0,0,1-1.328-.812A1.8,1.8,0,0,1,.906-5.641a2.235,2.235,0,0,1,.172-.891,2.018,2.018,0,0,1,.531-.719,2.4,2.4,0,0,1,.844-.469,3.519,3.519,0,0,1,1.141-.172,3.476,3.476,0,0,1,1.359.234,2.5,2.5,0,0,1,1.016.781h.719v1.266Zm0,0" fill="#fff"/>
      </g>
    </g>
    <g id="Group_4681" data-name="Group 4681">
      <g id="Group_4680" data-name="Group 4680" transform="translate(619.007 312.009)">
        <path id="Path_42220" data-name="Path 42220" d="M0,0ZM0,0"/>
      </g>
    </g>
    <g id="Group_4683" data-name="Group 4683">
      <g id="Group_4682" data-name="Group 4682" transform="translate(554.953 333.009)">
        <path id="Path_42221" data-name="Path 42221" d="M1.063-11.219H5.234a5.225,5.225,0,0,1,1.453.2,5.518,5.518,0,0,1,1.3.563,5.034,5.034,0,0,1,1.094.875,5.5,5.5,0,0,1,.828,1.125,5.686,5.686,0,0,1,.531,1.328,5.879,5.879,0,0,1,.188,1.484,5.889,5.889,0,0,1-.187,1.5,6.223,6.223,0,0,1-.531,1.359,5.716,5.716,0,0,1-.828,1.141,4.92,4.92,0,0,1-1.094.875,5.214,5.214,0,0,1-1.3.563A5.083,5.083,0,0,1,5.234,0H1.063V-1.266H2.125V-9.937H1.063ZM3.578-9.937v8.672h1.75a3.206,3.206,0,0,0,1.453-.344,3.79,3.79,0,0,0,1.188-.922,4.5,4.5,0,0,0,.813-1.391,4.933,4.933,0,0,0,.3-1.719,4.79,4.79,0,0,0-.3-1.687,4.384,4.384,0,0,0-.812-1.359,3.686,3.686,0,0,0-1.187-.906,3.257,3.257,0,0,0-1.453-.344Zm0,0" fill="#fff"/>
      </g>
    </g>
    <g id="Group_4685" data-name="Group 4685">
      <g id="Group_4684" data-name="Group 4684" transform="translate(566.102 333.009)">
        <path id="Path_42222" data-name="Path 42222" d="M7.7-1.266h.922L7.734-3.812H3.422L2.563-1.266H3.719V0H.078V-1.266h.969l3.5-9.953H6.734l3.484,9.953h1.125V0H7.7ZM3.844-5.047H7.313l-1.75-5.016Zm0,0" fill="#fff"/>
      </g>
    </g>
    <g id="Group_4687" data-name="Group 4687">
      <g id="Group_4686" data-name="Group 4686" transform="translate(577.511 333.009)">
        <path id="Path_42223" data-name="Path 42223" d="M.438-7.672H2.875v.641a4.525,4.525,0,0,1,1.063-.594,3.158,3.158,0,0,1,1.2-.234,3.317,3.317,0,0,1,1.375.281,3.126,3.126,0,0,1,1.094.8,3.745,3.745,0,0,1,.7,1.234,4.76,4.76,0,0,1,.25,1.578,4.84,4.84,0,0,1-.281,1.688A3.966,3.966,0,0,1,7.5-.984a3.606,3.606,0,0,1-1.187.859A3.842,3.842,0,0,1,4.8.172,3.925,3.925,0,0,1,3.766.047a5.961,5.961,0,0,1-.875-.312V2.219h1.2V3.484H.453V2.219H1.5V-6.391H.438ZM4.766-6.641a2.56,2.56,0,0,0-1.031.219,2.7,2.7,0,0,0-.844.594v4.141a2.043,2.043,0,0,0,.7.469,2.987,2.987,0,0,0,1.141.188,2.283,2.283,0,0,0,.906-.187,2.191,2.191,0,0,0,.766-.547,2.724,2.724,0,0,0,.531-.906,3.631,3.631,0,0,0,.2-1.25,3.293,3.293,0,0,0-.187-1.156,2.474,2.474,0,0,0-.516-.844,1.983,1.983,0,0,0-.75-.531A2.249,2.249,0,0,0,4.766-6.641Zm0,0" fill="#fff"/>
      </g>
    </g>
    <g id="Group_4689" data-name="Group 4689">
      <g id="Group_4688" data-name="Group 4688" transform="translate(586.752 333.009)">
        <path id="Path_42224" data-name="Path 42224" d="M.438-7.672H2.875v.641a4.525,4.525,0,0,1,1.063-.594,3.158,3.158,0,0,1,1.2-.234,3.317,3.317,0,0,1,1.375.281,3.126,3.126,0,0,1,1.094.8,3.745,3.745,0,0,1,.7,1.234,4.76,4.76,0,0,1,.25,1.578,4.84,4.84,0,0,1-.281,1.688A3.966,3.966,0,0,1,7.5-.984a3.606,3.606,0,0,1-1.187.859A3.842,3.842,0,0,1,4.8.172,3.925,3.925,0,0,1,3.766.047a5.961,5.961,0,0,1-.875-.312V2.219h1.2V3.484H.453V2.219H1.5V-6.391H.438ZM4.766-6.641a2.56,2.56,0,0,0-1.031.219,2.7,2.7,0,0,0-.844.594v4.141a2.043,2.043,0,0,0,.7.469,2.987,2.987,0,0,0,1.141.188,2.283,2.283,0,0,0,.906-.187,2.191,2.191,0,0,0,.766-.547,2.724,2.724,0,0,0,.531-.906,3.631,3.631,0,0,0,.2-1.25,3.293,3.293,0,0,0-.187-1.156,2.474,2.474,0,0,0-.516-.844,1.983,1.983,0,0,0-.75-.531A2.249,2.249,0,0,0,4.766-6.641Zm0,0" fill="#fff"/>
      </g>
    </g>
    <g id="Group_4691" data-name="Group 4691">
      <g id="Group_4690" data-name="Group 4690" transform="translate(595.993 333.009)">
        <path id="Path_42225" data-name="Path 42225" d="M5.172-5.609a.917.917,0,0,0-.156-.531,1.026,1.026,0,0,0-.375-.344,1.583,1.583,0,0,0-.5-.2,2.7,2.7,0,0,0-.547-.062,2.364,2.364,0,0,0-.547.063,1.437,1.437,0,0,0-.437.188.85.85,0,0,0-.266.313.843.843,0,0,0-.094.406.846.846,0,0,0,.219.609,2.162,2.162,0,0,0,.781.406l1.484.531a2.905,2.905,0,0,1,1.375.859,2.061,2.061,0,0,1,.438,1.313,2.17,2.17,0,0,1-.2.938,2.022,2.022,0,0,1-.578.719,2.841,2.841,0,0,1-.906.469A3.687,3.687,0,0,1,3.7.234,3.252,3.252,0,0,1,2.25-.047a2.242,2.242,0,0,1-.875-.781H.609V-2.094H2.141a1.109,1.109,0,0,0,.125.547,1.128,1.128,0,0,0,.359.359,2.03,2.03,0,0,0,.516.219,2.762,2.762,0,0,0,.594.063,2.326,2.326,0,0,0,.547-.062,1.618,1.618,0,0,0,.469-.219,1.081,1.081,0,0,0,.313-.328.777.777,0,0,0,.125-.437.881.881,0,0,0-.234-.625,1.983,1.983,0,0,0-.812-.469L2.672-3.594a3.261,3.261,0,0,1-1.328-.812A1.8,1.8,0,0,1,.906-5.641a2.235,2.235,0,0,1,.172-.891,2.018,2.018,0,0,1,.531-.719,2.4,2.4,0,0,1,.844-.469,3.519,3.519,0,0,1,1.141-.172,3.476,3.476,0,0,1,1.359.234,2.5,2.5,0,0,1,1.016.781h.719v1.266Zm0,0" fill="#fff"/>
      </g>
    </g>
    <g id="Group_4693" data-name="Group 4693">
      <g id="Group_4692" data-name="Group 4692" transform="translate(359.764 312.009)">
        <path id="Path_42226" data-name="Path 42226" d="M1.063-11.219H4.7v1.281H3.578v8.672H7.438a.459.459,0,0,0,.234-.062.955.955,0,0,0,.219-.141.581.581,0,0,0,.156-.2.554.554,0,0,0,.063-.234V-3.328H9.516V0H1.063V-1.266H2.125V-9.937H1.063Zm0,0" fill="#2B1867"/>
      </g>
    </g>
    <g id="Group_4695" data-name="Group 4695">
      <g id="Group_4694" data-name="Group 4694" transform="translate(369.353 312.009)">
        <path id="Path_42227" data-name="Path 42227" d="M2.047-3.656a3.422,3.422,0,0,0,.047.594,2.785,2.785,0,0,0,.141.516,2.083,2.083,0,0,0,.859,1.109,2.567,2.567,0,0,0,1.375.375,4.256,4.256,0,0,0,1.156-.156,5.566,5.566,0,0,0,1.2-.531l.547.938a5.6,5.6,0,0,1-1.516.781,5.148,5.148,0,0,1-1.578.25,4.173,4.173,0,0,1-1.453-.25A3.149,3.149,0,0,1,1.688-.812,3.662,3.662,0,0,1,.953-2.078,5.343,5.343,0,0,1,.688-3.859,5.214,5.214,0,0,1,.906-5.406a3.782,3.782,0,0,1,.688-1.281,3.2,3.2,0,0,1,1.125-.859A3.717,3.717,0,0,1,4.3-7.859a3.473,3.473,0,0,1,1.438.266,2.524,2.524,0,0,1,.938.688,2.97,2.97,0,0,1,.563,1A4.91,4.91,0,0,1,7.5-4.781a3.535,3.535,0,0,1,.047.578c.008.188.016.371.016.547ZM4.2-6.719a2.3,2.3,0,0,0-.844.141,1.623,1.623,0,0,0-.609.406,1.862,1.862,0,0,0-.406.625,3.474,3.474,0,0,0-.234.813H6.094a3.966,3.966,0,0,0-.141-.781,1.841,1.841,0,0,0-.328-.641,1.422,1.422,0,0,0-.578-.406A2.086,2.086,0,0,0,4.2-6.719Zm0,0" fill="#2B1867"/>
      </g>
    </g>
    <g id="Group_4697" data-name="Group 4697">
      <g id="Group_4696" data-name="Group 4696" transform="translate(378.046 312.009)">
        <path id="Path_42228" data-name="Path 42228" d="M.141-7.672H2.8v1.281H2.078L3.969-1.109,5.828-6.391H5.359V-7.672H7.781v1.281H7.125L4.625.125H3.25L.75-6.391H.141Zm0,0" fill="#2B1867"/>
      </g>
    </g>
    <g id="Group_4699" data-name="Group 4699">
      <g id="Group_4698" data-name="Group 4698" transform="translate(386.185 312.009)">
        <path id="Path_42229" data-name="Path 42229" d="M2.047-3.656a3.422,3.422,0,0,0,.047.594,2.785,2.785,0,0,0,.141.516,2.083,2.083,0,0,0,.859,1.109,2.567,2.567,0,0,0,1.375.375,4.256,4.256,0,0,0,1.156-.156,5.566,5.566,0,0,0,1.2-.531l.547.938a5.6,5.6,0,0,1-1.516.781,5.148,5.148,0,0,1-1.578.25,4.173,4.173,0,0,1-1.453-.25A3.149,3.149,0,0,1,1.688-.812,3.662,3.662,0,0,1,.953-2.078,5.343,5.343,0,0,1,.688-3.859,5.214,5.214,0,0,1,.906-5.406a3.782,3.782,0,0,1,.688-1.281,3.2,3.2,0,0,1,1.125-.859A3.717,3.717,0,0,1,4.3-7.859a3.473,3.473,0,0,1,1.438.266,2.524,2.524,0,0,1,.938.688,2.97,2.97,0,0,1,.563,1A4.91,4.91,0,0,1,7.5-4.781a3.535,3.535,0,0,1,.047.578c.008.188.016.371.016.547ZM4.2-6.719a2.3,2.3,0,0,0-.844.141,1.623,1.623,0,0,0-.609.406,1.862,1.862,0,0,0-.406.625,3.474,3.474,0,0,0-.234.813H6.094a3.966,3.966,0,0,0-.141-.781,1.841,1.841,0,0,0-.328-.641,1.422,1.422,0,0,0-.578-.406A2.086,2.086,0,0,0,4.2-6.719Zm0,0" fill="#2B1867"/>
      </g>
    </g>
    <g id="Group_4701" data-name="Group 4701">
      <g id="Group_4700" data-name="Group 4700" transform="translate(394.878 312.009)">
        <path id="Path_42230" data-name="Path 42230" d="M5.781-1.266H6.875v-3.5a1.833,1.833,0,0,0-.453-1.344,1.744,1.744,0,0,0-1.281-.453,2.3,2.3,0,0,0-.984.234,4.589,4.589,0,0,0-.922.563v4.5H4.328V0H.734V-1.266H1.813V-6.391H.734V-7.672H3.188v.906H3.2a4.147,4.147,0,0,1,.516-.406A4.475,4.475,0,0,1,4.3-7.5a3.756,3.756,0,0,1,.641-.219,2.477,2.477,0,0,1,.688-.094,3.442,3.442,0,0,1,1.109.172,2.145,2.145,0,0,1,.844.531,2.334,2.334,0,0,1,.531.891A3.872,3.872,0,0,1,8.3-4.937v3.672H9.375V0H5.781Zm0,0" fill="#2B1867"/>
      </g>
    </g>
    <g id="Group_4703" data-name="Group 4703">
      <g id="Group_4702" data-name="Group 4702" transform="translate(404.975 312.009)">
        <path id="Path_42231" data-name="Path 42231" d="M0,0ZM0,0"/>
      </g>
    </g>
    <g id="Group_4705" data-name="Group 4705">
      <g id="Group_4704" data-name="Group 4704" transform="translate(351.936 333.009)">
        <path id="Path_42232" data-name="Path 42232" d="M8-11.219h3.641v1.281h-.953V0H8.8L3.578-9.3v8.031H4.734V0H1.094V-1.266H2.125V-9.937H1.063v-1.3H4.078L9.2-2.016l.063-.359V-9.937H8Zm0,0" fill="#2B1867"/>
      </g>
    </g>
    <g id="Group_4707" data-name="Group 4707">
      <g id="Group_4706" data-name="Group 4706" transform="translate(363.951 333.009)">
        <path id="Path_42233" data-name="Path 42233" d="M2.047-3.656a3.422,3.422,0,0,0,.047.594,2.785,2.785,0,0,0,.141.516,2.083,2.083,0,0,0,.859,1.109,2.567,2.567,0,0,0,1.375.375,4.256,4.256,0,0,0,1.156-.156,5.566,5.566,0,0,0,1.2-.531l.547.938a5.6,5.6,0,0,1-1.516.781,5.148,5.148,0,0,1-1.578.25,4.173,4.173,0,0,1-1.453-.25A3.149,3.149,0,0,1,1.688-.812,3.662,3.662,0,0,1,.953-2.078,5.343,5.343,0,0,1,.688-3.859,5.214,5.214,0,0,1,.906-5.406a3.782,3.782,0,0,1,.688-1.281,3.2,3.2,0,0,1,1.125-.859A3.717,3.717,0,0,1,4.3-7.859a3.473,3.473,0,0,1,1.438.266,2.524,2.524,0,0,1,.938.688,2.97,2.97,0,0,1,.563,1A4.91,4.91,0,0,1,7.5-4.781a3.535,3.535,0,0,1,.047.578c.008.188.016.371.016.547ZM4.2-6.719a2.3,2.3,0,0,0-.844.141,1.623,1.623,0,0,0-.609.406,1.862,1.862,0,0,0-.406.625,3.474,3.474,0,0,0-.234.813H6.094a3.966,3.966,0,0,0-.141-.781,1.841,1.841,0,0,0-.328-.641,1.422,1.422,0,0,0-.578-.406A2.086,2.086,0,0,0,4.2-6.719Zm0,0" fill="#2B1867"/>
      </g>
    </g>
    <g id="Group_4709" data-name="Group 4709">
      <g id="Group_4708" data-name="Group 4708" transform="translate(372.645 333.009)">
        <path id="Path_42234" data-name="Path 42234" d="M2.953-7.672H4.766v1.125H2.953L2.922-2.125a2.364,2.364,0,0,0,.094.734A.661.661,0,0,0,3.359-1a1.185,1.185,0,0,0,.516.109,2.826,2.826,0,0,0,.547-.047,2.593,2.593,0,0,0,.516-.2l.328.922a4.1,4.1,0,0,1-.75.3,3.573,3.573,0,0,1-.922.109A2.8,2.8,0,0,1,2.719.063a1.513,1.513,0,0,1-.641-.406A1.9,1.9,0,0,1,1.7-1.125a4.758,4.758,0,0,1-.125-1.2l.016-4.219H.375V-7.672H1.609V-9.5l1.344-.641Zm0,0" fill="#2B1867"/>
      </g>
    </g>
    <g id="Group_4711" data-name="Group 4711">
      <g id="Group_4710" data-name="Group 4710" transform="translate(378.282 333.009)">
        <path id="Path_42235" data-name="Path 42235" d="M.141-7.672H2.578v1.281H2.219L3.563-1.5,5.391-7.672H6.547L8.3-1.516,9.7-6.391H9.266V-7.672h2.422v1.281h-.656L8.922.125H7.656L5.906-6,4.188.125h-1.3L.813-6.391H.141Zm0,0" fill="#2B1867"/>
      </g>
    </g>
    <g id="Group_4713" data-name="Group 4713">
      <g id="Group_4712" data-name="Group 4712" transform="translate(390.416 333.009)">
        <path id="Path_42236" data-name="Path 42236" d="M.641-3.828A4.618,4.618,0,0,1,.922-5.484a3.911,3.911,0,0,1,.8-1.281,3.4,3.4,0,0,1,1.219-.828,3.984,3.984,0,0,1,1.547-.3,3.984,3.984,0,0,1,1.547.3,3.374,3.374,0,0,1,1.219.813A3.814,3.814,0,0,1,8.031-5.5a4.618,4.618,0,0,1,.281,1.656A4.637,4.637,0,0,1,8.031-2.2a3.966,3.966,0,0,1-.781,1.3,3.661,3.661,0,0,1-1.219.844,3.984,3.984,0,0,1-1.547.3,4.021,4.021,0,0,1-1.562-.3A3.608,3.608,0,0,1,1.7-.891a3.9,3.9,0,0,1-.781-1.3A4.637,4.637,0,0,1,.641-3.828Zm1.453,0a3.54,3.54,0,0,0,.188,1.188,2.734,2.734,0,0,0,.516.906,2.245,2.245,0,0,0,.766.578,2.132,2.132,0,0,0,.922.2,2.22,2.22,0,0,0,.953-.2A2.283,2.283,0,0,0,6.2-1.734a2.577,2.577,0,0,0,.5-.906,3.54,3.54,0,0,0,.188-1.187A3.711,3.711,0,0,0,6.7-5.062a2.446,2.446,0,0,0-.5-.906,2.071,2.071,0,0,0-.766-.547A2.4,2.4,0,0,0,4.484-6.7a2.3,2.3,0,0,0-.922.188,2.206,2.206,0,0,0-.766.547,2.585,2.585,0,0,0-.516.906A3.711,3.711,0,0,0,2.094-3.828Zm0,0" fill="#2B1867"/>
      </g>
    </g>
    <g id="Group_4715" data-name="Group 4715">
      <g id="Group_4714" data-name="Group 4714" transform="translate(399.479 333.009)">
        <path id="Path_42237" data-name="Path 42237" d="M6.25-6.047H4.844v-.469a1.5,1.5,0,0,0-.5.094,1.529,1.529,0,0,0-.469.281,1.816,1.816,0,0,0-.391.484,1.983,1.983,0,0,0-.25.688v3.7H4.547V0H.734V-1.266H1.8l.016-5.125H.734V-7.672H3.188v1.063a4.512,4.512,0,0,1,.3-.437,2.508,2.508,0,0,1,.375-.359,1.512,1.512,0,0,1,.453-.234,1.8,1.8,0,0,1,.531-.078H6.25Zm0,0" fill="#2B1867"/>
      </g>
    </g>
    <g id="Group_4717" data-name="Group 4717">
      <g id="Group_4716" data-name="Group 4716" transform="translate(406.582 333.009)">
        <path id="Path_42238" data-name="Path 42238" d="M.688-11.516H3.375v7H4.7L6.516-6.391H6.063V-7.672H8.969v1.281H8L5.672-3.984,8.219-1.266h.922V0H7.516L4.375-3.422h-1v2.156H4V0H.719V-1.266H1.984V-10.25H.688Zm0,0" fill="#2B1867"/>
      </g>
    </g>
    <g id="Group_4719" data-name="Group 4719">
      <g id="Group_4718" data-name="Group 4718" transform="translate(233.562 513.562)">
        <path id="Path_42239" data-name="Path 42239" d="M7.469.281A6.506,6.506,0,0,1,4.781-.266,6.79,6.79,0,0,1,2.609-1.812,6.827,6.827,0,0,1,1.156-4.2,8.629,8.629,0,0,1,.672-7.078a8.134,8.134,0,0,1,.5-2.875,7.13,7.13,0,0,1,1.391-2.328,6.638,6.638,0,0,1,2.156-1.578,6.507,6.507,0,0,1,2.75-.578,6.52,6.52,0,0,1,2.75.578,6.535,6.535,0,0,1,2.141,1.578A6.87,6.87,0,0,1,13.75-9.953a8.224,8.224,0,0,1,.5,2.875,8.192,8.192,0,0,1-.5,2.875,7.212,7.212,0,0,1-1.406,2.344A6.547,6.547,0,0,1,10.2-.3,6.486,6.486,0,0,1,7.469.281Zm0-1.734a4.318,4.318,0,0,0,2-.453A4.821,4.821,0,0,0,11-3.141a5.479,5.479,0,0,0,.984-1.781,6.538,6.538,0,0,0,.359-2.156,6.578,6.578,0,0,0-.391-2.234,5.206,5.206,0,0,0-1.062-1.828A4.749,4.749,0,0,0,9.328-12.3,4.456,4.456,0,0,0,7.469-12.7a4.348,4.348,0,0,0-2.031.469,4.826,4.826,0,0,0-1.547,1.219,5.558,5.558,0,0,0-.969,1.8,6.608,6.608,0,0,0-.344,2.141,6.83,6.83,0,0,0,.375,2.344A5.049,5.049,0,0,0,3.969-3.047a5.994,5.994,0,0,0,1.5,1.141A4.251,4.251,0,0,0,7.469-1.453Zm0,0" fill="#fff"/>
      </g>
    </g>
    <g id="Group_4721" data-name="Group 4721">
      <g id="Group_4720" data-name="Group 4720" transform="translate(248.466 513.562)">
        <path id="Path_42240" data-name="Path 42240" d="M.188-9.672H3.25v1.609H2.8L4.484-1.891,6.813-9.672H8.266l2.219,7.75L12.25-8.062h-.562V-9.672H14.75v1.609h-.828L11.266.156H9.656L7.469-7.578,5.281.156H3.656L1.016-8.062H.188Zm0,0" fill="#fff"/>
      </g>
    </g>
    <g id="Group_4723" data-name="Group 4723">
      <g id="Group_4722" data-name="Group 4722" transform="translate(263.772 513.562)">
        <path id="Path_42241" data-name="Path 42241" d="M7.3-1.609H8.672V-6.016A2.265,2.265,0,0,0,8.094-7.7a2.157,2.157,0,0,0-1.609-.578,2.889,2.889,0,0,0-1.234.3,5.979,5.979,0,0,0-1.156.7v5.672H5.453V0H.938V-1.609H2.281V-8.062H.938V-9.672H4.016v1.141h.016a5.952,5.952,0,0,1,.656-.516,5.152,5.152,0,0,1,.734-.422,5.671,5.671,0,0,1,.8-.281,3.58,3.58,0,0,1,.875-.109A4.284,4.284,0,0,1,8.5-9.641a2.87,2.87,0,0,1,1.063.656,2.921,2.921,0,0,1,.672,1.125,4.834,4.834,0,0,1,.25,1.625v4.625h1.344V0H7.3Zm0,0" fill="#fff"/>
      </g>
    </g>
    <g id="Group_4725" data-name="Group 4725">
      <g id="Group_4724" data-name="Group 4724" transform="translate(276.52 513.562)">
        <path id="Path_42242" data-name="Path 42242" d="M0,0ZM0,0" fill="#fff"/>
      </g>
    </g>
    <g id="Group_4727" data-name="Group 4727">
      <g id="Group_4726" data-name="Group 4726" transform="translate(280.701 513.562)">
        <path id="Path_42243" data-name="Path 42243" d="M4.234-1.609h1.3V-12.625H2.3v2.2H.391v-3.734H13.016v3.734H11.094v-2.2H7.359V-1.609H8.813V0H4.234Zm0,0" fill="#fff"/>
      </g>
    </g>
    <g id="Group_4729" data-name="Group 4729">
      <g id="Group_4728" data-name="Group 4728" transform="translate(294.084 513.562)">
        <path id="Path_42244" data-name="Path 42244" d="M1.063-14.531H4.125v5.922h.063a3.107,3.107,0,0,1,.594-.484A5,5,0,0,1,5.5-9.5a4.234,4.234,0,0,1,.766-.266,3.724,3.724,0,0,1,.844-.094,4.284,4.284,0,0,1,1.406.219,2.87,2.87,0,0,1,1.063.656,2.92,2.92,0,0,1,.672,1.125,4.831,4.831,0,0,1,.25,1.625v4.625h1.453V0H7.359V-1.609H8.688V-6.016A2.292,2.292,0,0,0,8.125-7.7,2.177,2.177,0,0,0,6.5-8.281,2.941,2.941,0,0,0,5.281-8a5.691,5.691,0,0,0-1.156.719v5.672H5.531V0H.938V-1.609H2.391V-12.922H1.063Zm0,0" fill="#fff"/>
      </g>
    </g>
    <g id="Group_4731" data-name="Group 4731">
      <g id="Group_4730" data-name="Group 4730" transform="translate(306.721 513.562)">
        <path id="Path_42245" data-name="Path 42245" d="M2.578-4.609a4.043,4.043,0,0,0,.063.75,3.41,3.41,0,0,0,.172.641A2.738,2.738,0,0,0,3.906-1.8a3.242,3.242,0,0,0,1.734.469,5.332,5.332,0,0,0,1.469-.2,7.1,7.1,0,0,0,1.5-.672l.7,1.188a7.407,7.407,0,0,1-1.922.969,6.434,6.434,0,0,1-2,.313A4.947,4.947,0,0,1,3.578-.062a3.932,3.932,0,0,1-1.437-.969A4.509,4.509,0,0,1,1.2-2.625a6.677,6.677,0,0,1-.344-2.25,6.67,6.67,0,0,1,.281-1.953,4.687,4.687,0,0,1,.875-1.609A4.066,4.066,0,0,1,3.438-9.516a4.544,4.544,0,0,1,1.984-.406,4.384,4.384,0,0,1,1.813.328,3.388,3.388,0,0,1,1.2.875,3.721,3.721,0,0,1,.7,1.25,7.641,7.641,0,0,1,.328,1.422c.031.242.051.484.063.734s.016.477.016.7ZM5.3-8.469A3.015,3.015,0,0,0,4.234-8.3a2.2,2.2,0,0,0-.781.5,2.277,2.277,0,0,0-.5.781,4.992,4.992,0,0,0-.281,1.047H7.688a4.785,4.785,0,0,0-.187-1,2.043,2.043,0,0,0-.406-.781,1.9,1.9,0,0,0-.719-.531A2.748,2.748,0,0,0,5.3-8.469Zm0,0" fill="#fff"/>
      </g>
    </g>
    <g id="Group_4733" data-name="Group 4733">
      <g id="Group_4732" data-name="Group 4732" transform="translate(317.686 513.562)">
        <path id="Path_42246" data-name="Path 42246" d="M0,0ZM0,0" fill="#fff"/>
      </g>
    </g>
    <g id="Group_4735" data-name="Group 4735">
      <g id="Group_4734" data-name="Group 4734" transform="translate(321.868 513.562)">
        <path id="Path_42247" data-name="Path 42247" d="M1.328-14.156H5.938v1.609H4.516V-1.609H9.391a.711.711,0,0,0,.3-.062,1.015,1.015,0,0,0,.266-.187.967.967,0,0,0,.2-.25.675.675,0,0,0,.078-.3V-4.187h1.781V0H1.328V-1.609H2.688V-12.547H1.328Zm0,0" fill="#fff"/>
      </g>
    </g>
    <g id="Group_4737" data-name="Group 4737">
      <g id="Group_4736" data-name="Group 4736" transform="translate(333.963 513.562)">
        <path id="Path_42248" data-name="Path 42248" d="M2.578-4.609a4.043,4.043,0,0,0,.063.75,3.41,3.41,0,0,0,.172.641A2.738,2.738,0,0,0,3.906-1.8a3.242,3.242,0,0,0,1.734.469,5.332,5.332,0,0,0,1.469-.2,7.1,7.1,0,0,0,1.5-.672l.7,1.188a7.407,7.407,0,0,1-1.922.969,6.434,6.434,0,0,1-2,.313A4.947,4.947,0,0,1,3.578-.062a3.932,3.932,0,0,1-1.437-.969A4.509,4.509,0,0,1,1.2-2.625a6.677,6.677,0,0,1-.344-2.25,6.67,6.67,0,0,1,.281-1.953,4.687,4.687,0,0,1,.875-1.609A4.066,4.066,0,0,1,3.438-9.516a4.544,4.544,0,0,1,1.984-.406,4.384,4.384,0,0,1,1.813.328,3.388,3.388,0,0,1,1.2.875,3.721,3.721,0,0,1,.7,1.25,7.641,7.641,0,0,1,.328,1.422c.031.242.051.484.063.734s.016.477.016.7ZM5.3-8.469A3.015,3.015,0,0,0,4.234-8.3a2.2,2.2,0,0,0-.781.5,2.277,2.277,0,0,0-.5.781,4.992,4.992,0,0,0-.281,1.047H7.688a4.785,4.785,0,0,0-.187-1,2.043,2.043,0,0,0-.406-.781,1.9,1.9,0,0,0-.719-.531A2.748,2.748,0,0,0,5.3-8.469Zm0,0" fill="#fff"/>
      </g>
    </g>
    <g id="Group_4739" data-name="Group 4739">
      <g id="Group_4738" data-name="Group 4738" transform="translate(344.929 513.562)">
        <path id="Path_42249" data-name="Path 42249" d="M.188-9.672H3.531v1.609H2.625L5.016-1.406,7.344-8.062H6.766V-9.672H9.828v1.609H9L5.828.156H4.109L.953-8.062H.188Zm0,0" fill="#fff"/>
      </g>
    </g>
    <g id="Group_4741" data-name="Group 4741">
      <g id="Group_4740" data-name="Group 4740" transform="translate(355.194 513.562)">
        <path id="Path_42250" data-name="Path 42250" d="M2.578-4.609a4.043,4.043,0,0,0,.063.75,3.41,3.41,0,0,0,.172.641A2.738,2.738,0,0,0,3.906-1.8a3.242,3.242,0,0,0,1.734.469,5.332,5.332,0,0,0,1.469-.2,7.1,7.1,0,0,0,1.5-.672l.7,1.188a7.407,7.407,0,0,1-1.922.969,6.434,6.434,0,0,1-2,.313A4.947,4.947,0,0,1,3.578-.062a3.932,3.932,0,0,1-1.437-.969A4.509,4.509,0,0,1,1.2-2.625a6.677,6.677,0,0,1-.344-2.25,6.67,6.67,0,0,1,.281-1.953,4.687,4.687,0,0,1,.875-1.609A4.066,4.066,0,0,1,3.438-9.516a4.544,4.544,0,0,1,1.984-.406,4.384,4.384,0,0,1,1.813.328,3.388,3.388,0,0,1,1.2.875,3.721,3.721,0,0,1,.7,1.25,7.641,7.641,0,0,1,.328,1.422c.031.242.051.484.063.734s.016.477.016.7ZM5.3-8.469A3.015,3.015,0,0,0,4.234-8.3a2.2,2.2,0,0,0-.781.5,2.277,2.277,0,0,0-.5.781,4.992,4.992,0,0,0-.281,1.047H7.688a4.785,4.785,0,0,0-.187-1,2.043,2.043,0,0,0-.406-.781,1.9,1.9,0,0,0-.719-.531A2.748,2.748,0,0,0,5.3-8.469Zm0,0" fill="#fff"/>
      </g>
    </g>
    <g id="Group_4743" data-name="Group 4743">
      <g id="Group_4742" data-name="Group 4742" transform="translate(366.16 513.562)">
        <path id="Path_42251" data-name="Path 42251" d="M7.3-1.609H8.672V-6.016A2.265,2.265,0,0,0,8.094-7.7a2.157,2.157,0,0,0-1.609-.578,2.889,2.889,0,0,0-1.234.3,5.979,5.979,0,0,0-1.156.7v5.672H5.453V0H.938V-1.609H2.281V-8.062H.938V-9.672H4.016v1.141h.016a5.952,5.952,0,0,1,.656-.516,5.152,5.152,0,0,1,.734-.422,5.671,5.671,0,0,1,.8-.281,3.58,3.58,0,0,1,.875-.109A4.284,4.284,0,0,1,8.5-9.641a2.87,2.87,0,0,1,1.063.656,2.921,2.921,0,0,1,.672,1.125,4.834,4.834,0,0,1,.25,1.625v4.625h1.344V0H7.3Zm0,0" fill="#fff"/>
      </g>
    </g>
    <g id="Group_4745" data-name="Group 4745">
      <g id="Group_4744" data-name="Group 4744" transform="translate(378.909 513.562)">
        <path id="Path_42252" data-name="Path 42252" d="M0,0ZM0,0" fill="#fff"/>
      </g>
    </g>
    <g id="Group_4747" data-name="Group 4747">
      <g id="Group_4746" data-name="Group 4746" transform="translate(383.09 513.562)">
        <path id="Path_42253" data-name="Path 42253" d="M6.109.172A5.226,5.226,0,0,1,3.578-.391,4.372,4.372,0,0,1,1.953-1.922a6.913,6.913,0,0,1-.875-2.3,15.228,15.228,0,0,1-.25-2.844,12.62,12.62,0,0,1,.344-3.016,6.781,6.781,0,0,1,.953-2.25,5.66,5.66,0,0,1,1.516-1.453,4.534,4.534,0,0,1,2.5-.594,5.761,5.761,0,0,1,2.5.484,3.955,3.955,0,0,1,1.641,1.453,6.244,6.244,0,0,1,.906,2.375,15.876,15.876,0,0,1,.266,2.953,14.561,14.561,0,0,1-.266,2.844,6.586,6.586,0,0,1-.875,2.312A4.574,4.574,0,0,1,8.656-.391,5.216,5.216,0,0,1,6.109.172Zm0-1.672a3.187,3.187,0,0,0,1.766-.437,2.636,2.636,0,0,0,1-1.2,7.506,7.506,0,0,0,.516-1.781,13.425,13.425,0,0,0,.172-2.187A15.639,15.639,0,0,0,9.422-9.25a5.858,5.858,0,0,0-.5-1.8,3.155,3.155,0,0,0-1.047-1.266,2.972,2.972,0,0,0-1.734-.469,2.975,2.975,0,0,0-1.766.469,3.087,3.087,0,0,0-.969,1.125,6.822,6.822,0,0,0-.5,1.813,14.86,14.86,0,0,0-.172,2.266,20.39,20.39,0,0,0,.109,2.188,5.712,5.712,0,0,0,.484,1.781,2.8,2.8,0,0,0,1.031,1.2A3.141,3.141,0,0,0,6.109-1.5Zm0,0" fill="#fff"/>
      </g>
    </g>
    <g id="Group_4749" data-name="Group 4749">
      <g id="Group_4748" data-name="Group 4748" transform="translate(395.502 513.562)">
        <path id="Path_42254" data-name="Path 42254" d="M.7-10.891a3.1,3.1,0,0,1,.234-1.2,3.019,3.019,0,0,1,.656-.984,3.193,3.193,0,0,1,1-.672,3.35,3.35,0,0,1,1.3-.25,3.244,3.244,0,0,1,1.281.25,3.177,3.177,0,0,1,1.016.672,3.019,3.019,0,0,1,.656.984,2.976,2.976,0,0,1,.25,1.2A3.052,3.052,0,0,1,6.859-9.7a3.173,3.173,0,0,1-.656,1,2.965,2.965,0,0,1-1,.672,3.344,3.344,0,0,1-1.312.25,3.317,3.317,0,0,1-1.312-.25A3.073,3.073,0,0,1,1.563-8.7a3.269,3.269,0,0,1-.641-1A3.189,3.189,0,0,1,.7-10.891Zm3.188-1.578a1.609,1.609,0,0,0-.625.125,1.421,1.421,0,0,0-.516.328,1.412,1.412,0,0,0-.344.5,1.489,1.489,0,0,0-.125.625,1.493,1.493,0,0,0,.125.609,1.511,1.511,0,0,0,.344.516,1.512,1.512,0,0,0,.516.344,1.54,1.54,0,0,0,.625.125A1.442,1.442,0,0,0,4.5-9.422a1.759,1.759,0,0,0,.516-.328,1.633,1.633,0,0,0,.344-.516,1.608,1.608,0,0,0,.125-.625,1.552,1.552,0,0,0-.125-.625,1.521,1.521,0,0,0-.344-.5,1.49,1.49,0,0,0-.516-.328A1.505,1.505,0,0,0,3.891-12.469Zm7.8-1.906h1.828L3.8.156H1.984ZM8.781-3.016A3.066,3.066,0,0,1,9.016-4.2a3.02,3.02,0,0,1,.656-.984,3.359,3.359,0,0,1,1.016-.672,3.351,3.351,0,0,1,1.3-.25,3.245,3.245,0,0,1,1.281.25,3.177,3.177,0,0,1,1.016.672,3.02,3.02,0,0,1,.656.984,3.065,3.065,0,0,1,.234,1.187,3.086,3.086,0,0,1-.234,1.2,2.861,2.861,0,0,1-.641.984,3.185,3.185,0,0,1-1,.688,3.416,3.416,0,0,1-1.312.25,3.424,3.424,0,0,1-1.328-.25,3.373,3.373,0,0,1-1-.687,3.106,3.106,0,0,1-.641-.984A3.087,3.087,0,0,1,8.781-3.016Zm3.2-1.562a1.608,1.608,0,0,0-.625.125,1.42,1.42,0,0,0-.516.328,1.422,1.422,0,0,0-.344.484,1.49,1.49,0,0,0-.125.625,1.541,1.541,0,0,0,.125.625,1.51,1.51,0,0,0,.344.516,1.511,1.511,0,0,0,.516.344,1.54,1.54,0,0,0,.625.125,1.443,1.443,0,0,0,.609-.125,1.413,1.413,0,0,0,.5-.344,1.633,1.633,0,0,0,.344-.516,1.609,1.609,0,0,0,.125-.625,1.553,1.553,0,0,0-.125-.625,1.538,1.538,0,0,0-.344-.484,1.329,1.329,0,0,0-.5-.328A1.5,1.5,0,0,0,11.984-4.578Zm0,0" fill="#fff"/>
      </g>
    </g>
    <g id="Group_4751" data-name="Group 4751">
      <g id="Group_4750" data-name="Group 4750" transform="translate(411.648 513.562)">
        <path id="Path_42255" data-name="Path 42255" d="M0,0ZM0,0" fill="#fff"/>
      </g>
    </g>
    <g id="Group_4753" data-name="Group 4753">
      <g id="Group_4752" data-name="Group 4752" transform="translate(415.829 513.562)">
        <path id="Path_42256" data-name="Path 42256" d="M1.328-14.156H11.484v4H9.563v-2.391H4.516V-8H9.375v1.578H4.516v4.812H5.938V0H1.328V-1.609H2.688V-12.547H1.328Zm0,0" fill="#fff"/>
      </g>
    </g>
    <g id="Group_4755" data-name="Group 4755">
      <g id="Group_4754" data-name="Group 4754" transform="translate(427.429 513.562)">
        <path id="Path_42257" data-name="Path 42257" d="M2.578-4.609a4.043,4.043,0,0,0,.063.75,3.41,3.41,0,0,0,.172.641A2.738,2.738,0,0,0,3.906-1.8a3.242,3.242,0,0,0,1.734.469,5.332,5.332,0,0,0,1.469-.2,7.1,7.1,0,0,0,1.5-.672l.7,1.188a7.407,7.407,0,0,1-1.922.969,6.434,6.434,0,0,1-2,.313A4.947,4.947,0,0,1,3.578-.062a3.932,3.932,0,0,1-1.437-.969A4.509,4.509,0,0,1,1.2-2.625a6.677,6.677,0,0,1-.344-2.25,6.67,6.67,0,0,1,.281-1.953,4.687,4.687,0,0,1,.875-1.609A4.066,4.066,0,0,1,3.438-9.516a4.544,4.544,0,0,1,1.984-.406,4.384,4.384,0,0,1,1.813.328,3.388,3.388,0,0,1,1.2.875,3.721,3.721,0,0,1,.7,1.25,7.641,7.641,0,0,1,.328,1.422c.031.242.051.484.063.734s.016.477.016.7ZM5.3-8.469A3.015,3.015,0,0,0,4.234-8.3a2.2,2.2,0,0,0-.781.5,2.277,2.277,0,0,0-.5.781,4.992,4.992,0,0,0-.281,1.047H7.688a4.785,4.785,0,0,0-.187-1,2.043,2.043,0,0,0-.406-.781,1.9,1.9,0,0,0-.719-.531A2.748,2.748,0,0,0,5.3-8.469Zm0,0" fill="#fff"/>
      </g>
    </g>
    <g id="Group_4757" data-name="Group 4757">
      <g id="Group_4756" data-name="Group 4756" transform="translate(438.395 513.562)">
        <path id="Path_42258" data-name="Path 42258" d="M2.578-4.609a4.043,4.043,0,0,0,.063.75,3.41,3.41,0,0,0,.172.641A2.738,2.738,0,0,0,3.906-1.8a3.242,3.242,0,0,0,1.734.469,5.332,5.332,0,0,0,1.469-.2,7.1,7.1,0,0,0,1.5-.672l.7,1.188a7.407,7.407,0,0,1-1.922.969,6.434,6.434,0,0,1-2,.313A4.947,4.947,0,0,1,3.578-.062a3.932,3.932,0,0,1-1.437-.969A4.509,4.509,0,0,1,1.2-2.625a6.677,6.677,0,0,1-.344-2.25,6.67,6.67,0,0,1,.281-1.953,4.687,4.687,0,0,1,.875-1.609A4.066,4.066,0,0,1,3.438-9.516a4.544,4.544,0,0,1,1.984-.406,4.384,4.384,0,0,1,1.813.328,3.388,3.388,0,0,1,1.2.875,3.721,3.721,0,0,1,.7,1.25,7.641,7.641,0,0,1,.328,1.422c.031.242.051.484.063.734s.016.477.016.7ZM5.3-8.469A3.015,3.015,0,0,0,4.234-8.3a2.2,2.2,0,0,0-.781.5,2.277,2.277,0,0,0-.5.781,4.992,4.992,0,0,0-.281,1.047H7.688a4.785,4.785,0,0,0-.187-1,2.043,2.043,0,0,0-.406-.781,1.9,1.9,0,0,0-.719-.531A2.748,2.748,0,0,0,5.3-8.469Zm0,0" fill="#fff"/>
      </g>
    </g>
    <g id="Group_4759" data-name="Group 4759">
      <g id="Group_4758" data-name="Group 4758" transform="translate(449.361 513.562)">
        <path id="Path_42259" data-name="Path 42259" d="M0,0ZM0,0" fill="#fff"/>
      </g>
    </g>
    <g id="Group_4761" data-name="Group 4761">
      <g id="Group_4760" data-name="Group 4760" transform="translate(453.542 513.562)">
        <path id="Path_42260" data-name="Path 42260" d="M10.094-14.156h4.594v1.609h-1.2V0H11.094L4.516-11.734V-1.609H5.969V0H1.375V-1.609H2.688V-12.547H1.328v-1.625H5.141L11.609-2.547,11.688-3v-9.547H10.094Zm0,0" fill="#fff"/>
      </g>
    </g>
    <g id="Group_4763" data-name="Group 4763">
      <g id="Group_4762" data-name="Group 4762" transform="translate(468.698 513.562)">
        <path id="Path_42261" data-name="Path 42261" d="M2.578-4.609a4.043,4.043,0,0,0,.063.75,3.41,3.41,0,0,0,.172.641A2.738,2.738,0,0,0,3.906-1.8a3.242,3.242,0,0,0,1.734.469,5.332,5.332,0,0,0,1.469-.2,7.1,7.1,0,0,0,1.5-.672l.7,1.188a7.407,7.407,0,0,1-1.922.969,6.434,6.434,0,0,1-2,.313A4.947,4.947,0,0,1,3.578-.062a3.932,3.932,0,0,1-1.437-.969A4.509,4.509,0,0,1,1.2-2.625a6.677,6.677,0,0,1-.344-2.25,6.67,6.67,0,0,1,.281-1.953,4.687,4.687,0,0,1,.875-1.609A4.066,4.066,0,0,1,3.438-9.516a4.544,4.544,0,0,1,1.984-.406,4.384,4.384,0,0,1,1.813.328,3.388,3.388,0,0,1,1.2.875,3.721,3.721,0,0,1,.7,1.25,7.641,7.641,0,0,1,.328,1.422c.031.242.051.484.063.734s.016.477.016.7ZM5.3-8.469A3.015,3.015,0,0,0,4.234-8.3a2.2,2.2,0,0,0-.781.5,2.277,2.277,0,0,0-.5.781,4.992,4.992,0,0,0-.281,1.047H7.688a4.785,4.785,0,0,0-.187-1,2.043,2.043,0,0,0-.406-.781,1.9,1.9,0,0,0-.719-.531A2.748,2.748,0,0,0,5.3-8.469Zm0,0" fill="#fff"/>
      </g>
    </g>
    <g id="Group_4765" data-name="Group 4765">
      <g id="Group_4764" data-name="Group 4764" transform="translate(479.664 513.562)">
        <path id="Path_42262" data-name="Path 42262" d="M3.734-9.672H6v1.406H3.719L3.688-2.687a2.832,2.832,0,0,0,.125.938.885.885,0,0,0,.422.484,1.5,1.5,0,0,0,.656.141,3.3,3.3,0,0,0,.688-.062,3.063,3.063,0,0,0,.656-.25L6.641-.266a4.6,4.6,0,0,1-.953.359A4.2,4.2,0,0,1,4.531.234,3.584,3.584,0,0,1,3.422.078a1.809,1.809,0,0,1-.8-.516,2.425,2.425,0,0,1-.484-.969,6.325,6.325,0,0,1-.156-1.531l.031-5.328H.469V-9.672H2.031v-2.313l1.7-.812Zm0,0" fill="#fff"/>
      </g>
    </g>
    <g id="Group_4767" data-name="Group 4767">
      <g id="Group_4766" data-name="Group 4766" transform="translate(486.776 513.562)">
        <path id="Path_42263" data-name="Path 42263" d="M.188-9.672H3.25v1.609H2.8L4.484-1.891,6.813-9.672H8.266l2.219,7.75L12.25-8.062h-.562V-9.672H14.75v1.609h-.828L11.266.156H9.656L7.469-7.578,5.281.156H3.656L1.016-8.062H.188Zm0,0" fill="#fff"/>
      </g>
    </g>
    <g id="Group_4769" data-name="Group 4769">
      <g id="Group_4768" data-name="Group 4768" transform="translate(502.081 513.562)">
        <path id="Path_42264" data-name="Path 42264" d="M.8-4.844a5.888,5.888,0,0,1,.375-2.078,4.728,4.728,0,0,1,1-1.625A4.38,4.38,0,0,1,3.7-9.578a4.974,4.974,0,0,1,1.953-.375,5.024,5.024,0,0,1,1.969.375A4.248,4.248,0,0,1,9.141-8.547a4.665,4.665,0,0,1,1,1.609A5.8,5.8,0,0,1,10.5-4.859a5.9,5.9,0,0,1-.359,2.094,5.009,5.009,0,0,1-1,1.625A4.48,4.48,0,0,1,7.625-.078,5.024,5.024,0,0,1,5.656.3,5.061,5.061,0,0,1,3.672-.078,4.484,4.484,0,0,1,2.156-1.125a4.88,4.88,0,0,1-1-1.625A6.274,6.274,0,0,1,.8-4.844Zm1.844,0a4.573,4.573,0,0,0,.234,1.516,3.567,3.567,0,0,0,.656,1.141,3.092,3.092,0,0,0,.969.734,2.725,2.725,0,0,0,1.156.25,2.912,2.912,0,0,0,1.2-.25,2.732,2.732,0,0,0,.969-.719,3.631,3.631,0,0,0,.641-1.156A4.573,4.573,0,0,0,8.7-4.844a4.7,4.7,0,0,0-.234-1.547,3.317,3.317,0,0,0-.641-1.141,2.479,2.479,0,0,0-.969-.687,3.1,3.1,0,0,0-1.2-.234A2.9,2.9,0,0,0,4.5-8.219a2.6,2.6,0,0,0-.969.688,3.406,3.406,0,0,0-.656,1.141A4.7,4.7,0,0,0,2.641-4.844Zm0,0" fill="#fff"/>
      </g>
    </g>
    <g id="Group_4771" data-name="Group 4771">
      <g id="Group_4770" data-name="Group 4770" transform="translate(513.514 513.562)">
        <path id="Path_42265" data-name="Path 42265" d="M7.891-7.625H6.109v-.609a1.779,1.779,0,0,0-.625.125,1.819,1.819,0,0,0-.594.359,2.248,2.248,0,0,0-.5.609,2.782,2.782,0,0,0-.3.859v4.672H5.734V0H.938V-1.609H2.266l.016-6.453H.938V-9.672H4.031v1.328a3.223,3.223,0,0,1,.359-.547,2.692,2.692,0,0,1,.469-.453,2.31,2.31,0,0,1,.578-.3,2.071,2.071,0,0,1,.672-.109h.922c.289,0,.578.008.859.016Zm0,0" fill="#fff"/>
      </g>
    </g>
    <g id="Group_4773" data-name="Group 4773">
      <g id="Group_4772" data-name="Group 4772" transform="translate(522.473 513.562)">
        <path id="Path_42266" data-name="Path 42266" d="M.859-14.531H4.266v1.609H4.25V-5.7H5.938l2.3-2.359H7.641V-9.672h3.672v1.609H10.094L7.156-5.031l3.2,3.422h1.172V0H9.484L5.531-4.328H4.25v2.719h.8V0H.922V-1.609H2.5V-12.922H.859Zm0,0" fill="#fff"/>
      </g>
    </g>
  </g>
</svg>
