<?xml version="1.0" encoding="utf-8"?>
<!-- Generator: Adobe Illustrator 25.2.3, SVG Export Plug-In . SVG Version: 6.00 Build 0)  -->
<svg version="1.1" id="Layer_1" xmlns="http://www.w3.org/2000/svg" xmlns:xlink="http://www.w3.org/1999/xlink" x="0px" y="0px"
	 viewBox="0 0 208 203.6" style="enable-background:new 0 0 208 203.6;" xml:space="preserve">
<style type="text/css">
	.st0{fill:url(#SVGID_1_);}
	.st1{fill:url(#SVGID_2_);}
	.st2{display:none;}
	.st3{display:inline;fill:url(#SVGID_3_);}
	.st4{display:inline;fill:url(#SVGID_4_);}
	.st5{display:inline;fill:url(#SVGID_5_);}
	.st6{display:inline;fill:url(#SVGID_6_);}
</style>
<image style="display:none;overflow:visible;enable-background:new    ;" width="312" height="268" xlink:href="87B8171D.png"  transform="matrix(1.2818 0 0 1.2818 -0.6911 30.8415)">
</image>
<g>
	
		<linearGradient id="SVGID_1_" gradientUnits="userSpaceOnUse" x1="51.0797" y1="93.9311" x2="198.1852" y2="171.8129" gradientTransform="matrix(1 0 0 -1 0 206)">
		<stop  offset="0" style="stop-color:#BF38E6"/>
		<stop  offset="0.1431" style="stop-color:#9B35E2"/>
		<stop  offset="0.3169" style="stop-color:#7632DE"/>
		<stop  offset="0.4913" style="stop-color:#592FDB"/>
		<stop  offset="0.664" style="stop-color:#452DD9"/>
		<stop  offset="0.8345" style="stop-color:#382CD7"/>
		<stop  offset="1" style="stop-color:#342CD7"/>
	</linearGradient>
	<path class="st0" d="M93.5,37.9v82.6c0,0,0.2,7.8,10,8.9h89c2.8-8.9,4.3-18.4,4.3-28.3c0-52.6-42.6-95.2-95.2-95.2
		c-28.3,0-53.8,12.4-71.2,32H93.5z"/>
	
		<linearGradient id="SVGID_2_" gradientUnits="userSpaceOnUse" x1="38.5663" y1="58.145" x2="188.0567" y2="135.4811" gradientTransform="matrix(1 0 0 -1 0 206)">
		<stop  offset="0" style="stop-color:#BF38E6"/>
		<stop  offset="1" style="stop-color:#342CD7"/>
	</linearGradient>
	<path class="st1" d="M96.3,162.1c0,0-34.2-0.4-39.2-35.3l0.4-57.6L12,68.7c-3.7,10.1-5.7,21-5.7,32.4c0,52.6,42.6,95.2,95.2,95.2
		c29.4,0,55.6-13.3,73.1-34.2L96.3,162.1L96.3,162.1z"/>
</g>
<g class="st2">
	<linearGradient id="SVGID_3_" gradientUnits="userSpaceOnUse" x1="-69.5729" y1="-18.6997" x2="15.2247" y2="-103.4974">
		<stop  offset="0" style="stop-color:#C438E7"/>
		<stop  offset="1" style="stop-color:#2D2BD6"/>
		<stop  offset="1" style="stop-color:#252AD5"/>
	</linearGradient>
	<polygon class="st3" points="42.7,-76 -15,-42.7 -14.7,-121.9 -43.2,-134.6 -43.2,-134.6 -42.7,8.2 42,-40.8 	"/>
	<linearGradient id="SVGID_4_" gradientUnits="userSpaceOnUse" x1="-19.4875" y1="0.2157" x2="140.67" y2="-159.9418">
		<stop  offset="0" style="stop-color:#C438E7"/>
		<stop  offset="1" style="stop-color:#2D2BD6"/>
		<stop  offset="1" style="stop-color:#252AD5"/>
	</linearGradient>
	<path class="st4" d="M60.4-187.7c-42,0-78.9,19.8-100,49.7l28.9,12.4c13.6-17.3,38.1-28.9,66.1-28.9c42.7,0,77.4,26.9,77.4,60.1
		S98.2-34.3,55.5-34.3c-4.7,0-9.4-0.4-13.9-1l0,0l-61,35.6c21.1,17.4,49.1,28,79.8,28c65.6,0,118.8-48.3,118.8-108
		S126-187.7,60.4-187.7z"/>
	<linearGradient id="SVGID_5_" gradientUnits="userSpaceOnUse" x1="32.3725" y1="-96.6793" x2="124.2876" y2="-188.5943">
		<stop  offset="0" style="stop-color:#C438E7"/>
		<stop  offset="1" style="stop-color:#2D2BD6"/>
		<stop  offset="1" style="stop-color:#252AD5"/>
	</linearGradient>
	<path class="st5" d="M177.8-115c-12.8-48.5-61.2-84.6-118.9-84.6c-26.3,0-50.7,7.5-70.7,20.3c-6.2,5.6-13.5,13-18.1,20.4
		c22.5-21.5,54.3-34.9,89.6-34.9C115.1-193.9,162-160.7,177.8-115z"/>
	<linearGradient id="SVGID_6_" gradientUnits="userSpaceOnUse" x1="54.849" y1="-144.3675" x2="116.2814" y2="-205.7999">
		<stop  offset="0" style="stop-color:#C438E7"/>
		<stop  offset="1" style="stop-color:#2D2BD6"/>
		<stop  offset="1" style="stop-color:#252AD5"/>
	</linearGradient>
	<path class="st6" d="M162.2-154.3c-17-31.9-54.1-54-97.2-54c-21.7,0-41.9,5.6-58.8,15.3c16-6.6,33.9-10.3,52.9-10.3
		C102.9-203.3,141.2-183.7,162.2-154.3z"/>
</g>
</svg>
